<svg width="49" height="49" viewBox="0 0 49 49" fill="none" xmlns="http://www.w3.org/2000/svg">
<path d="M19.987 34.5215H29.3329M24.6599 6.52148V8.52148M37.3878 11.7936L35.9736 13.2078M42.66 24.5214H40.66M8.66003 24.5214H6.66003M13.3462 13.2078L11.932 11.7936M17.5889 31.5926C13.6836 27.6874 13.6836 21.3557 17.5889 17.4505C21.4941 13.5452 27.8258 13.5452 31.731 17.4505C35.6362 21.3557 35.6362 27.6874 31.731 31.5926L30.6368 32.6868C29.371 33.9526 28.6599 35.6693 28.6599 37.4594V38.5215C28.6599 40.7306 26.8691 42.5215 24.6599 42.5215C22.4508 42.5215 20.6599 40.7306 20.6599 38.5215V37.4594C20.6599 35.6693 19.9488 33.9526 18.6831 32.6868L17.5889 31.5926Z" stroke="#FF2975" stroke-width="4" stroke-linecap="round" stroke-linejoin="round"/>
</svg>
