<svg width="1440" height="789" viewBox="0 0 1440 789" fill="none" xmlns="http://www.w3.org/2000/svg">
<g clip-path="url(#clip0_8_2621)">
<rect width="1625" height="1625" transform="translate(-92 -295.479)" fill="#111111"/>
<g opacity="0.1" filter="url(#filter0_d_8_2621)">
<path d="M-17.8818 751.948C126.87 765.185 272.514 762.443 417.645 758.165C438.378 757.554 459.1 756.911 479.808 756.279C614.504 754.417 743.932 754.417 877.455 751.909H981.578C997.736 752.076 1013.72 752.206 1029.53 752.49C1180.75 762.507 1330.4 766.551 1479.38 751.909" stroke="white" stroke-width="1.25289" stroke-miterlimit="10"/>
<path d="M-18.2001 681.262C80.6136 681.614 177.685 709.926 278.8 701.837C456.764 689.703 634.727 677.569 813.553 680.612H1029.42C1156.48 681.614 1277.82 681.614 1403.45 680.617C1419.48 680.612 1433.26 680.612 1444.51 680.612H1479.38" stroke="white" stroke-width="1.25289" stroke-miterlimit="10"/>
<path d="M-18.6859 610.738C60.3907 620.945 145.328 641.168 226.22 641.168C428.451 641.168 630.683 596.677 832.564 609.314H1479.38" stroke="white" stroke-width="1.25289" stroke-miterlimit="10"/>
<path d="M-18.65 539.309C104.881 544.097 222.175 596.677 351.603 572.409C517.433 536.007 671.129 544.097 832.397 537.825C853.399 537.522 874.261 537.27 895.043 537.069C998.884 536.063 1100.7 536.342 1206.03 538.017H1479.38" stroke="white" stroke-width="1.25289" stroke-miterlimit="10"/>
<path d="M-18.0536 467.065C270.711 527.918 557.879 459.159 849.678 459.016C869.475 458.357 889.263 457.972 909.046 457.813C1007.96 457.019 1106.74 461.879 1205.84 466.411C1219.44 466.532 1232.63 466.6 1245.44 466.719H1479.38" stroke="white" stroke-width="1.25289" stroke-miterlimit="10"/>
<path d="M-17.8618 395.423C-17.8618 395.423 -6.69436 395.423 13.5844 395.606C286.889 418.714 565.968 414.669 837.943 371.113C855.202 367.949 872.483 365.019 889.83 362.711C907.177 360.404 924.592 358.718 942.118 358.044C1055.37 349.955 1164.57 406.58 1282.52 395.375C1306.43 395.422 1328.64 395.423 1348.89 395.423H1479.38" stroke="white" stroke-width="1.25289" stroke-miterlimit="10"/>
<path d="M-17.8618 324.125H51.0084C282.845 317.598 513.388 345.91 745.823 308.447C764.748 303.095 783.343 296.777 801.858 290.101C857.181 270.074 911.784 246.817 970.431 236.705C998.743 232.661 1027.06 232.661 1055.37 244.795C1128.17 289.285 1196.93 333.776 1282.52 324.038C1306.43 324.115 1328.64 324.125 1348.89 324.125H1479.38" stroke="white" stroke-width="1.25289" stroke-miterlimit="10"/>
<path d="M-17.8618 252.828H161.389C183.279 252.828 206.756 252.828 231.573 252.829C379.916 252.884 529.567 252.884 681.024 251.36C698.43 249.85 715.619 246.817 731.798 240.75C889.538 171.991 1079.64 54.6973 1225.24 236.705C1249.51 269.062 1306.13 252.884 1348.97 252.781C1369.14 252.824 1387.42 252.828 1403.45 252.828H1479.38" stroke="white" stroke-width="1.25289" stroke-miterlimit="10"/>
<path d="M-17.8618 181.53H628.956C760.11 184.125 869.315 103.233 994.698 70.8755C1047.28 58.7417 1103.9 42.5632 1140.31 74.9202C1229.29 159.857 1326.36 200.304 1444.51 181.526C1467.01 181.53 1479.38 181.53 1479.38 181.53" stroke="white" stroke-width="1.25289" stroke-miterlimit="10"/>
<path d="M-17.8618 110.233H628.956C654.95 115.367 675.173 111.322 699.441 107.278C857.181 78.9652 1014.92 -42.3735 1160.53 34.4743C1261.64 83.0098 1366.8 119.411 1479.38 110.233" stroke="white" stroke-width="1.25289" stroke-miterlimit="10"/>
<path d="M-17.8618 38.9362H120.311C148.823 38.9362 180.986 38.9295 216.08 38.9329C251.174 38.9363 289.19 38.9362 329.399 38.9362H652.904C788.423 42.5637 913.806 -22.1503 1047.28 -30.2396C1087.72 -30.2396 1128.17 -34.2842 1164.57 -18.1057C1215.13 2.11743 1266.7 18.2959 1319.2 28.4577C1336.67 31.8055 1354.26 34.4893 1371.93 36.3957C1407.25 42.5637 1443.65 38.519 1479.14 38.1556" stroke="white" stroke-width="1.25289" stroke-miterlimit="10"/>
<path d="M1404.21 -362.899C1399.16 -232.471 1411.29 -107.088 1411.69 20.5582C1411.89 37.5699 1412.04 54.0499 1412.13 70.4928C1411.95 118.944 1410.82 167.199 1408.11 215.287C1408.08 229.116 1408.08 243.035 1408.08 257.041V681.889C1408.12 698.292 1408.16 714.454 1408.31 730.779C1399.16 847.443 1443.65 956.648 1492.19 1061.81C1512.41 1114.39 1520.5 1171.01 1498.01 1224.56" stroke="white" stroke-width="1.25289" stroke-miterlimit="10"/>
<path d="M1334.69 -345.376C1334.45 -228.426 1346.58 -115.177 1343.88 3.29169C1344.2 25.7453 1344.4 47.7185 1344.4 69.707C1344.1 135.104 1342.01 200.639 1336.84 266.363C1336.79 281.25 1336.79 296.201 1336.79 311.218V633.032C1310.18 815.087 1403.21 968.782 1455.79 1134.61C1467.92 1171.01 1451.74 1207.42 1431.4 1237.2" stroke="white" stroke-width="1.25289" stroke-miterlimit="10"/>
<path d="M1265.02 -327.175C1273.78 -216.293 1289.96 -111.132 1285.97 -2.40378C1286 16.8045 1285.78 35.9426 1285.36 55.0669C1282.83 169.813 1273.68 284.929 1265.49 401.911V633.06C1257.6 790.819 1298.05 944.515 1370.85 1086.08C1399.16 1134.61 1378.94 1195.28 1343.26 1236.88" stroke="white" stroke-width="1.25289" stroke-miterlimit="10"/>
<path d="M1194.21 -317.742C1188.84 -228.426 1213.11 -143.489 1238.01 -57.6655C1242.21 -42.0395 1246.14 -26.1951 1249.51 -10.0166C1257.6 22.3404 1257.6 54.6974 1249.51 87.0543C1213.11 224.572 1180.75 353.999 1194.09 492.826C1194.14 508.043 1194.17 523.195 1194.19 538.296V633.055C1180.75 798.908 1237.38 944.514 1269.73 1110.34C1277.82 1150.79 1257.6 1187.19 1237.68 1221.16" stroke="white" stroke-width="1.25289" stroke-miterlimit="10"/>
<path d="M1122.9 -317.551V-289.559C1124.13 -268.873 1124.13 -248.65 1124.13 -228.427C1140.31 -119.222 1241.42 -26.1955 1200.97 83.0093C1140.31 244.794 1099.86 410.624 1122.9 583.249V633.024C1116.04 774.64 1140.31 912.157 1156.48 1053.72C1160.53 1102.25 1148.39 1150.79 1136.95 1197.5" stroke="white" stroke-width="1.25289" stroke-miterlimit="10"/>
<path d="M1051.6 -317.551V-292.475C1051.6 -276.208 1051.61 -252.488 1053.9 -223.515C1051.32 -204.159 1059.41 -183.936 1067.5 -163.713C1099.86 -90.9095 1176.71 -30.2401 1152.44 50.6523C1087.72 232.66 1014.92 406.579 1051.6 598.799V681.889C1051.62 698.19 1051.64 714.28 1051.69 730.278C1051.51 805.039 1056.47 880.843 1059.16 956.479C1059.83 975.388 1060.36 994.287 1060.63 1013.16C1059.41 1069.9 1063.46 1126.52 1052.68 1182.92" stroke="white" stroke-width="1.25289" stroke-miterlimit="10"/>
<path d="M980.3 -317.551V-292.475C980.3 -276.208 980.3 -252.483 980.371 -222.676C982.565 -147.534 1035.14 -94.9541 1071.55 -30.2401C1087.72 2.11684 1091.77 38.5185 1075.59 70.8754C994.698 240.75 954.252 414.668 980.3 598.774V729.732C979.329 750.699 978.857 771.542 978.716 792.307C978.574 813.073 978.764 833.761 979.115 854.42C982.565 968.782 982.565 1086.08 977.149 1200.68" stroke="white" stroke-width="1.25289" stroke-miterlimit="10"/>
<path d="M909.003 -317.551V-241.62C909.003 -225.59 909.003 -207.31 909.224 -187.162C905.717 -167.757 913.806 -147.534 917.851 -127.311C938.074 -66.6417 998.743 -14.0616 978.52 54.697C938.074 216.482 873.36 366.133 907.942 531.05C908.5 548.888 908.747 566.055 909.003 583.249V767.106C909.761 924.291 934.029 1082.03 899.062 1237.21" stroke="white" stroke-width="1.25289" stroke-miterlimit="10"/>
<path d="M837.706 -317.551V-187.062C837.706 -166.814 837.914 -144.719 839.698 -121.999C845.047 -54.5079 885.494 6.16151 869.315 74.9201C857.181 151.768 846.059 227.605 839.534 303.475C836.272 341.411 834.159 379.355 833.645 417.438C828.869 475.338 841.003 527.918 837.705 583.249C837.706 614.975 837.706 646.32 837.706 677.043C837.706 692.405 837.707 707.612 837.743 722.675C845.047 904.068 881.449 1094.17 821.709 1273.13" stroke="white" stroke-width="1.25289" stroke-miterlimit="10"/>
<path d="M766.409 -317.551V-120.693C766.409 -108.741 766.428 -96.3829 766.696 -83.8646C768.2 -46.4186 772.245 -5.97237 772.245 30.4292C773.761 92.6153 771.865 155.37 769.448 218.315C768.643 239.297 767.779 260.3 766.965 281.31C755.757 402.563 759.781 523.881 763.443 645.448C764.054 665.709 764.673 685.999 765.267 706.361C780.334 900.023 816.735 1102.25 747.693 1293.2" stroke="white" stroke-width="1.25289" stroke-miterlimit="10"/>
<path d="M695.111 -317.551V-44.1998C695.111 -30.701 695.111 -16.8507 695.16 -2.75212C695.278 70.4633 695.337 142.461 695.331 214.384C695.329 232.365 695.282 250.341 695.11 268.33C675.492 399.079 677.534 527.488 684.588 655.977C685.646 674.389 686.805 692.803 688.146 711.382C719.664 904.068 743.932 1098.21 678.29 1286.72" stroke="white" stroke-width="1.25289" stroke-miterlimit="10"/>
<path d="M623.813 -317.551V180.253C623.635 196.388 623.498 212.699 623.264 229.151C626.637 333.776 565.968 430.847 565.968 536.007C565.968 584.543 583.158 631.056 598.929 677.854C604.232 693.506 609.377 709.189 613.785 725.125C646.86 900.023 667.084 1077.99 613.092 1252.86" stroke="white" stroke-width="1.25289" stroke-miterlimit="10"/>
<path d="M552.516 -317.551V180.253C552.063 196.397 551.691 212.716 551.03 229.184C557.879 341.865 456.764 422.758 440.585 531.963C440.585 548.141 436.54 568.364 444.63 584.543C464.853 624.989 493.165 661.39 515.611 699.091C523.094 711.658 529.924 724.369 535.585 737.423C578.102 887.889 578.102 1053.72 548.934 1207.35" stroke="white" stroke-width="1.25289" stroke-miterlimit="10"/>
<path d="M481.219 -317.551V180.253C480.82 196.397 480.48 212.716 479.662 229.216C472.942 349.954 363.737 426.802 339.47 548.141C339.47 564.319 335.425 584.543 343.514 600.721C377.219 668.131 447.439 710.263 471.577 777.627C476.429 791.126 479.436 805.635 479.992 821.62C485.076 940.47 489.121 1061.81 480.764 1180.76" stroke="white" stroke-width="1.25289" stroke-miterlimit="10"/>
<path d="M409.922 -317.551V180.253C409.84 196.388 409.764 212.699 409.611 229.152C408.228 252.883 404.184 273.107 396.094 297.374C359.693 406.579 242.399 499.606 286.889 620.944C311.157 689.703 388.005 730.149 408.228 806.997C412.273 827.22 408.228 843.399 409.891 864.826C409.922 878.992 409.922 892.843 409.93 906.35C408.228 956.648 408.228 1001.14 409.959 1049.25C409.938 1069.47 409.93 1087.74 409.922 1103.76V1179.69" stroke="white" stroke-width="1.25289" stroke-miterlimit="10"/>
<path d="M339.545 -331.454C339.47 -228.426 339.47 -131.355 338.507 -29.0475C338.547 -19.5278 338.576 -9.8644 338.625 -0.0234549V197.716C338.606 211.687 338.586 225.778 338.531 239.97C331.38 329.732 278.8 406.58 246.443 487.472C226.22 540.052 218.131 596.677 246.443 645.213C290.934 726.105 355.648 802.953 338.625 905.075C338.625 928.314 338.603 950.54 338.449 971.707C343.514 1041.59 335.425 1114.39 337.439 1181.18" stroke="white" stroke-width="1.25289" stroke-miterlimit="10"/>
<path d="M269.457 -377.209C266.666 -240.56 266.666 -107.087 267.117 29.3872C267.169 39.5204 267.209 49.7705 267.327 60.2676V235.714C266.666 252.884 266.666 265.018 266.666 281.197C250.488 390.401 181.729 483.428 189.818 596.677C199.93 677.57 252.173 744.418 264.914 820.776C267.46 836.05 268.427 851.703 267.158 867.928C270.711 976.872 254.532 1082.03 254.871 1192" stroke="white" stroke-width="1.25289" stroke-miterlimit="10"/>
<path d="M198.536 -403.982C197.908 -256.739 189.818 -115.177 195.623 29.0857C195.725 39.2943 195.801 49.6007 196.03 60.2672V235.714C196.03 250.946 196.012 266.302 195.605 281.901C143.075 459.635 150.926 631.387 183.974 808.621C187.584 828.375 191.442 848.279 195.344 868.533C197.908 964.737 169.595 1053.72 153.417 1146.75C149.372 1166.97 153.417 1191.24 152.664 1211.55" stroke="white" stroke-width="1.25289" stroke-miterlimit="10"/>
<path d="M127.387 -381.32C125.104 -244.605 121.06 -107.088 124.522 29.3866C124.574 39.5198 124.614 49.7699 124.733 60.267V235.713C124.733 250.946 124.733 266.294 124.73 281.731C105.615 436.617 101.792 594.433 113.246 750.776C114.678 770.319 116.331 789.856 118.176 809.408C145.327 940.47 72.5242 1057.76 32.0779 1179.1C28.0333 1195.28 32.0779 1211.46 33.1349 1228.88" stroke="white" stroke-width="1.25289" stroke-miterlimit="10"/>
<path d="M54.9768 -333.484C56.3459 -232.47 48.2566 -131.355 53.3178 -29.1736C53.3577 -19.5907 53.3871 -9.89562 53.4355 -0.0230569V326.105C45.365 474.38 47.4528 619.877 51.5461 768.564C52.111 789.824 52.7168 811.15 53.2271 832.697C68.4798 968.783 -32.6358 1065.85 -69.0374 1191.24C-73.082 1203.37 -69.0374 1219.55 -67.8155 1233.59" stroke="white" stroke-width="1.25289" stroke-miterlimit="10"/>
</g>
<g filter="url(#filter1_f_8_2621)">
<ellipse cx="1278.7" cy="607.494" rx="301.375" ry="179.111" transform="rotate(-8.13862 1278.7 607.494)" fill="#111111"/>
</g>
<g filter="url(#filter2_f_8_2621)">
<ellipse cx="277.742" cy="123.456" rx="315.171" ry="148.426" transform="rotate(-15.8658 277.742 123.456)" fill="#111111"/>
</g>
<g filter="url(#filter3_f_8_2621)">
<path d="M717.245 189.067C865.506 187.32 1002.61 219.776 1102.97 269.338C1211.68 322.652 1216.02 394.808 1217.04 461.038C1243.04 505.434 1137.14 541.384 1012.9 578.416C905.953 631.987 782.329 686.308 658.715 702C538.985 676.415 427.481 613.24 331.003 552.82C208.506 504.341 102.439 458.251 72 415.045C104.971 372.718 214.566 334.313 344.099 298.524C452.171 252.274 580.139 207.31 717.235 189.067" fill="#FF2975" fill-opacity="0.7"/>
</g>
</g>
<defs>
<filter id="filter0_d_8_2621" x="-144.141" y="-411.502" width="1707.29" height="1713.8" filterUnits="userSpaceOnUse" color-interpolation-filters="sRGB">
<feFlood flood-opacity="0" result="BackgroundImageFix"/>
<feColorMatrix in="SourceAlpha" type="matrix" values="0 0 0 0 0 0 0 0 0 0 0 0 0 0 0 0 0 0 127 0" result="hardAlpha"/>
<feOffset/>
<feGaussianBlur stdDeviation="3.75867"/>
<feColorMatrix type="matrix" values="0 0 0 0 1 0 0 0 0 1 0 0 0 0 1 0 0 0 0.75 0"/>
<feBlend mode="normal" in2="BackgroundImageFix" result="effect1_dropShadow_8_2621"/>
<feBlend mode="normal" in="SourceGraphic" in2="effect1_dropShadow_8_2621" result="shape"/>
</filter>
<filter id="filter1_f_8_2621" x="879.264" y="325.084" width="798.865" height="564.82" filterUnits="userSpaceOnUse" color-interpolation-filters="sRGB">
<feFlood flood-opacity="0" result="BackgroundImageFix"/>
<feBlend mode="normal" in="SourceGraphic" in2="BackgroundImageFix" result="shape"/>
<feGaussianBlur stdDeviation="50" result="effect1_foregroundBlur_8_2621"/>
</filter>
<filter id="filter2_f_8_2621" x="-128.162" y="-143.325" width="811.807" height="533.563" filterUnits="userSpaceOnUse" color-interpolation-filters="sRGB">
<feFlood flood-opacity="0" result="BackgroundImageFix"/>
<feBlend mode="normal" in="SourceGraphic" in2="BackgroundImageFix" result="shape"/>
<feGaussianBlur stdDeviation="50" result="effect1_foregroundBlur_8_2621"/>
</filter>
<filter id="filter3_f_8_2621" x="-58" y="59" width="1409" height="773" filterUnits="userSpaceOnUse" color-interpolation-filters="sRGB">
<feFlood flood-opacity="0" result="BackgroundImageFix"/>
<feBlend mode="normal" in="SourceGraphic" in2="BackgroundImageFix" result="shape"/>
<feGaussianBlur stdDeviation="65" result="effect1_foregroundBlur_8_2621"/>
</filter>
<clipPath id="clip0_8_2621">
<rect width="1625" height="1625" fill="white" transform="translate(-92 -295.479)"/>
</clipPath>
</defs>
</svg>
