<svg width="1440" height="665" viewBox="0 0 1440 665" fill="none" xmlns="http://www.w3.org/2000/svg">
<g clip-path="url(#clip0_1_2373)">
<rect width="1625" height="1625" transform="translate(-92 -295.406)" fill="#111111"/>
<g opacity="0.1" filter="url(#filter0_d_1_2373)">
<path d="M-18.6859 610.811C60.3907 621.017 145.328 641.241 226.22 641.241C428.451 641.241 630.683 596.75 832.564 609.387H1479.38" stroke="white" stroke-width="1.25289" stroke-miterlimit="10"/>
<path d="M-18.65 539.382C104.881 544.169 222.175 596.749 351.603 572.482C517.433 536.08 671.129 544.169 832.397 537.898C853.399 537.595 874.261 537.343 895.043 537.142C998.884 536.136 1100.7 536.415 1206.03 538.09H1479.38" stroke="white" stroke-width="1.25289" stroke-miterlimit="10"/>
<path d="M-18.0536 467.138C270.711 527.99 557.879 459.232 849.678 459.089C869.475 458.43 889.263 458.045 909.046 457.886C1007.96 457.092 1106.74 461.951 1205.84 466.484C1219.44 466.604 1232.63 466.673 1245.44 466.792H1479.38" stroke="white" stroke-width="1.25289" stroke-miterlimit="10"/>
<path d="M-17.8618 395.496C-17.8618 395.496 -6.69436 395.495 13.5844 395.679C286.889 418.786 565.968 414.742 837.943 371.186C855.202 368.022 872.483 365.092 889.83 362.784C907.177 360.476 924.592 358.791 942.118 358.117C1055.37 350.028 1164.57 406.653 1282.52 395.447C1306.43 395.495 1328.64 395.496 1348.89 395.496H1479.38" stroke="white" stroke-width="1.25289" stroke-miterlimit="10"/>
<path d="M-17.8618 324.198H51.0084C282.845 317.67 513.388 345.983 745.823 308.519C764.748 303.167 783.343 296.85 801.858 290.174C857.181 270.146 911.784 246.889 970.431 236.778C998.743 232.733 1027.06 232.733 1055.37 244.867C1128.17 289.358 1196.93 333.849 1282.52 324.11C1306.43 324.187 1328.64 324.198 1348.89 324.198H1479.38" stroke="white" stroke-width="1.25289" stroke-miterlimit="10"/>
<path d="M-17.8618 252.901H161.389C183.279 252.901 206.756 252.901 231.573 252.902C379.916 252.957 529.567 252.957 681.024 251.433C698.43 249.923 715.619 246.89 731.798 240.823C889.538 172.064 1079.64 54.77 1225.24 236.778C1249.51 269.135 1306.13 252.957 1348.97 252.854C1369.14 252.897 1387.42 252.901 1403.45 252.901H1479.38" stroke="white" stroke-width="1.25289" stroke-miterlimit="10"/>
<path d="M-17.8618 181.603H628.956C760.11 184.198 869.315 103.305 994.698 70.9483C1047.28 58.8144 1103.9 42.6359 1140.31 74.9929C1229.29 159.93 1326.36 200.376 1444.51 181.598C1467.01 181.603 1479.38 181.603 1479.38 181.603" stroke="white" stroke-width="1.25289" stroke-miterlimit="10"/>
<path d="M-17.8618 110.306H628.956C654.95 115.44 675.173 111.395 699.441 107.35C857.181 79.0379 1014.92 -42.3008 1160.53 34.5471C1261.64 83.0826 1366.8 119.484 1479.38 110.306" stroke="white" stroke-width="1.25289" stroke-miterlimit="10"/>
<path d="M-17.8618 39.009H120.311C148.823 39.009 180.986 39.0022 216.08 39.0056C251.174 39.009 289.19 39.009 329.399 39.009H652.904C788.423 42.6364 913.806 -22.0776 1047.28 -30.1668C1087.72 -30.1668 1128.17 -34.2114 1164.57 -18.0329C1215.13 2.19018 1266.7 18.3687 1319.2 28.5305C1336.67 31.8782 1354.26 34.562 1371.93 36.4685C1407.25 42.6364 1443.65 38.5918 1479.14 38.2283" stroke="white" stroke-width="1.25289" stroke-miterlimit="10"/>
<path d="M1404.21 -362.827C1399.16 -232.398 1411.29 -107.015 1411.69 20.631C1411.89 37.6427 1412.04 54.1226 1412.13 70.5655C1411.95 119.017 1410.82 167.272 1408.11 215.359C1408.08 229.189 1408.08 243.108 1408.08 257.113V681.961C1408.12 698.365 1408.16 714.527 1408.31 730.852C1399.16 847.516 1443.65 956.721 1492.19 1061.88C1512.41 1114.46 1520.5 1171.09 1498.01 1224.63" stroke="white" stroke-width="1.25289" stroke-miterlimit="10"/>
<path d="M1334.69 -345.303C1334.45 -228.353 1346.58 -115.104 1343.88 3.36444C1344.2 25.818 1344.4 47.7913 1344.4 69.7798C1344.1 135.177 1342.01 200.712 1336.84 266.435C1336.79 281.323 1336.79 296.274 1336.79 311.291V633.105C1310.18 815.159 1403.21 968.855 1455.79 1134.68C1467.92 1171.09 1451.74 1207.49 1431.4 1237.27" stroke="white" stroke-width="1.25289" stroke-miterlimit="10"/>
<path d="M1265.02 -327.102C1273.78 -216.22 1289.96 -111.06 1285.97 -2.33103C1286 16.8773 1285.78 36.0154 1285.36 55.1397C1282.83 169.886 1273.68 285.001 1265.49 401.983V633.132C1257.6 790.891 1298.05 944.587 1370.85 1086.15C1399.16 1134.68 1378.94 1195.35 1343.26 1236.95" stroke="white" stroke-width="1.25289" stroke-miterlimit="10"/>
<path d="M1194.21 -317.669C1188.84 -228.354 1213.11 -143.416 1238.01 -57.5927C1242.21 -41.9668 1246.14 -26.1224 1249.51 -9.94386C1257.6 22.4131 1257.6 54.7701 1249.51 87.1271C1213.11 224.644 1180.75 354.072 1194.09 492.899C1194.14 508.116 1194.17 523.267 1194.19 538.369V633.128C1180.75 798.981 1237.38 944.587 1269.73 1110.42C1277.82 1150.86 1257.6 1187.26 1237.68 1221.24" stroke="white" stroke-width="1.25289" stroke-miterlimit="10"/>
<path d="M1122.9 -317.478V-289.486C1124.13 -268.8 1124.13 -248.577 1124.13 -228.354C1140.31 -119.149 1241.42 -26.1228 1200.97 83.0821C1140.31 244.867 1099.86 410.697 1122.9 583.322V633.097C1116.04 774.713 1140.31 912.23 1156.48 1053.79C1160.53 1102.33 1148.39 1150.86 1136.95 1197.57" stroke="white" stroke-width="1.25289" stroke-miterlimit="10"/>
<path d="M1051.6 -317.478V-292.402C1051.6 -276.135 1051.61 -252.415 1053.9 -223.442C1051.32 -204.086 1059.41 -183.863 1067.5 -163.64C1099.86 -90.8367 1176.71 -30.1674 1152.44 50.7251C1087.72 232.733 1014.92 406.652 1051.6 598.872V681.961C1051.62 698.262 1051.64 714.352 1051.69 730.35C1051.51 805.112 1056.47 880.916 1059.16 956.552C1059.83 975.461 1060.36 994.36 1060.63 1013.23C1059.41 1069.97 1063.46 1126.6 1052.68 1183" stroke="white" stroke-width="1.25289" stroke-miterlimit="10"/>
<path d="M980.3 -317.478V-292.402C980.3 -276.135 980.3 -252.41 980.371 -222.604C982.565 -147.461 1035.14 -94.8814 1071.55 -30.1674C1087.72 2.1896 1091.77 38.5912 1075.59 70.9482C994.698 240.822 954.252 414.741 980.3 598.847V729.805C979.329 750.771 978.857 771.614 978.716 792.38C978.574 813.146 978.764 833.834 979.115 854.492C982.565 968.855 982.565 1086.15 977.149 1200.75" stroke="white" stroke-width="1.25289" stroke-miterlimit="10"/>
<path d="M909.003 -317.478V-241.547C909.003 -225.517 909.003 -207.238 909.224 -187.089C905.717 -167.685 913.806 -147.461 917.851 -127.238C938.074 -66.569 998.743 -13.9889 978.52 54.7697C938.074 216.555 873.36 366.206 907.942 531.122C908.5 548.961 908.747 566.128 909.003 583.322V767.179C909.761 924.364 934.029 1082.1 899.062 1237.28" stroke="white" stroke-width="1.25289" stroke-miterlimit="10"/>
<path d="M837.706 -317.478V-186.99C837.706 -166.741 837.914 -144.646 839.698 -121.926C845.047 -54.4351 885.494 6.23426 869.315 74.9929C857.181 151.841 846.059 227.677 839.534 303.548C836.272 341.483 834.159 379.427 833.645 417.51C828.869 475.411 841.003 527.991 837.705 583.322C837.706 615.047 837.706 646.393 837.706 677.116C837.706 692.477 837.707 707.685 837.743 722.747C845.047 904.141 881.449 1094.24 821.709 1273.21" stroke="white" stroke-width="1.25289" stroke-miterlimit="10"/>
<path d="M766.409 -317.478V-120.62C766.409 -108.668 766.428 -96.3102 766.696 -83.7919C768.2 -46.3458 772.245 -5.89961 772.245 30.502C773.761 92.6881 771.865 155.443 769.448 218.388C768.643 239.37 767.779 260.373 766.965 281.383C755.757 402.636 759.781 523.953 763.443 645.521C764.054 665.782 764.673 686.072 765.267 706.434C780.334 900.096 816.735 1102.33 747.693 1293.28" stroke="white" stroke-width="1.25289" stroke-miterlimit="10"/>
<path d="M695.111 -317.478V-44.1271C695.111 -30.6283 695.111 -16.778 695.16 -2.67937C695.278 70.536 695.337 142.534 695.331 214.457C695.329 232.438 695.282 250.414 695.11 268.403C675.492 399.152 677.534 527.561 684.588 656.05C685.646 674.462 686.805 692.876 688.146 711.455C719.664 904.141 743.932 1098.28 678.29 1286.79" stroke="white" stroke-width="1.25289" stroke-miterlimit="10"/>
<path d="M623.813 -317.478V180.326C623.635 196.461 623.498 212.772 623.264 229.224C626.637 333.849 565.968 430.92 565.968 536.08C565.968 584.615 583.158 631.129 598.929 677.927C604.232 693.579 609.377 709.262 613.785 725.197C646.86 900.096 667.084 1078.06 613.092 1252.93" stroke="white" stroke-width="1.25289" stroke-miterlimit="10"/>
<path d="M552.516 -317.478V180.326C552.063 196.469 551.691 212.789 551.03 229.257C557.879 341.938 456.764 422.83 440.585 532.035C440.585 548.214 436.54 568.437 444.63 584.615C464.853 625.062 493.165 661.463 515.611 699.164C523.094 711.731 529.924 724.442 535.585 737.496C578.102 887.962 578.102 1053.79 548.934 1207.43" stroke="white" stroke-width="1.25289" stroke-miterlimit="10"/>
<path d="M481.219 -317.478V180.326C480.82 196.469 480.48 212.789 479.662 229.288C472.942 350.027 363.737 426.875 339.47 548.214C339.47 564.392 335.425 584.615 343.514 600.794C377.219 668.204 447.439 710.336 471.577 777.699C476.429 791.199 479.436 805.708 479.992 821.693C485.076 940.542 489.121 1061.88 480.764 1180.83" stroke="white" stroke-width="1.25289" stroke-miterlimit="10"/>
<path d="M409.922 -317.478V180.326C409.84 196.461 409.764 212.772 409.611 229.225C408.228 252.956 404.184 273.179 396.094 297.447C359.693 406.652 242.399 499.678 286.889 621.017C311.157 689.776 388.005 730.222 408.228 807.07C412.273 827.293 408.228 843.471 409.891 864.898C409.922 879.065 409.922 892.916 409.93 906.423C408.228 956.721 408.228 1001.21 409.959 1049.32C409.938 1069.54 409.93 1087.81 409.922 1103.83V1179.77" stroke="white" stroke-width="1.25289" stroke-miterlimit="10"/>
<path d="M339.545 -331.382C339.47 -228.353 339.47 -131.282 338.507 -28.9747C338.547 -19.4551 338.576 -9.79164 338.625 0.049299V197.789C338.606 211.76 338.586 225.851 338.531 240.043C331.38 329.805 278.8 406.653 246.443 487.545C226.22 540.125 218.131 596.75 246.443 645.285C290.934 726.178 355.648 803.026 338.625 905.148C338.625 928.387 338.603 950.612 338.449 971.78C343.514 1041.66 335.425 1114.46 337.439 1181.26" stroke="white" stroke-width="1.25289" stroke-miterlimit="10"/>
<path d="M269.457 -377.136C266.666 -240.487 266.666 -107.015 267.117 29.4599C267.169 39.5932 267.209 49.8432 267.327 60.3403V235.787C266.666 252.957 266.666 265.091 266.666 281.269C250.488 390.474 181.729 483.501 189.818 596.75C199.93 677.642 252.173 744.491 264.914 820.849C267.46 836.122 268.427 851.776 267.158 868.001C270.711 976.945 254.532 1082.1 254.871 1192.08" stroke="white" stroke-width="1.25289" stroke-miterlimit="10"/>
<path d="M198.536 -403.909C197.908 -256.666 189.818 -115.104 195.623 29.1585C195.725 39.367 195.801 49.6735 196.03 60.34V235.786C196.03 251.019 196.012 266.375 195.605 281.973C143.075 459.707 150.926 631.459 183.974 808.694C187.584 828.448 191.442 848.352 195.344 868.606C197.908 964.81 169.595 1053.79 153.417 1146.82C149.372 1167.04 153.417 1191.31 152.664 1211.63" stroke="white" stroke-width="1.25289" stroke-miterlimit="10"/>
<path d="M127.387 -381.247C125.104 -244.532 121.06 -107.015 124.522 29.4593C124.574 39.5926 124.614 49.8426 124.733 60.3397V235.786C124.733 251.019 124.733 266.367 124.73 281.804C105.615 436.689 101.792 594.506 113.246 750.849C114.678 770.392 116.331 789.928 118.176 809.481C145.327 940.542 72.5242 1057.84 32.0779 1179.18C28.0333 1195.35 32.0779 1211.53 33.1349 1228.95" stroke="white" stroke-width="1.25289" stroke-miterlimit="10"/>
<path d="M54.9768 -333.412C56.3459 -232.398 48.2566 -131.282 53.3178 -29.1008C53.3577 -19.5179 53.3871 -9.82287 53.4355 0.049697V326.178C45.365 474.453 47.4528 619.95 51.5461 768.637C52.111 789.897 52.7168 811.223 53.2271 832.77C68.4798 968.856 -32.6358 1065.93 -69.0374 1191.31C-73.082 1203.44 -69.0374 1219.62 -67.8155 1233.67" stroke="white" stroke-width="1.25289" stroke-miterlimit="10"/>
</g>
<g filter="url(#filter1_f_1_2373)">
<ellipse cx="1278.7" cy="607.567" rx="301.375" ry="179.111" transform="rotate(-8.13862 1278.7 607.567)" fill="#111111"/>
</g>
<g filter="url(#filter2_f_1_2373)">
<ellipse cx="277.742" cy="123.529" rx="315.171" ry="148.426" transform="rotate(-15.8658 277.742 123.529)" fill="#111111"/>
</g>
<g filter="url(#filter3_f_1_2373)">
<path d="M784.59 131.657C922.82 130.027 1050.65 160.307 1144.22 206.547C1245.57 256.287 1249.62 323.607 1250.57 385.397C1274.81 426.817 1176.08 460.357 1060.24 494.907C960.53 544.887 845.27 595.567 730.02 610.207C618.39 586.337 514.43 527.397 424.48 471.027C310.27 425.797 211.38 382.797 183 342.487C213.74 302.997 315.92 267.167 436.69 233.777C537.45 190.627 656.76 148.677 784.58 131.657" fill="#FF2975" fill-opacity="0.7"/>
</g>
</g>
<defs>
<filter id="filter0_d_1_2373" x="-144.141" y="-411.429" width="1707.29" height="1713.8" filterUnits="userSpaceOnUse" color-interpolation-filters="sRGB">
<feFlood flood-opacity="0" result="BackgroundImageFix"/>
<feColorMatrix in="SourceAlpha" type="matrix" values="0 0 0 0 0 0 0 0 0 0 0 0 0 0 0 0 0 0 127 0" result="hardAlpha"/>
<feOffset/>
<feGaussianBlur stdDeviation="3.75867"/>
<feColorMatrix type="matrix" values="0 0 0 0 1 0 0 0 0 1 0 0 0 0 1 0 0 0 0.75 0"/>
<feBlend mode="normal" in2="BackgroundImageFix" result="effect1_dropShadow_1_2373"/>
<feBlend mode="normal" in="SourceGraphic" in2="effect1_dropShadow_1_2373" result="shape"/>
</filter>
<filter id="filter1_f_1_2373" x="879.264" y="325.157" width="798.865" height="564.82" filterUnits="userSpaceOnUse" color-interpolation-filters="sRGB">
<feFlood flood-opacity="0" result="BackgroundImageFix"/>
<feBlend mode="normal" in="SourceGraphic" in2="BackgroundImageFix" result="shape"/>
<feGaussianBlur stdDeviation="50" result="effect1_foregroundBlur_1_2373"/>
</filter>
<filter id="filter2_f_1_2373" x="-128.162" y="-143.253" width="811.807" height="533.563" filterUnits="userSpaceOnUse" color-interpolation-filters="sRGB">
<feFlood flood-opacity="0" result="BackgroundImageFix"/>
<feBlend mode="normal" in="SourceGraphic" in2="BackgroundImageFix" result="shape"/>
<feGaussianBlur stdDeviation="50" result="effect1_foregroundBlur_1_2373"/>
</filter>
<filter id="filter3_f_1_2373" x="53" y="1.59424" width="1331.26" height="738.613" filterUnits="userSpaceOnUse" color-interpolation-filters="sRGB">
<feFlood flood-opacity="0" result="BackgroundImageFix"/>
<feBlend mode="normal" in="SourceGraphic" in2="BackgroundImageFix" result="shape"/>
<feGaussianBlur stdDeviation="65" result="effect1_foregroundBlur_1_2373"/>
</filter>
<clipPath id="clip0_1_2373">
<rect width="1625" height="1625" fill="white" transform="translate(-92 -295.406)"/>
</clipPath>
</defs>
</svg>
