
<svg width="1440" height="380" viewBox="0 0 1440 380" fill="none" xmlns="http://www.w3.org/2000/svg">
<g clip-path="url(#clip0_8_2766)">
<g filter="url(#filter0_f_8_2766)">
<path d="M733.898 54.0379C817.513 53.052 894.836 71.3682 951.436 99.3385C1012.74 129.426 1015.19 170.147 1015.77 207.524C1030.43 232.578 970.708 252.867 900.637 273.766C840.323 303.998 770.603 334.654 700.889 343.51C633.365 329.071 570.48 293.419 516.07 259.321C446.985 231.961 387.167 205.951 370 181.568C388.594 157.68 450.403 136.007 523.456 115.81C584.405 89.7085 656.575 64.3332 733.892 54.0379" fill="#FF2975" fill-opacity="0.7"/>
</g>
<g opacity="0.3" filter="url(#filter1_d_8_2766)">
<path d="M-6.86188 445.512H639.956C771.11 448.107 880.315 367.214 1005.7 334.857C1058.28 322.724 1114.9 306.545 1151.3 338.902C1240.29 423.839 1337.36 464.285 1455.51 445.508C1478.01 445.512 1490.38 445.512 1490.38 445.512" stroke="white" stroke-width="1.25289" stroke-miterlimit="10"/>
<path d="M-6.86188 374.215H639.956C665.95 379.349 686.173 375.304 710.441 371.259C868.181 342.947 1025.92 221.608 1171.53 298.456C1272.64 346.992 1377.8 383.393 1490.38 374.215" stroke="white" stroke-width="1.25289" stroke-miterlimit="10"/>
<path d="M-6.86188 302.918H131.311C159.823 302.918 191.986 302.912 227.08 302.915C262.174 302.918 300.19 302.918 340.399 302.918H663.904C799.423 306.546 924.806 241.832 1058.28 233.743C1098.72 233.743 1139.17 229.698 1175.57 245.876C1226.13 266.1 1277.7 282.278 1330.2 292.44C1347.67 295.788 1365.26 298.471 1382.93 300.378C1418.25 306.546 1454.65 302.501 1490.14 302.138" stroke="white" stroke-width="1.25289" stroke-miterlimit="10"/>
<path d="M-6.86188 231.621H9.95286C20.919 231.621 37.0027 231.621 57.4002 231.458C152.283 225.653 245.309 225.653 340.104 231.077C350.23 231.236 360.475 231.343 370.956 231.621H685.879C701.558 231.621 717.271 231.62 733.12 231.471C872.226 229.698 1005.7 177.118 1147.26 197.341C1166.81 200.038 1186.13 202.846 1205.31 205.645C1224.45 208.392 1243.44 211.129 1262.35 213.632C1337.36 225.653 1414.21 225.653 1489.42 222.373" stroke="white" stroke-width="1.25289" stroke-miterlimit="10"/>
<path d="M-6.86188 160.324C-6.86188 160.324 -1.01327 160.324 9.95286 160.321C87.569 164.984 148.238 108.359 225.086 120.493C285.756 136.672 338.336 164.984 402.08 160.037C412.712 160.156 423.428 160.227 434.262 160.324H740.663C755.65 160.324 770.638 160.324 785.726 160.228C899.757 148.45 1012.39 145.594 1124.87 147.117C1147.37 147.421 1169.86 147.901 1192.36 148.519C1288.82 152.85 1389.94 136.672 1487.62 130.367" stroke="white" stroke-width="1.25289" stroke-miterlimit="10"/>
<path d="M-6.86188 89.0262C-6.86188 89.0262 -1.01327 89.0086 9.91392 88.1586C75.4351 80.0465 119.926 31.5111 176.551 -4.89054C196.774 -17.0244 221.042 -12.9798 241.265 -0.845912C289.8 39.6003 338.336 88.1358 401.999 88.6154C412.657 88.774 423.393 88.8767 434.262 89.0262H830.4C845.31 89.0163 860.171 89.0068 875.015 88.9719C960.58 86.5315 1045.83 85.3113 1131.15 85.2946C1152.49 85.2904 1173.81 85.3432 1195.1 85.1968C1296.91 88.1358 1389.94 47.6896 1485.64 37.2867" stroke="white" stroke-width="1.25289" stroke-miterlimit="10"/>
<path d="M-6.86188 17.7292C-6.86188 17.7292 -1.01326 17.7168 10.0303 16.6494C79.4797 7.24368 119.926 -57.4703 180.595 -89.8273C192.729 -97.9165 204.863 -93.8719 216.997 -93.8719C293.845 -73.6488 322.157 15.3329 402.167 17.576C412.769 17.6485 423.463 17.6868 434.262 17.7292H1005.3C1019.45 17.724 1033.45 17.72 1047.31 17.7054C1079.28 18.2628 1110.93 18.6344 1142.55 18.8205C1158.36 18.9135 1174.17 18.9571 1189.99 18.7798C1292.87 15.3329 1381.85 -33.2026 1484.8 -43.3729" stroke="white" stroke-width="1.25289" stroke-miterlimit="10"/>
<path d="M-6.86189 -53.5687V644.046C-6.8621 661.025 -6.86231 678.039 -6.87237 695.076C-9.50202 808.078 -5.45741 925.373 -6.86722 1040.3C-6.8619 1055.58 -6.86189 1070.63 -6.86189 1085.39C6.67647 1208.5 -62.0821 1309.61 -114.662 1414.77C-122.751 1439.04 -122.751 1463.31 -125 1488.8" stroke="white" stroke-width="1.25289" stroke-miterlimit="10"/>
<path d="M1415.21 -98.9171C1410.16 31.5113 1422.29 156.895 1422.69 284.541C1422.89 301.552 1423.04 318.032 1423.13 334.475C1422.95 382.926 1421.82 431.182 1419.11 479.269C1419.08 493.099 1419.08 507.018 1419.08 521.023V945.871C1419.12 962.274 1419.16 978.437 1419.31 994.762C1410.16 1111.43 1454.65 1220.63 1503.19 1325.79C1523.41 1378.37 1531.5 1435 1509.01 1488.54" stroke="white" stroke-width="1.25289" stroke-miterlimit="10"/>
<path d="M1345.69 -81.394C1345.45 35.5561 1357.58 148.806 1354.88 267.274C1355.2 289.727 1355.4 311.701 1355.4 333.689C1355.1 399.086 1353.01 464.621 1347.84 530.345C1347.79 545.232 1347.79 560.183 1347.79 575.2V897.014C1321.18 1079.07 1414.21 1232.76 1466.79 1398.59C1478.92 1435 1462.74 1471.4 1442.4 1501.18" stroke="white" stroke-width="1.25289" stroke-miterlimit="10"/>
<path d="M1276.02 -63.1925C1284.78 47.6895 1300.96 152.85 1296.97 261.578C1297 280.787 1296.78 299.925 1296.36 319.049C1293.83 433.795 1284.68 548.911 1276.49 665.893V897.042C1268.6 1054.8 1309.05 1208.5 1381.85 1350.06C1410.16 1398.59 1389.94 1459.26 1354.26 1500.86" stroke="white" stroke-width="1.25289" stroke-miterlimit="10"/>
<path d="M1205.21 -53.76C1199.84 35.5559 1224.11 120.493 1249.01 206.317C1253.21 221.943 1257.14 237.787 1260.51 253.966C1268.6 286.323 1268.6 318.68 1260.51 351.037C1224.11 488.554 1191.75 617.982 1205.09 756.809C1205.14 772.025 1205.17 787.177 1205.19 802.278V897.038C1191.75 1062.89 1248.38 1208.5 1280.73 1374.33C1288.82 1414.77 1268.6 1451.17 1248.68 1485.15" stroke="white" stroke-width="1.25289" stroke-miterlimit="10"/>
<path d="M1133.9 -53.5687V-25.5769C1135.13 -4.89085 1135.13 15.3323 1135.13 35.5554C1151.31 144.76 1252.42 237.787 1211.97 346.991C1151.31 508.776 1110.86 674.606 1133.9 847.231V897.006C1127.04 1038.62 1151.31 1176.14 1167.48 1317.7C1171.53 1366.24 1159.39 1414.77 1147.95 1461.48" stroke="white" stroke-width="1.25289" stroke-miterlimit="10"/>
<path d="M1062.6 -53.5687V-28.4926C1062.6 -12.2257 1062.61 11.4944 1064.9 40.4672C1062.32 59.8231 1070.41 80.0462 1078.5 100.269C1110.86 173.073 1187.71 233.742 1163.44 314.634C1098.72 496.642 1025.92 670.561 1062.6 862.781V945.871C1062.62 962.172 1062.64 978.262 1062.69 994.26C1062.51 1069.02 1067.47 1144.83 1070.16 1220.46C1070.83 1239.37 1071.36 1258.27 1071.63 1277.14C1070.41 1333.88 1074.46 1390.5 1063.68 1446.91" stroke="white" stroke-width="1.25289" stroke-miterlimit="10"/>
<path d="M991.3 -53.5687V-28.4926C991.3 -12.2257 991.3 11.4989 991.371 41.3057C993.565 116.448 1046.14 169.028 1082.55 233.742C1098.72 266.099 1102.77 302.501 1086.59 334.857C1005.7 504.732 965.252 678.651 991.3 862.756V993.714C990.329 1014.68 989.857 1035.52 989.716 1056.29C989.574 1077.05 989.764 1097.74 990.115 1118.4C993.565 1232.76 993.565 1350.06 988.149 1464.66" stroke="white" stroke-width="1.25289" stroke-miterlimit="10"/>
<path d="M920.003 -53.5687V22.3621C920.003 38.3919 920.003 56.6716 920.224 76.8205C916.717 96.2247 924.806 116.448 928.851 136.671C949.074 197.34 1009.74 249.92 989.52 318.679C949.074 480.464 884.36 630.115 918.942 795.032C919.5 812.87 919.747 830.037 920.003 847.231V1031.09C920.761 1188.27 945.029 1346.01 910.062 1501.19" stroke="white" stroke-width="1.25289" stroke-miterlimit="10"/>
<path d="M848.706 -53.5687V76.9198C848.706 97.168 848.914 119.263 850.698 141.983C856.047 209.474 896.494 270.144 880.315 338.902C868.181 415.75 857.059 491.587 850.534 567.457C847.272 605.393 845.159 643.337 844.645 681.42C839.869 739.32 852.003 791.9 848.705 847.231C848.706 878.957 848.706 910.302 848.706 941.025C848.706 956.387 848.707 971.594 848.743 986.657C856.047 1168.05 892.449 1358.15 832.709 1537.12" stroke="white" stroke-width="1.25289" stroke-miterlimit="10"/>
<path d="M777.409 -53.5687V143.289C777.409 155.241 777.428 167.599 777.696 180.117C779.2 217.563 783.245 258.01 783.245 294.411C784.761 356.597 782.865 419.352 780.448 482.297C779.643 503.279 778.779 524.282 777.965 545.292C766.757 666.545 770.781 787.863 774.443 909.43C775.054 929.691 775.673 949.981 776.267 970.343C791.334 1164.01 827.735 1366.24 758.693 1557.19" stroke="white" stroke-width="1.25289" stroke-miterlimit="10"/>
<path d="M706.111 -53.5687V219.782C706.111 233.281 706.111 247.131 706.16 261.23C706.278 334.445 706.337 406.444 706.331 478.366C706.33 496.347 706.282 514.323 706.11 532.312C686.492 663.061 688.534 791.47 695.589 919.959C696.646 938.371 697.805 956.785 699.146 975.364C730.664 1168.05 754.932 1362.19 689.29 1550.7" stroke="white" stroke-width="1.25289" stroke-miterlimit="10"/>
<path d="M634.813 -53.5687V444.235C634.635 460.37 634.498 476.682 634.264 493.133C637.637 597.758 576.968 694.829 576.968 799.989C576.968 848.525 594.158 895.038 609.929 941.836C615.232 957.488 620.377 973.172 624.785 989.107C657.861 1164.01 678.084 1341.97 624.092 1516.84" stroke="white" stroke-width="1.25289" stroke-miterlimit="10"/>
<path d="M563.516 -53.5687V444.235C563.063 460.379 562.691 476.698 562.03 493.166C568.879 605.847 467.764 686.74 451.585 795.945C451.585 812.123 447.54 832.346 455.63 848.525C475.853 888.971 504.165 925.373 526.611 963.073C534.094 975.64 540.924 988.351 546.585 1001.41C589.102 1151.87 589.102 1317.7 559.934 1471.34" stroke="white" stroke-width="1.25289" stroke-miterlimit="10"/>
<path d="M492.219 -53.5687V444.235C491.82 460.379 491.48 476.698 490.662 493.198C483.942 613.937 374.737 690.784 350.47 812.123C350.47 828.302 346.425 848.525 354.514 864.703C388.219 932.114 458.439 974.245 482.577 1041.61C487.429 1055.11 490.436 1069.62 490.992 1085.6C496.076 1204.45 500.121 1325.79 491.764 1444.74" stroke="white" stroke-width="1.25289" stroke-miterlimit="10"/>
<path d="M420.922 -53.5687V444.235C420.84 460.37 420.764 476.681 420.611 493.134C419.228 516.866 415.184 537.089 407.094 561.356C370.693 670.561 253.399 763.588 297.889 884.926C322.157 953.685 399.005 994.131 419.228 1070.98C423.273 1091.2 419.228 1107.38 420.891 1128.81C420.922 1142.97 420.922 1156.82 420.93 1170.33C419.228 1220.63 419.228 1265.12 420.959 1313.23C420.938 1333.45 420.93 1351.72 420.922 1367.74V1443.67" stroke="white" stroke-width="1.25289" stroke-miterlimit="10"/>
<path d="M350.545 -67.4723C350.47 35.556 350.47 132.627 349.507 234.935C349.547 244.454 349.576 254.118 349.625 263.959V461.698C349.606 475.669 349.586 489.76 349.531 503.952C342.38 593.714 289.8 670.562 257.443 751.454C237.22 804.034 229.131 860.659 257.443 909.195C301.934 990.087 366.648 1066.93 349.625 1169.06C349.625 1192.3 349.603 1214.52 349.449 1235.69C354.514 1305.57 346.425 1378.37 348.439 1445.17" stroke="white" stroke-width="1.25289" stroke-miterlimit="10"/>
<path d="M280.457 -113.227C277.666 23.4225 277.666 156.895 278.117 293.369C278.169 303.503 278.209 313.753 278.327 324.25V499.696C277.666 516.866 277.666 529 277.666 545.179C261.488 654.384 192.729 747.41 200.818 860.66C210.93 941.552 263.173 1008.4 275.914 1084.76C278.46 1100.03 279.427 1115.69 278.158 1131.91C281.711 1240.85 265.532 1346.01 265.871 1455.99" stroke="white" stroke-width="1.25289" stroke-miterlimit="10"/>
<path d="M209.536 -140C208.908 7.24355 200.818 148.805 206.623 293.068C206.725 303.276 206.801 313.583 207.03 324.249V499.696C207.03 514.928 207.012 530.284 206.605 545.883C154.075 723.617 161.926 895.369 194.974 1072.6C198.584 1092.36 202.442 1112.26 206.344 1132.52C208.908 1228.72 180.595 1317.7 164.417 1410.73C160.372 1430.95 164.417 1455.22 163.664 1475.54" stroke="white" stroke-width="1.25289" stroke-miterlimit="10"/>
<path d="M138.387 -117.338C136.104 19.377 132.06 156.894 135.522 293.369C135.574 303.502 135.614 313.752 135.733 324.249V499.696C135.733 514.928 135.733 530.277 135.73 545.713C116.615 700.599 112.792 858.415 124.246 1014.76C125.678 1034.3 127.331 1053.84 129.176 1073.39C156.327 1204.45 83.5242 1321.75 43.0779 1443.08C39.0333 1459.26 43.0779 1475.44 44.1349 1492.86" stroke="white" stroke-width="1.25289" stroke-miterlimit="10"/>
<path d="M65.9768 -69.5023C67.3459 31.5117 59.2566 132.627 64.3177 234.808C64.3577 244.391 64.3871 254.086 64.4354 263.959V590.087C56.3649 738.362 58.4528 883.859 62.5461 1032.55C63.111 1053.81 63.7168 1075.13 64.2271 1096.68C79.4797 1232.76 -21.6358 1329.84 -58.0375 1455.22C-62.0821 1467.35 -58.0375 1483.53 -56.8155 1497.58" stroke="white" stroke-width="1.25289" stroke-miterlimit="10"/>
</g>
<path d="M518.18 156.176V150.091H546.851V156.176H536.163V185H528.868V156.176H518.18ZM557.257 169.864V185H549.996V150.091H557.053V163.438H557.36C557.951 161.892 558.905 160.682 560.223 159.807C561.542 158.92 563.195 158.477 565.184 158.477C567.002 158.477 568.587 158.875 569.939 159.67C571.303 160.455 572.36 161.585 573.11 163.062C573.871 164.528 574.246 166.284 574.235 168.33V185H566.973V169.625C566.985 168.011 566.576 166.756 565.746 165.858C564.928 164.96 563.78 164.511 562.303 164.511C561.314 164.511 560.439 164.722 559.678 165.142C558.928 165.562 558.337 166.176 557.905 166.983C557.485 167.778 557.269 168.739 557.257 169.864ZM590.441 185.511C587.748 185.511 585.43 184.966 583.487 183.875C581.555 182.773 580.066 181.216 579.021 179.205C577.975 177.182 577.452 174.79 577.452 172.028C577.452 169.335 577.975 166.972 579.021 164.938C580.066 162.903 581.538 161.318 583.435 160.182C585.344 159.045 587.583 158.477 590.151 158.477C591.879 158.477 593.487 158.756 594.975 159.312C596.475 159.858 597.782 160.682 598.896 161.784C600.021 162.886 600.896 164.273 601.521 165.943C602.146 167.602 602.458 169.545 602.458 171.773V173.767H580.35V169.267H595.623C595.623 168.222 595.396 167.295 594.941 166.489C594.487 165.682 593.856 165.051 593.049 164.597C592.254 164.131 591.327 163.898 590.271 163.898C589.168 163.898 588.191 164.153 587.339 164.665C586.498 165.165 585.839 165.841 585.362 166.693C584.884 167.534 584.64 168.472 584.629 169.506V173.784C584.629 175.08 584.867 176.199 585.344 177.142C585.833 178.085 586.521 178.812 587.407 179.324C588.293 179.835 589.344 180.091 590.56 180.091C591.367 180.091 592.106 179.977 592.776 179.75C593.447 179.523 594.021 179.182 594.498 178.727C594.975 178.273 595.339 177.716 595.589 177.057L602.305 177.5C601.964 179.114 601.265 180.523 600.208 181.727C599.163 182.92 597.81 183.852 596.151 184.523C594.504 185.182 592.6 185.511 590.441 185.511ZM638.71 161.375C638.472 160.545 638.136 159.812 637.705 159.176C637.273 158.528 636.744 157.983 636.119 157.54C635.506 157.085 634.801 156.739 634.006 156.5C633.222 156.261 632.352 156.142 631.398 156.142C629.614 156.142 628.045 156.585 626.693 157.472C625.352 158.358 624.307 159.648 623.557 161.341C622.807 163.023 622.432 165.08 622.432 167.511C622.432 169.943 622.801 172.011 623.54 173.716C624.278 175.42 625.324 176.722 626.676 177.619C628.028 178.506 629.625 178.949 631.466 178.949C633.136 178.949 634.563 178.653 635.744 178.062C636.938 177.46 637.847 176.614 638.472 175.523C639.108 174.432 639.426 173.142 639.426 171.653L640.926 171.875H631.926V166.318H646.534V170.716C646.534 173.784 645.886 176.42 644.591 178.625C643.295 180.818 641.511 182.511 639.239 183.705C636.966 184.886 634.364 185.477 631.432 185.477C628.159 185.477 625.284 184.756 622.807 183.312C620.33 181.858 618.398 179.795 617.011 177.125C615.636 174.443 614.949 171.261 614.949 167.58C614.949 164.75 615.358 162.227 616.176 160.011C617.006 157.784 618.165 155.898 619.653 154.352C621.142 152.807 622.875 151.631 624.852 150.824C626.83 150.017 628.972 149.614 631.278 149.614C633.256 149.614 635.097 149.903 636.801 150.483C638.506 151.051 640.017 151.858 641.335 152.903C642.665 153.949 643.75 155.193 644.591 156.636C645.432 158.068 645.972 159.648 646.21 161.375H638.71ZM650.502 185V158.818H657.542V163.386H657.814C658.292 161.761 659.093 160.534 660.218 159.705C661.343 158.864 662.638 158.443 664.104 158.443C664.468 158.443 664.86 158.466 665.28 158.511C665.701 158.557 666.07 158.619 666.388 158.699V165.142C666.047 165.04 665.576 164.949 664.973 164.869C664.371 164.79 663.82 164.75 663.32 164.75C662.252 164.75 661.297 164.983 660.456 165.449C659.627 165.903 658.968 166.54 658.479 167.358C658.002 168.176 657.763 169.119 657.763 170.188V185H650.502ZM668.702 185V158.818H675.964V185H668.702ZM672.35 155.443C671.271 155.443 670.344 155.085 669.572 154.369C668.81 153.642 668.43 152.773 668.43 151.761C668.43 150.761 668.81 149.903 669.572 149.188C670.344 148.46 671.271 148.097 672.35 148.097C673.43 148.097 674.35 148.46 675.111 149.188C675.884 149.903 676.271 150.761 676.271 151.761C676.271 152.773 675.884 153.642 675.111 154.369C674.35 155.085 673.43 155.443 672.35 155.443ZM689.988 185.426C688 185.426 686.198 184.915 684.585 183.892C682.983 182.858 681.71 181.341 680.767 179.341C679.835 177.33 679.369 174.864 679.369 171.943C679.369 168.943 679.852 166.449 680.818 164.46C681.784 162.46 683.068 160.966 684.67 159.977C686.284 158.977 688.051 158.477 689.971 158.477C691.437 158.477 692.659 158.727 693.636 159.227C694.625 159.716 695.42 160.33 696.022 161.068C696.636 161.795 697.102 162.511 697.42 163.216H697.642V150.091H704.886V185H697.727V180.807H697.42C697.079 181.534 696.596 182.256 695.971 182.972C695.358 183.676 694.556 184.261 693.568 184.727C692.591 185.193 691.397 185.426 689.988 185.426ZM692.289 179.648C693.46 179.648 694.448 179.33 695.255 178.693C696.073 178.045 696.698 177.142 697.13 175.983C697.573 174.824 697.795 173.466 697.795 171.909C697.795 170.352 697.579 169 697.147 167.852C696.716 166.705 696.091 165.818 695.272 165.193C694.454 164.568 693.46 164.256 692.289 164.256C691.096 164.256 690.091 164.58 689.272 165.227C688.454 165.875 687.835 166.773 687.414 167.92C686.994 169.068 686.784 170.398 686.784 171.909C686.784 173.432 686.994 174.778 687.414 175.949C687.846 177.108 688.466 178.017 689.272 178.676C690.091 179.324 691.096 179.648 692.289 179.648ZM719.222 185V150.091H732.995C735.631 150.091 737.881 150.562 739.745 151.506C741.62 152.437 743.046 153.761 744.023 155.477C745.012 157.182 745.506 159.187 745.506 161.494C745.506 163.812 745.006 165.807 744.006 167.477C743.006 169.136 741.557 170.409 739.659 171.295C737.773 172.182 735.489 172.625 732.807 172.625H723.586V166.693H731.614C733.023 166.693 734.193 166.5 735.125 166.114C736.057 165.727 736.75 165.148 737.205 164.375C737.671 163.602 737.904 162.642 737.904 161.494C737.904 160.335 737.671 159.358 737.205 158.562C736.75 157.767 736.051 157.165 735.108 156.756C734.176 156.335 733 156.125 731.58 156.125H726.603V185H719.222ZM738.074 169.114L746.75 185H738.603L730.114 169.114H738.074ZM756.611 185.494C754.941 185.494 753.452 185.205 752.146 184.625C750.839 184.034 749.805 183.165 749.043 182.017C748.293 180.858 747.918 179.415 747.918 177.688C747.918 176.233 748.185 175.011 748.719 174.023C749.253 173.034 749.981 172.239 750.901 171.636C751.822 171.034 752.867 170.58 754.038 170.273C755.219 169.966 756.458 169.75 757.753 169.625C759.276 169.466 760.503 169.318 761.435 169.182C762.367 169.034 763.043 168.818 763.464 168.534C763.884 168.25 764.094 167.83 764.094 167.273V167.17C764.094 166.091 763.753 165.256 763.072 164.665C762.401 164.074 761.447 163.778 760.208 163.778C758.901 163.778 757.861 164.068 757.089 164.648C756.316 165.216 755.805 165.932 755.555 166.795L748.839 166.25C749.18 164.659 749.85 163.284 750.85 162.125C751.85 160.955 753.14 160.057 754.719 159.432C756.31 158.795 758.151 158.477 760.242 158.477C761.697 158.477 763.089 158.648 764.418 158.989C765.759 159.33 766.947 159.858 767.981 160.574C769.026 161.29 769.85 162.21 770.452 163.335C771.055 164.449 771.356 165.784 771.356 167.341V185H764.469V181.369H764.265C763.844 182.188 763.282 182.909 762.577 183.534C761.873 184.148 761.026 184.631 760.038 184.983C759.049 185.324 757.907 185.494 756.611 185.494ZM758.691 180.483C759.759 180.483 760.702 180.273 761.521 179.852C762.339 179.42 762.981 178.841 763.447 178.114C763.913 177.386 764.146 176.562 764.146 175.642V172.864C763.918 173.011 763.606 173.148 763.208 173.273C762.822 173.386 762.384 173.494 761.896 173.597C761.407 173.687 760.918 173.773 760.43 173.852C759.941 173.92 759.498 173.983 759.1 174.04C758.248 174.165 757.503 174.364 756.867 174.636C756.231 174.909 755.736 175.278 755.384 175.744C755.032 176.199 754.856 176.767 754.856 177.449C754.856 178.438 755.214 179.193 755.93 179.716C756.657 180.227 757.577 180.483 758.691 180.483ZM782.811 169.864V185H775.549V158.818H782.47V163.438H782.777C783.356 161.915 784.328 160.71 785.691 159.824C787.055 158.926 788.708 158.477 790.652 158.477C792.47 158.477 794.055 158.875 795.407 159.67C796.76 160.466 797.811 161.602 798.561 163.08C799.311 164.545 799.686 166.295 799.686 168.33V185H792.424V169.625C792.436 168.023 792.027 166.773 791.197 165.875C790.367 164.966 789.225 164.511 787.771 164.511C786.794 164.511 785.93 164.722 785.18 165.142C784.441 165.562 783.862 166.176 783.441 166.983C783.032 167.778 782.822 168.739 782.811 169.864ZM810.548 177.466L810.565 168.756H811.622L820.008 158.818H828.344L817.077 171.977H815.355L810.548 177.466ZM803.969 185V150.091H811.23V185H803.969ZM820.332 185L812.628 173.597L817.469 168.466L828.838 185H820.332ZM830.466 185V158.818H837.728V185H830.466ZM834.114 155.443C833.034 155.443 832.108 155.085 831.335 154.369C830.574 153.642 830.193 152.773 830.193 151.761C830.193 150.761 830.574 149.903 831.335 149.188C832.108 148.46 833.034 148.097 834.114 148.097C835.193 148.097 836.114 148.46 836.875 149.188C837.648 149.903 838.034 150.761 838.034 151.761C838.034 152.773 837.648 153.642 836.875 154.369C836.114 155.085 835.193 155.443 834.114 155.443ZM849.366 169.864V185H842.104V158.818H849.025V163.438H849.332C849.911 161.915 850.883 160.71 852.246 159.824C853.61 158.926 855.263 158.477 857.207 158.477C859.025 158.477 860.61 158.875 861.962 159.67C863.314 160.466 864.366 161.602 865.116 163.08C865.866 164.545 866.241 166.295 866.241 168.33V185H858.979V169.625C858.991 168.023 858.582 166.773 857.752 165.875C856.922 164.966 855.78 164.511 854.326 164.511C853.349 164.511 852.485 164.722 851.735 165.142C850.996 165.562 850.417 166.176 849.996 166.983C849.587 167.778 849.377 168.739 849.366 169.864ZM882.319 195.364C879.967 195.364 877.95 195.04 876.268 194.392C874.598 193.756 873.268 192.886 872.279 191.784C871.291 190.682 870.649 189.443 870.353 188.068L877.069 187.165C877.274 187.688 877.598 188.176 878.041 188.631C878.484 189.085 879.069 189.449 879.796 189.722C880.535 190.006 881.433 190.148 882.49 190.148C884.069 190.148 885.37 189.761 886.393 188.989C887.427 188.227 887.944 186.949 887.944 185.153V180.364H887.637C887.319 181.091 886.842 181.778 886.205 182.426C885.569 183.074 884.751 183.602 883.751 184.011C882.751 184.42 881.558 184.625 880.171 184.625C878.205 184.625 876.416 184.17 874.802 183.261C873.2 182.341 871.921 180.937 870.967 179.051C870.024 177.153 869.552 174.756 869.552 171.858C869.552 168.892 870.035 166.415 871.001 164.426C871.967 162.437 873.251 160.949 874.853 159.96C876.467 158.972 878.234 158.477 880.154 158.477C881.62 158.477 882.848 158.727 883.836 159.227C884.825 159.716 885.62 160.33 886.223 161.068C886.836 161.795 887.308 162.511 887.637 163.216H887.91V158.818H895.12V185.256C895.12 187.483 894.575 189.347 893.484 190.847C892.393 192.347 890.882 193.472 888.95 194.222C887.029 194.983 884.819 195.364 882.319 195.364ZM882.473 179.17C883.643 179.17 884.632 178.881 885.438 178.301C886.257 177.71 886.882 176.869 887.313 175.778C887.757 174.676 887.978 173.358 887.978 171.824C887.978 170.29 887.762 168.96 887.33 167.835C886.899 166.699 886.274 165.818 885.455 165.193C884.637 164.568 883.643 164.256 882.473 164.256C881.279 164.256 880.274 164.58 879.455 165.227C878.637 165.864 878.018 166.75 877.598 167.886C877.177 169.023 876.967 170.335 876.967 171.824C876.967 173.335 877.177 174.642 877.598 175.744C878.029 176.835 878.649 177.682 879.455 178.284C880.274 178.875 881.279 179.17 882.473 179.17ZM921.243 166.284L914.595 166.693C914.481 166.125 914.237 165.614 913.862 165.159C913.487 164.693 912.993 164.324 912.379 164.051C911.777 163.767 911.055 163.625 910.214 163.625C909.089 163.625 908.14 163.864 907.368 164.341C906.595 164.807 906.209 165.432 906.209 166.216C906.209 166.841 906.459 167.369 906.959 167.801C907.459 168.233 908.317 168.58 909.533 168.841L914.271 169.795C916.817 170.318 918.714 171.159 919.964 172.318C921.214 173.477 921.839 175 921.839 176.886C921.839 178.602 921.334 180.108 920.322 181.403C919.322 182.699 917.947 183.71 916.197 184.438C914.459 185.153 912.453 185.511 910.18 185.511C906.714 185.511 903.953 184.79 901.896 183.347C899.851 181.892 898.652 179.915 898.3 177.415L905.442 177.04C905.658 178.097 906.18 178.903 907.01 179.46C907.839 180.006 908.902 180.278 910.197 180.278C911.47 180.278 912.493 180.034 913.265 179.545C914.05 179.045 914.447 178.403 914.459 177.619C914.447 176.96 914.169 176.42 913.623 176C913.078 175.568 912.237 175.239 911.101 175.011L906.567 174.108C904.01 173.597 902.106 172.71 900.856 171.449C899.618 170.187 898.998 168.58 898.998 166.625C898.998 164.943 899.453 163.494 900.362 162.278C901.283 161.062 902.572 160.125 904.231 159.466C905.902 158.807 907.856 158.477 910.095 158.477C913.402 158.477 916.004 159.176 917.902 160.574C919.811 161.972 920.925 163.875 921.243 166.284Z" fill="white"/>
<g opacity="0.9">
<path d="M514.567 208.344V206.455H525.824V208.344H521.285V221H519.098V208.344H514.567ZM526.848 221V210.091H528.901V211.824H529.014C529.213 211.237 529.564 210.775 530.065 210.439C530.572 210.098 531.145 209.928 531.784 209.928C531.917 209.928 532.073 209.932 532.253 209.942C532.438 209.951 532.582 209.963 532.686 209.977V212.009C532.601 211.985 532.449 211.959 532.232 211.93C532.014 211.897 531.796 211.881 531.578 211.881C531.076 211.881 530.629 211.987 530.236 212.2C529.848 212.409 529.54 212.7 529.313 213.074C529.085 213.443 528.972 213.865 528.972 214.338V221H526.848ZM537.441 221.241C536.75 221.241 536.125 221.114 535.566 220.858C535.007 220.598 534.565 220.221 534.238 219.729C533.916 219.236 533.755 218.633 533.755 217.918C533.755 217.302 533.873 216.795 534.11 216.398C534.347 216 534.666 215.685 535.069 215.453C535.471 215.221 535.921 215.046 536.418 214.928C536.915 214.809 537.422 214.719 537.938 214.658C538.592 214.582 539.122 214.52 539.529 214.473C539.936 214.421 540.232 214.338 540.417 214.224C540.601 214.111 540.694 213.926 540.694 213.67V213.621C540.694 213 540.519 212.52 540.168 212.179C539.823 211.838 539.306 211.668 538.62 211.668C537.905 211.668 537.342 211.826 536.93 212.143C536.522 212.456 536.241 212.804 536.084 213.188L534.089 212.733C534.325 212.07 534.671 211.535 535.126 211.128C535.585 210.716 536.113 210.418 536.709 210.233C537.306 210.044 537.933 209.949 538.592 209.949C539.027 209.949 539.489 210.001 539.976 210.105C540.469 210.205 540.928 210.389 541.354 210.659C541.785 210.929 542.138 211.315 542.413 211.817C542.687 212.314 542.824 212.96 542.824 213.756V221H540.751V219.509H540.665C540.528 219.783 540.322 220.053 540.047 220.318C539.773 220.583 539.42 220.804 538.989 220.979C538.558 221.154 538.042 221.241 537.441 221.241ZM537.903 219.537C538.49 219.537 538.992 219.421 539.408 219.189C539.83 218.957 540.149 218.654 540.367 218.28C540.59 217.901 540.701 217.496 540.701 217.065V215.659C540.625 215.735 540.478 215.806 540.261 215.872C540.047 215.934 539.804 215.988 539.529 216.036C539.254 216.078 538.987 216.118 538.726 216.156C538.466 216.189 538.248 216.218 538.073 216.241C537.661 216.294 537.285 216.381 536.944 216.504C536.608 216.627 536.338 216.805 536.134 217.037C535.935 217.264 535.836 217.567 535.836 217.946C535.836 218.472 536.03 218.869 536.418 219.139C536.806 219.404 537.301 219.537 537.903 219.537ZM550.088 221.22C549.032 221.22 548.123 220.981 547.361 220.503C546.603 220.02 546.021 219.355 545.614 218.507C545.207 217.66 545.003 216.689 545.003 215.595C545.003 214.487 545.211 213.509 545.628 212.662C546.045 211.81 546.632 211.144 547.389 210.666C548.147 210.188 549.039 209.949 550.067 209.949C550.895 209.949 551.634 210.103 552.283 210.411C552.931 210.714 553.455 211.14 553.852 211.689C554.255 212.238 554.494 212.88 554.57 213.614H552.503C552.389 213.102 552.129 212.662 551.722 212.293C551.319 211.923 550.779 211.739 550.102 211.739C549.51 211.739 548.992 211.895 548.547 212.207C548.107 212.515 547.763 212.955 547.517 213.528C547.271 214.097 547.148 214.769 547.148 215.545C547.148 216.341 547.269 217.027 547.51 217.605C547.751 218.183 548.092 218.63 548.533 218.947C548.978 219.265 549.501 219.423 550.102 219.423C550.505 219.423 550.869 219.35 551.196 219.203C551.528 219.052 551.805 218.836 552.027 218.557C552.254 218.277 552.413 217.941 552.503 217.548H554.57C554.494 218.254 554.264 218.884 553.881 219.438C553.497 219.991 552.984 220.427 552.34 220.744C551.7 221.062 550.95 221.22 550.088 221.22ZM558.634 217.3L558.62 214.707H558.989L563.335 210.091H565.878L560.921 215.347H560.587L558.634 217.3ZM556.681 221V206.455H558.804V221H556.681ZM563.57 221L559.664 215.815L561.127 214.331L566.176 221H563.57ZM567.653 221V210.091H569.777V221H567.653ZM568.726 208.408C568.357 208.408 568.039 208.285 567.774 208.038C567.514 207.787 567.384 207.489 567.384 207.143C567.384 206.793 567.514 206.495 567.774 206.249C568.039 205.998 568.357 205.872 568.726 205.872C569.095 205.872 569.41 205.998 569.67 206.249C569.936 206.495 570.068 206.793 570.068 207.143C570.068 207.489 569.936 207.787 569.67 208.038C569.41 208.285 569.095 208.408 568.726 208.408ZM574.597 214.523V221H572.474V210.091H574.512V211.866H574.647C574.898 211.289 575.291 210.825 575.826 210.474C576.366 210.124 577.045 209.949 577.865 209.949C578.608 209.949 579.259 210.105 579.818 210.418C580.376 210.725 580.81 211.185 581.117 211.795C581.425 212.406 581.579 213.161 581.579 214.061V221H579.455V214.317C579.455 213.526 579.249 212.908 578.838 212.463C578.426 212.013 577.86 211.788 577.14 211.788C576.648 211.788 576.21 211.895 575.826 212.108C575.447 212.321 575.147 212.634 574.924 213.045C574.706 213.453 574.597 213.945 574.597 214.523ZM588.841 225.318C587.974 225.318 587.229 225.205 586.604 224.977C585.983 224.75 585.477 224.449 585.084 224.075C584.691 223.701 584.397 223.292 584.203 222.847L586.028 222.094C586.156 222.302 586.327 222.522 586.54 222.754C586.758 222.991 587.051 223.192 587.42 223.358C587.794 223.524 588.275 223.607 588.862 223.607C589.667 223.607 590.332 223.41 590.858 223.017C591.384 222.629 591.646 222.009 591.646 221.156V219.011H591.511C591.384 219.243 591.199 219.501 590.957 219.786C590.721 220.07 590.394 220.316 589.977 220.524C589.561 220.732 589.018 220.837 588.351 220.837C587.489 220.837 586.713 220.635 586.021 220.233C585.335 219.826 584.79 219.227 584.388 218.436C583.99 217.641 583.791 216.663 583.791 215.503C583.791 214.343 583.988 213.348 584.381 212.52C584.778 211.691 585.323 211.057 586.014 210.616C586.705 210.171 587.489 209.949 588.365 209.949C589.042 209.949 589.589 210.062 590.006 210.29C590.422 210.512 590.747 210.773 590.979 211.071C591.215 211.369 591.398 211.632 591.526 211.859H591.682V210.091H593.763V221.241C593.763 222.179 593.545 222.948 593.109 223.55C592.674 224.151 592.084 224.596 591.341 224.885C590.602 225.174 589.769 225.318 588.841 225.318ZM588.82 219.075C589.43 219.075 589.946 218.933 590.368 218.649C590.794 218.36 591.116 217.948 591.334 217.413C591.556 216.874 591.668 216.227 591.668 215.474C591.668 214.741 591.559 214.094 591.341 213.536C591.123 212.977 590.803 212.541 590.382 212.229C589.961 211.911 589.44 211.753 588.82 211.753C588.18 211.753 587.648 211.919 587.222 212.25C586.795 212.577 586.473 213.022 586.256 213.585C586.043 214.149 585.936 214.778 585.936 215.474C585.936 216.189 586.045 216.817 586.263 217.357C586.481 217.896 586.803 218.318 587.229 218.621C587.66 218.924 588.19 219.075 588.82 219.075ZM601.584 221V210.091H603.622V211.866H603.757C603.984 211.265 604.356 210.796 604.872 210.46C605.388 210.119 606.006 209.949 606.726 209.949C607.455 209.949 608.066 210.119 608.558 210.46C609.055 210.801 609.422 211.27 609.659 211.866H609.773C610.033 211.284 610.447 210.82 611.016 210.474C611.584 210.124 612.261 209.949 613.047 209.949C614.036 209.949 614.844 210.259 615.469 210.879C616.098 211.5 616.413 212.435 616.413 213.685V221H614.29V213.884C614.29 213.145 614.088 212.61 613.686 212.278C613.284 211.947 612.803 211.781 612.244 211.781C611.553 211.781 611.016 211.994 610.632 212.42C610.249 212.842 610.057 213.384 610.057 214.047V221H607.94V213.749C607.94 213.157 607.756 212.681 607.386 212.321C607.017 211.961 606.536 211.781 605.945 211.781C605.542 211.781 605.17 211.888 604.829 212.101C604.493 212.309 604.221 212.6 604.013 212.974C603.809 213.348 603.707 213.782 603.707 214.274V221H601.584ZM619.1 221V210.091H621.223V221H619.1ZM620.172 208.408C619.803 208.408 619.485 208.285 619.22 208.038C618.96 207.787 618.83 207.489 618.83 207.143C618.83 206.793 618.96 206.495 619.22 206.249C619.485 205.998 619.803 205.872 620.172 205.872C620.541 205.872 620.856 205.998 621.117 206.249C621.382 206.495 621.514 206.793 621.514 207.143C621.514 207.489 621.382 207.787 621.117 208.038C620.856 208.285 620.541 208.408 620.172 208.408ZM626.044 214.523V221H623.92V210.091H625.958V211.866H626.093C626.344 211.289 626.737 210.825 627.272 210.474C627.812 210.124 628.491 209.949 629.311 209.949C630.054 209.949 630.705 210.105 631.264 210.418C631.822 210.725 632.256 211.185 632.563 211.795C632.871 212.406 633.025 213.161 633.025 214.061V221H630.902V214.317C630.902 213.526 630.696 212.908 630.284 212.463C629.872 212.013 629.306 211.788 628.586 211.788C628.094 211.788 627.656 211.895 627.272 212.108C626.893 212.321 626.593 212.634 626.37 213.045C626.152 213.453 626.044 213.945 626.044 214.523ZM635.713 221V210.091H637.837V221H635.713ZM636.786 208.408C636.416 208.408 636.099 208.285 635.834 208.038C635.573 207.787 635.443 207.489 635.443 207.143C635.443 206.793 635.573 206.495 635.834 206.249C636.099 205.998 636.416 205.872 636.786 205.872C637.155 205.872 637.47 205.998 637.73 206.249C637.995 206.495 638.128 206.793 638.128 207.143C638.128 207.489 637.995 207.787 637.73 208.038C637.47 208.285 637.155 208.408 636.786 208.408ZM649.75 221.213C648.87 221.213 648.084 220.988 647.392 220.538C646.706 220.084 646.166 219.437 645.773 218.599C645.385 217.757 645.191 216.746 645.191 215.567C645.191 214.388 645.387 213.379 645.78 212.541C646.178 211.703 646.722 211.062 647.414 210.616C648.105 210.171 648.889 209.949 649.765 209.949C650.442 209.949 650.986 210.062 651.398 210.29C651.815 210.512 652.137 210.773 652.364 211.071C652.596 211.369 652.776 211.632 652.904 211.859H653.032V206.455H655.155V221H653.081V219.303H652.904C652.776 219.535 652.591 219.8 652.35 220.098C652.113 220.396 651.786 220.657 651.37 220.879C650.953 221.102 650.413 221.213 649.75 221.213ZM650.219 219.402C650.83 219.402 651.346 219.241 651.767 218.919C652.194 218.592 652.516 218.14 652.733 217.562C652.956 216.985 653.067 216.312 653.067 215.545C653.067 214.788 652.958 214.125 652.74 213.557C652.523 212.989 652.203 212.546 651.782 212.229C651.36 211.911 650.839 211.753 650.219 211.753C649.58 211.753 649.047 211.919 648.621 212.25C648.195 212.581 647.873 213.034 647.655 213.607C647.442 214.179 647.336 214.826 647.336 215.545C647.336 216.275 647.444 216.93 647.662 217.513C647.88 218.095 648.202 218.557 648.628 218.898C649.059 219.234 649.589 219.402 650.219 219.402ZM659.425 221H657.096L662.33 206.455H664.866L670.1 221H667.77L663.658 209.097H663.545L659.425 221ZM659.816 215.304H667.373V217.151H659.816V215.304ZM671.87 225.091V210.091H673.944V211.859H674.121C674.245 211.632 674.422 211.369 674.654 211.071C674.886 210.773 675.208 210.512 675.62 210.29C676.032 210.062 676.576 209.949 677.254 209.949C678.134 209.949 678.92 210.171 679.611 210.616C680.303 211.062 680.845 211.703 681.238 212.541C681.636 213.379 681.834 214.388 681.834 215.567C681.834 216.746 681.638 217.757 681.245 218.599C680.852 219.437 680.312 220.084 679.626 220.538C678.939 220.988 678.156 221.213 677.275 221.213C676.612 221.213 676.07 221.102 675.648 220.879C675.232 220.657 674.905 220.396 674.668 220.098C674.432 219.8 674.249 219.535 674.121 219.303H673.994V225.091H671.87ZM673.951 215.545C673.951 216.312 674.062 216.985 674.285 217.562C674.507 218.14 674.829 218.592 675.251 218.919C675.672 219.241 676.188 219.402 676.799 219.402C677.433 219.402 677.964 219.234 678.39 218.898C678.816 218.557 679.138 218.095 679.356 217.513C679.578 216.93 679.69 216.275 679.69 215.545C679.69 214.826 679.581 214.179 679.363 213.607C679.15 213.034 678.828 212.581 678.397 212.25C677.971 211.919 677.438 211.753 676.799 211.753C676.183 211.753 675.663 211.911 675.236 212.229C674.815 212.546 674.495 212.989 674.278 213.557C674.06 214.125 673.951 214.788 673.951 215.545ZM684.054 225.091V210.091H686.128V211.859H686.305C686.428 211.632 686.606 211.369 686.838 211.071C687.07 210.773 687.392 210.512 687.804 210.29C688.216 210.062 688.76 209.949 689.437 209.949C690.318 209.949 691.104 210.171 691.795 210.616C692.487 211.062 693.029 211.703 693.422 212.541C693.819 213.379 694.018 214.388 694.018 215.567C694.018 216.746 693.822 217.757 693.429 218.599C693.036 219.437 692.496 220.084 691.809 220.538C691.123 220.988 690.339 221.213 689.459 221.213C688.796 221.213 688.254 221.102 687.832 220.879C687.415 220.657 687.089 220.396 686.852 220.098C686.615 219.8 686.433 219.535 686.305 219.303H686.177V225.091H684.054ZM686.135 215.545C686.135 216.312 686.246 216.985 686.469 217.562C686.691 218.14 687.013 218.592 687.434 218.919C687.856 219.241 688.372 219.402 688.983 219.402C689.617 219.402 690.147 219.234 690.574 218.898C691 218.557 691.322 218.095 691.54 217.513C691.762 216.93 691.873 216.275 691.873 215.545C691.873 214.826 691.764 214.179 691.547 213.607C691.334 213.034 691.012 212.581 690.581 212.25C690.155 211.919 689.622 211.753 688.983 211.753C688.367 211.753 687.846 211.911 687.42 212.229C686.999 212.546 686.679 212.989 686.461 213.557C686.244 214.125 686.135 214.788 686.135 215.545ZM704.412 212.754L702.487 213.095C702.407 212.849 702.279 212.615 702.104 212.392C701.934 212.17 701.702 211.987 701.408 211.845C701.114 211.703 700.747 211.632 700.307 211.632C699.706 211.632 699.204 211.767 698.801 212.037C698.399 212.302 698.198 212.645 698.198 213.067C698.198 213.431 698.333 213.725 698.603 213.947C698.872 214.17 699.308 214.352 699.909 214.494L701.642 214.892C702.646 215.124 703.394 215.482 703.887 215.964C704.379 216.447 704.625 217.075 704.625 217.847C704.625 218.5 704.436 219.082 704.057 219.594C703.683 220.1 703.16 220.498 702.487 220.787C701.82 221.076 701.046 221.22 700.165 221.22C698.943 221.22 697.947 220.96 697.175 220.439C696.403 219.913 695.93 219.168 695.755 218.202L697.807 217.889C697.935 218.424 698.198 218.829 698.595 219.104C698.993 219.374 699.512 219.509 700.151 219.509C700.847 219.509 701.403 219.364 701.82 219.075C702.237 218.782 702.445 218.424 702.445 218.003C702.445 217.662 702.317 217.375 702.061 217.143C701.81 216.911 701.425 216.736 700.904 216.618L699.057 216.213C698.039 215.981 697.286 215.612 696.799 215.105C696.316 214.598 696.074 213.957 696.074 213.18C696.074 212.536 696.254 211.973 696.614 211.49C696.974 211.007 697.471 210.631 698.105 210.361C698.74 210.086 699.467 209.949 700.286 209.949C701.465 209.949 702.393 210.205 703.07 210.716C703.747 211.223 704.194 211.902 704.412 212.754ZM708.199 221.135C707.811 221.135 707.477 220.998 707.198 220.723C706.919 220.444 706.779 220.107 706.779 219.714C706.779 219.326 706.919 218.995 707.198 218.72C707.477 218.441 707.811 218.301 708.199 218.301C708.588 218.301 708.921 218.441 709.201 218.72C709.48 218.995 709.62 219.326 709.62 219.714C709.62 219.975 709.553 220.214 709.421 220.432C709.293 220.645 709.123 220.815 708.91 220.943C708.696 221.071 708.46 221.135 708.199 221.135ZM718.602 221H716.272L721.507 206.455H724.042L729.277 221H726.947L722.835 209.097H722.721L718.602 221ZM718.993 215.304H726.549V217.151H718.993V215.304ZM734.955 221.213C734.074 221.213 733.288 220.988 732.597 220.538C731.91 220.084 731.37 219.437 730.977 218.599C730.589 217.757 730.395 216.746 730.395 215.567C730.395 214.388 730.592 213.379 730.985 212.541C731.382 211.703 731.927 211.062 732.618 210.616C733.309 210.171 734.093 209.949 734.969 209.949C735.646 209.949 736.191 210.062 736.602 210.29C737.019 210.512 737.341 210.773 737.568 211.071C737.8 211.369 737.98 211.632 738.108 211.859H738.236V206.455H740.36V221H738.286V219.303H738.108C737.98 219.535 737.796 219.8 737.554 220.098C737.317 220.396 736.991 220.657 736.574 220.879C736.157 221.102 735.618 221.213 734.955 221.213ZM735.423 219.402C736.034 219.402 736.55 219.241 736.972 218.919C737.398 218.592 737.72 218.14 737.938 217.562C738.16 216.985 738.271 216.312 738.271 215.545C738.271 214.788 738.163 214.125 737.945 213.557C737.727 212.989 737.407 212.546 736.986 212.229C736.565 211.911 736.044 211.753 735.423 211.753C734.784 211.753 734.252 211.919 733.825 212.25C733.399 212.581 733.077 213.034 732.86 213.607C732.646 214.179 732.54 214.826 732.54 215.545C732.54 216.275 732.649 216.93 732.867 217.513C733.084 218.095 733.406 218.557 733.833 218.898C734.263 219.234 734.794 219.402 735.423 219.402ZM747.826 221.22C746.803 221.22 745.91 220.986 745.148 220.517C744.386 220.048 743.794 219.393 743.373 218.55C742.951 217.707 742.74 216.722 742.74 215.595C742.74 214.464 742.951 213.474 743.373 212.626C743.794 211.779 744.386 211.121 745.148 210.652C745.91 210.183 746.803 209.949 747.826 209.949C748.848 209.949 749.741 210.183 750.503 210.652C751.266 211.121 751.857 211.779 752.279 212.626C752.7 213.474 752.911 214.464 752.911 215.595C752.911 216.722 752.7 217.707 752.279 218.55C751.857 219.393 751.266 220.048 750.503 220.517C749.741 220.986 748.848 221.22 747.826 221.22ZM747.833 219.438C748.496 219.438 749.045 219.262 749.48 218.912C749.916 218.562 750.238 218.095 750.446 217.513C750.659 216.93 750.766 216.289 750.766 215.588C750.766 214.892 750.659 214.253 750.446 213.67C750.238 213.083 749.916 212.612 749.48 212.257C749.045 211.902 748.496 211.724 747.833 211.724C747.165 211.724 746.611 211.902 746.171 212.257C745.735 212.612 745.411 213.083 745.198 213.67C744.989 214.253 744.885 214.892 744.885 215.588C744.885 216.289 744.989 216.93 745.198 217.513C745.411 218.095 745.735 218.562 746.171 218.912C746.611 219.262 747.165 219.438 747.833 219.438ZM755.121 225.091V210.091H757.195V211.859H757.373C757.496 211.632 757.673 211.369 757.905 211.071C758.137 210.773 758.459 210.512 758.871 210.29C759.283 210.062 759.828 209.949 760.505 209.949C761.385 209.949 762.171 210.171 762.863 210.616C763.554 211.062 764.096 211.703 764.489 212.541C764.887 213.379 765.086 214.388 765.086 215.567C765.086 216.746 764.889 217.757 764.496 218.599C764.103 219.437 763.563 220.084 762.877 220.538C762.19 220.988 761.407 221.213 760.526 221.213C759.863 221.213 759.321 221.102 758.9 220.879C758.483 220.657 758.156 220.396 757.92 220.098C757.683 219.8 757.501 219.535 757.373 219.303H757.245V225.091H755.121ZM757.202 215.545C757.202 216.312 757.313 216.985 757.536 217.562C757.759 218.14 758.081 218.592 758.502 218.919C758.923 219.241 759.439 219.402 760.05 219.402C760.685 219.402 761.215 219.234 761.641 218.898C762.067 218.557 762.389 218.095 762.607 217.513C762.83 216.93 762.941 216.275 762.941 215.545C762.941 214.826 762.832 214.179 762.614 213.607C762.401 213.034 762.079 212.581 761.648 212.25C761.222 211.919 760.689 211.753 760.05 211.753C759.435 211.753 758.914 211.911 758.488 212.229C758.066 212.546 757.747 212.989 757.529 213.557C757.311 214.125 757.202 214.788 757.202 215.545ZM772.397 210.091V211.795H766.439V210.091H772.397ZM768.037 207.477H770.16V217.797C770.16 218.209 770.222 218.519 770.345 218.727C770.468 218.931 770.626 219.071 770.821 219.146C771.019 219.217 771.235 219.253 771.467 219.253C771.637 219.253 771.787 219.241 771.914 219.217C772.042 219.194 772.142 219.175 772.213 219.161L772.596 220.915C772.473 220.962 772.298 221.009 772.071 221.057C771.843 221.109 771.559 221.137 771.218 221.142C770.66 221.152 770.139 221.052 769.656 220.844C769.173 220.635 768.782 220.313 768.484 219.878C768.186 219.442 768.037 218.895 768.037 218.237V207.477ZM774.586 221V210.091H776.71V221H774.586ZM775.659 208.408C775.29 208.408 774.972 208.285 774.707 208.038C774.447 207.787 774.317 207.489 774.317 207.143C774.317 206.793 774.447 206.495 774.707 206.249C774.972 205.998 775.29 205.872 775.659 205.872C776.028 205.872 776.343 205.998 776.603 206.249C776.869 206.495 777.001 206.793 777.001 207.143C777.001 207.489 776.869 207.787 776.603 208.038C776.343 208.285 776.028 208.408 775.659 208.408ZM784.002 221.22C782.979 221.22 782.087 220.986 781.324 220.517C780.562 220.048 779.97 219.393 779.549 218.55C779.128 217.707 778.917 216.722 778.917 215.595C778.917 214.464 779.128 213.474 779.549 212.626C779.97 211.779 780.562 211.121 781.324 210.652C782.087 210.183 782.979 209.949 784.002 209.949C785.025 209.949 785.917 210.183 786.68 210.652C787.442 211.121 788.034 211.779 788.455 212.626C788.877 213.474 789.087 214.464 789.087 215.595C789.087 216.722 788.877 217.707 788.455 218.55C788.034 219.393 787.442 220.048 786.68 220.517C785.917 220.986 785.025 221.22 784.002 221.22ZM784.009 219.438C784.672 219.438 785.221 219.262 785.657 218.912C786.092 218.562 786.414 218.095 786.623 217.513C786.836 216.93 786.942 216.289 786.942 215.588C786.942 214.892 786.836 214.253 786.623 213.67C786.414 213.083 786.092 212.612 785.657 212.257C785.221 211.902 784.672 211.724 784.009 211.724C783.342 211.724 782.788 211.902 782.347 212.257C781.912 212.612 781.587 213.083 781.374 213.67C781.166 214.253 781.062 214.892 781.062 215.588C781.062 216.289 781.166 216.93 781.374 217.513C781.587 218.095 781.912 218.562 782.347 218.912C782.788 219.262 783.342 219.438 784.009 219.438ZM793.421 214.523V221H791.298V210.091H793.336V211.866H793.471C793.722 211.289 794.115 210.825 794.65 210.474C795.19 210.124 795.869 209.949 796.688 209.949C797.432 209.949 798.083 210.105 798.641 210.418C799.2 210.725 799.633 211.185 799.941 211.795C800.249 212.406 800.403 213.161 800.403 214.061V221H798.279V214.317C798.279 213.526 798.073 212.908 797.661 212.463C797.249 212.013 796.684 211.788 795.964 211.788C795.471 211.788 795.033 211.895 794.65 212.108C794.271 212.321 793.97 212.634 793.748 213.045C793.53 213.453 793.421 213.945 793.421 214.523ZM805.854 219.011L805.747 219.786C805.676 220.354 805.555 220.946 805.385 221.561C805.219 222.181 805.046 222.757 804.866 223.287C804.691 223.817 804.547 224.239 804.433 224.551H802.927C802.989 224.258 803.074 223.86 803.183 223.358C803.292 222.861 803.399 222.304 803.503 221.689C803.607 221.073 803.685 220.446 803.737 219.807L803.808 219.011H805.854ZM816.766 221.241C816.075 221.241 815.45 221.114 814.891 220.858C814.332 220.598 813.889 220.221 813.563 219.729C813.241 219.236 813.08 218.633 813.08 217.918C813.08 217.302 813.198 216.795 813.435 216.398C813.672 216 813.991 215.685 814.394 215.453C814.796 215.221 815.246 215.046 815.743 214.928C816.24 214.809 816.747 214.719 817.263 214.658C817.916 214.582 818.447 214.52 818.854 214.473C819.261 214.421 819.557 214.338 819.742 214.224C819.926 214.111 820.019 213.926 820.019 213.67V213.621C820.019 213 819.843 212.52 819.493 212.179C819.147 211.838 818.631 211.668 817.945 211.668C817.23 211.668 816.666 211.826 816.254 212.143C815.847 212.456 815.566 212.804 815.409 213.188L813.414 212.733C813.65 212.07 813.996 211.535 814.45 211.128C814.91 210.716 815.438 210.418 816.034 210.233C816.631 210.044 817.258 209.949 817.916 209.949C818.352 209.949 818.814 210.001 819.301 210.105C819.794 210.205 820.253 210.389 820.679 210.659C821.11 210.929 821.463 211.315 821.737 211.817C822.012 212.314 822.149 212.96 822.149 213.756V221H820.075V219.509H819.99C819.853 219.783 819.647 220.053 819.372 220.318C819.098 220.583 818.745 220.804 818.314 220.979C817.883 221.154 817.367 221.241 816.766 221.241ZM817.227 219.537C817.815 219.537 818.316 219.421 818.733 219.189C819.155 218.957 819.474 218.654 819.692 218.28C819.914 217.901 820.026 217.496 820.026 217.065V215.659C819.95 215.735 819.803 215.806 819.585 215.872C819.372 215.934 819.129 215.988 818.854 216.036C818.579 216.078 818.312 216.118 818.051 216.156C817.791 216.189 817.573 216.218 817.398 216.241C816.986 216.294 816.61 216.381 816.269 216.504C815.932 216.627 815.663 216.805 815.459 217.037C815.26 217.264 815.161 217.567 815.161 217.946C815.161 218.472 815.355 218.869 815.743 219.139C816.131 219.404 816.626 219.537 817.227 219.537ZM829.413 221.22C828.357 221.22 827.448 220.981 826.686 220.503C825.928 220.02 825.346 219.355 824.939 218.507C824.531 217.66 824.328 216.689 824.328 215.595C824.328 214.487 824.536 213.509 824.953 212.662C825.369 211.81 825.957 211.144 826.714 210.666C827.472 210.188 828.364 209.949 829.392 209.949C830.22 209.949 830.959 210.103 831.608 210.411C832.256 210.714 832.779 211.14 833.177 211.689C833.58 212.238 833.819 212.88 833.895 213.614H831.828C831.714 213.102 831.454 212.662 831.047 212.293C830.644 211.923 830.104 211.739 829.427 211.739C828.835 211.739 828.317 211.895 827.872 212.207C827.431 212.515 827.088 212.955 826.842 213.528C826.596 214.097 826.473 214.769 826.473 215.545C826.473 216.341 826.593 217.027 826.835 217.605C827.076 218.183 827.417 218.63 827.858 218.947C828.303 219.265 828.826 219.423 829.427 219.423C829.83 219.423 830.194 219.35 830.521 219.203C830.852 219.052 831.129 218.836 831.352 218.557C831.579 218.277 831.738 217.941 831.828 217.548H833.895C833.819 218.254 833.589 218.884 833.206 219.438C832.822 219.991 832.308 220.427 831.664 220.744C831.025 221.062 830.275 221.22 829.413 221.22ZM841.098 210.091V211.795H835.139V210.091H841.098ZM836.737 207.477H838.861V217.797C838.861 218.209 838.922 218.519 839.045 218.727C839.168 218.931 839.327 219.071 839.521 219.146C839.72 219.217 839.935 219.253 840.167 219.253C840.338 219.253 840.487 219.241 840.615 219.217C840.743 219.194 840.842 219.175 840.913 219.161L841.297 220.915C841.174 220.962 840.998 221.009 840.771 221.057C840.544 221.109 840.26 221.137 839.919 221.142C839.36 221.152 838.839 221.052 838.356 220.844C837.873 220.635 837.483 220.313 837.184 219.878C836.886 219.442 836.737 218.895 836.737 218.237V207.477ZM843.287 221V210.091H845.41V221H843.287ZM844.359 208.408C843.99 208.408 843.673 208.285 843.408 208.038C843.147 207.787 843.017 207.489 843.017 207.143C843.017 206.793 843.147 206.495 843.408 206.249C843.673 205.998 843.99 205.872 844.359 205.872C844.729 205.872 845.043 205.998 845.304 206.249C845.569 206.495 845.702 206.793 845.702 207.143C845.702 207.489 845.569 207.787 845.304 208.038C845.043 208.285 844.729 208.408 844.359 208.408ZM857.44 210.091L853.484 221H851.211L847.248 210.091H849.528L852.291 218.486H852.404L855.16 210.091H857.44ZM859.275 221V210.091H861.399V221H859.275ZM860.348 208.408C859.979 208.408 859.661 208.285 859.396 208.038C859.136 207.787 859.006 207.489 859.006 207.143C859.006 206.793 859.136 206.495 859.396 206.249C859.661 205.998 859.979 205.872 860.348 205.872C860.717 205.872 861.032 205.998 861.293 206.249C861.558 206.495 861.69 206.793 861.69 207.143C861.69 207.489 861.558 207.787 861.293 208.038C861.032 208.285 860.717 208.408 860.348 208.408ZM869.188 210.091V211.795H863.229V210.091H869.188ZM864.827 207.477H866.951V217.797C866.951 218.209 867.013 218.519 867.136 218.727C867.259 218.931 867.417 219.071 867.612 219.146C867.81 219.217 868.026 219.253 868.258 219.253C868.428 219.253 868.577 219.241 868.705 219.217C868.833 219.194 868.933 219.175 869.004 219.161L869.387 220.915C869.264 220.962 869.089 221.009 868.862 221.057C868.634 221.109 868.35 221.137 868.009 221.142C867.451 221.152 866.93 221.052 866.447 220.844C865.964 220.635 865.573 220.313 865.275 219.878C864.977 219.442 864.827 218.895 864.827 218.237V207.477ZM872.72 225.091C872.402 225.091 872.114 225.065 871.853 225.013C871.593 224.965 871.399 224.913 871.271 224.857L871.782 223.116C872.17 223.221 872.516 223.266 872.819 223.251C873.122 223.237 873.39 223.124 873.622 222.911C873.858 222.697 874.067 222.349 874.247 221.866L874.509 221.142L870.518 210.091H872.791L875.553 218.557H875.667L878.43 210.091H880.71L876.214 222.456C876.006 223.024 875.741 223.505 875.419 223.898C875.097 224.295 874.713 224.594 874.268 224.793C873.823 224.991 873.307 225.091 872.72 225.091ZM884.625 219.011L884.518 219.786C884.447 220.354 884.326 220.946 884.156 221.561C883.99 222.181 883.817 222.757 883.637 223.287C883.462 223.817 883.318 224.239 883.204 224.551H881.699C881.76 224.258 881.845 223.86 881.954 223.358C882.063 222.861 882.17 222.304 882.274 221.689C882.378 221.073 882.456 220.446 882.508 219.807L882.579 219.011H884.625ZM895.537 221.241C894.846 221.241 894.221 221.114 893.662 220.858C893.103 220.598 892.66 220.221 892.334 219.729C892.012 219.236 891.851 218.633 891.851 217.918C891.851 217.302 891.969 216.795 892.206 216.398C892.443 216 892.762 215.685 893.165 215.453C893.567 215.221 894.017 215.046 894.514 214.928C895.011 214.809 895.518 214.719 896.034 214.658C896.687 214.582 897.218 214.52 897.625 214.473C898.032 214.421 898.328 214.338 898.513 214.224C898.697 214.111 898.79 213.926 898.79 213.67V213.621C898.79 213 898.615 212.52 898.264 212.179C897.919 211.838 897.402 211.668 896.716 211.668C896.001 211.668 895.437 211.826 895.026 212.143C894.618 212.456 894.337 212.804 894.18 213.188L892.185 212.733C892.421 212.07 892.767 211.535 893.222 211.128C893.681 210.716 894.209 210.418 894.805 210.233C895.402 210.044 896.029 209.949 896.687 209.949C897.123 209.949 897.585 210.001 898.072 210.105C898.565 210.205 899.024 210.389 899.45 210.659C899.881 210.929 900.234 211.315 900.508 211.817C900.783 212.314 900.92 212.96 900.92 213.756V221H898.847V219.509H898.761C898.624 219.783 898.418 220.053 898.143 220.318C897.869 220.583 897.516 220.804 897.085 220.979C896.654 221.154 896.138 221.241 895.537 221.241ZM895.999 219.537C896.586 219.537 897.088 219.421 897.504 219.189C897.926 218.957 898.245 218.654 898.463 218.28C898.686 217.901 898.797 217.496 898.797 217.065V215.659C898.721 215.735 898.574 215.806 898.357 215.872C898.143 215.934 897.9 215.988 897.625 216.036C897.35 216.078 897.083 216.118 896.822 216.156C896.562 216.189 896.344 216.218 896.169 216.241C895.757 216.294 895.381 216.381 895.04 216.504C894.704 216.627 894.434 216.805 894.23 217.037C894.031 217.264 893.932 217.567 893.932 217.946C893.932 218.472 894.126 218.869 894.514 219.139C894.902 219.404 895.397 219.537 895.999 219.537ZM905.712 214.523V221H903.589V210.091H905.627V211.866H905.762C906.013 211.289 906.406 210.825 906.941 210.474C907.481 210.124 908.16 209.949 908.98 209.949C909.723 209.949 910.374 210.105 910.933 210.418C911.491 210.725 911.925 211.185 912.232 211.795C912.54 212.406 912.694 213.161 912.694 214.061V221H910.57V214.317C910.57 213.526 910.364 212.908 909.953 212.463C909.541 212.013 908.975 211.788 908.255 211.788C907.763 211.788 907.325 211.895 906.941 212.108C906.562 212.321 906.262 212.634 906.039 213.045C905.821 213.453 905.712 213.945 905.712 214.523ZM919.466 221.213C918.585 221.213 917.799 220.988 917.108 220.538C916.421 220.084 915.882 219.437 915.489 218.599C915.1 217.757 914.906 216.746 914.906 215.567C914.906 214.388 915.103 213.379 915.496 212.541C915.893 211.703 916.438 211.062 917.129 210.616C917.82 210.171 918.604 209.949 919.48 209.949C920.157 209.949 920.702 210.062 921.114 210.29C921.53 210.512 921.852 210.773 922.079 211.071C922.311 211.369 922.491 211.632 922.619 211.859H922.747V206.455H924.871V221H922.797V219.303H922.619C922.491 219.535 922.307 219.8 922.065 220.098C921.829 220.396 921.502 220.657 921.085 220.879C920.668 221.102 920.129 221.213 919.466 221.213ZM919.935 219.402C920.545 219.402 921.061 219.241 921.483 218.919C921.909 218.592 922.231 218.14 922.449 217.562C922.671 216.985 922.783 216.312 922.783 215.545C922.783 214.788 922.674 214.125 922.456 213.557C922.238 212.989 921.918 212.546 921.497 212.229C921.076 211.911 920.555 211.753 919.935 211.753C919.295 211.753 918.763 211.919 918.337 212.25C917.91 212.581 917.588 213.034 917.371 213.607C917.158 214.179 917.051 214.826 917.051 215.545C917.051 216.275 917.16 216.93 917.378 217.513C917.596 218.095 917.918 218.557 918.344 218.898C918.775 219.234 919.305 219.402 919.935 219.402ZM567.468 249V238.091H569.592V249H567.468ZM568.541 236.408C568.171 236.408 567.854 236.285 567.589 236.038C567.329 235.787 567.198 235.489 567.198 235.143C567.198 234.793 567.329 234.495 567.589 234.249C567.854 233.998 568.171 233.872 568.541 233.872C568.91 233.872 569.225 233.998 569.485 234.249C569.75 234.495 569.883 234.793 569.883 235.143C569.883 235.489 569.75 235.787 569.485 236.038C569.225 236.285 568.91 236.408 568.541 236.408ZM572.289 249V238.091H574.327V239.866H574.462C574.689 239.265 575.061 238.796 575.577 238.46C576.093 238.119 576.711 237.949 577.431 237.949C578.16 237.949 578.771 238.119 579.263 238.46C579.76 238.801 580.127 239.27 580.364 239.866H580.478C580.738 239.284 581.152 238.82 581.721 238.474C582.289 238.124 582.966 237.949 583.752 237.949C584.741 237.949 585.549 238.259 586.174 238.879C586.803 239.5 587.118 240.435 587.118 241.685V249H584.995V241.884C584.995 241.145 584.793 240.61 584.391 240.278C583.989 239.947 583.508 239.781 582.949 239.781C582.258 239.781 581.721 239.994 581.337 240.42C580.954 240.842 580.762 241.384 580.762 242.047V249H578.645V241.749C578.645 241.157 578.461 240.681 578.091 240.321C577.722 239.961 577.241 239.781 576.65 239.781C576.247 239.781 575.875 239.888 575.534 240.101C575.198 240.309 574.926 240.6 574.718 240.974C574.514 241.348 574.412 241.782 574.412 242.274V249H572.289ZM589.805 253.091V238.091H591.878V239.859H592.056C592.179 239.632 592.357 239.369 592.589 239.071C592.821 238.773 593.143 238.512 593.555 238.29C593.966 238.062 594.511 237.949 595.188 237.949C596.069 237.949 596.855 238.171 597.546 238.616C598.237 239.062 598.779 239.703 599.172 240.541C599.57 241.379 599.769 242.388 599.769 243.567C599.769 244.746 599.573 245.757 599.18 246.599C598.787 247.437 598.247 248.084 597.56 248.538C596.874 248.988 596.09 249.213 595.209 249.213C594.546 249.213 594.004 249.102 593.583 248.879C593.166 248.657 592.84 248.396 592.603 248.098C592.366 247.8 592.184 247.535 592.056 247.303H591.928V253.091H589.805ZM591.885 243.545C591.885 244.312 591.997 244.985 592.219 245.562C592.442 246.14 592.764 246.592 593.185 246.919C593.607 247.241 594.123 247.402 594.734 247.402C595.368 247.402 595.898 247.234 596.324 246.898C596.751 246.557 597.073 246.095 597.29 245.513C597.513 244.93 597.624 244.275 597.624 243.545C597.624 242.826 597.515 242.179 597.297 241.607C597.084 241.034 596.762 240.581 596.332 240.25C595.905 239.919 595.373 239.753 594.734 239.753C594.118 239.753 593.597 239.911 593.171 240.229C592.75 240.546 592.43 240.989 592.212 241.557C591.994 242.125 591.885 242.788 591.885 243.545ZM605.163 249.241C604.472 249.241 603.847 249.114 603.288 248.858C602.729 248.598 602.287 248.221 601.96 247.729C601.638 247.236 601.477 246.633 601.477 245.918C601.477 245.302 601.595 244.795 601.832 244.398C602.069 244 602.388 243.685 602.791 243.453C603.193 243.221 603.643 243.046 604.14 242.928C604.637 242.809 605.144 242.719 605.66 242.658C606.314 242.582 606.844 242.52 607.251 242.473C607.658 242.421 607.954 242.338 608.139 242.224C608.324 242.111 608.416 241.926 608.416 241.67V241.621C608.416 241 608.241 240.52 607.89 240.179C607.545 239.838 607.029 239.668 606.342 239.668C605.627 239.668 605.064 239.826 604.652 240.143C604.244 240.456 603.963 240.804 603.806 241.188L601.811 240.733C602.047 240.07 602.393 239.535 602.848 239.128C603.307 238.716 603.835 238.418 604.431 238.233C605.028 238.044 605.655 237.949 606.314 237.949C606.749 237.949 607.211 238.001 607.699 238.105C608.191 238.205 608.65 238.389 609.076 238.659C609.507 238.929 609.86 239.315 610.135 239.817C610.409 240.314 610.547 240.96 610.547 241.756V249H608.473V247.509H608.387C608.25 247.783 608.044 248.053 607.77 248.318C607.495 248.583 607.142 248.804 606.711 248.979C606.28 249.154 605.764 249.241 605.163 249.241ZM605.625 247.537C606.212 247.537 606.714 247.421 607.13 247.189C607.552 246.957 607.871 246.654 608.089 246.28C608.312 245.901 608.423 245.496 608.423 245.065V243.659C608.347 243.735 608.2 243.806 607.983 243.872C607.77 243.934 607.526 243.988 607.251 244.036C606.976 244.078 606.709 244.118 606.449 244.156C606.188 244.189 605.97 244.218 605.795 244.241C605.383 244.294 605.007 244.381 604.666 244.504C604.33 244.627 604.06 244.805 603.856 245.037C603.657 245.264 603.558 245.567 603.558 245.946C603.558 246.472 603.752 246.869 604.14 247.139C604.529 247.404 605.023 247.537 605.625 247.537ZM617.81 249.22C616.754 249.22 615.845 248.981 615.083 248.503C614.325 248.02 613.743 247.355 613.336 246.507C612.929 245.66 612.725 244.689 612.725 243.595C612.725 242.487 612.933 241.509 613.35 240.662C613.767 239.81 614.354 239.144 615.111 238.666C615.869 238.188 616.761 237.949 617.789 237.949C618.617 237.949 619.356 238.103 620.005 238.411C620.653 238.714 621.177 239.14 621.574 239.689C621.977 240.238 622.216 240.88 622.292 241.614H620.225C620.111 241.102 619.851 240.662 619.444 240.293C619.041 239.923 618.501 239.739 617.824 239.739C617.233 239.739 616.714 239.895 616.269 240.207C615.829 240.515 615.485 240.955 615.239 241.528C614.993 242.097 614.87 242.769 614.87 243.545C614.87 244.341 614.991 245.027 615.232 245.605C615.474 246.183 615.814 246.63 616.255 246.947C616.7 247.265 617.223 247.423 617.824 247.423C618.227 247.423 618.591 247.35 618.918 247.203C619.25 247.052 619.527 246.836 619.749 246.557C619.976 246.277 620.135 245.941 620.225 245.548H622.292C622.216 246.254 621.986 246.884 621.603 247.438C621.219 247.991 620.706 248.427 620.062 248.744C619.422 249.062 618.672 249.22 617.81 249.22ZM629.495 238.091V239.795H623.536V238.091H629.495ZM625.134 235.477H627.258V245.797C627.258 246.209 627.319 246.519 627.442 246.727C627.566 246.931 627.724 247.071 627.918 247.146C628.117 247.217 628.333 247.253 628.565 247.253C628.735 247.253 628.884 247.241 629.012 247.217C629.14 247.194 629.239 247.175 629.31 247.161L629.694 248.915C629.571 248.962 629.396 249.009 629.168 249.057C628.941 249.109 628.657 249.137 628.316 249.142C627.757 249.152 627.236 249.052 626.754 248.844C626.271 248.635 625.88 248.313 625.582 247.878C625.283 247.442 625.134 246.895 625.134 246.237V235.477ZM636.817 249V238.091H638.941V249H636.817ZM637.889 236.408C637.52 236.408 637.203 236.285 636.938 236.038C636.677 235.787 636.547 235.489 636.547 235.143C636.547 234.793 636.677 234.495 636.938 234.249C637.203 233.998 637.52 233.872 637.889 233.872C638.259 233.872 638.574 233.998 638.834 234.249C639.099 234.495 639.232 234.793 639.232 235.143C639.232 235.489 639.099 235.787 638.834 236.038C638.574 236.285 638.259 236.408 637.889 236.408ZM643.761 242.523V249H641.638V238.091H643.676V239.866H643.811C644.062 239.289 644.455 238.825 644.99 238.474C645.53 238.124 646.209 237.949 647.028 237.949C647.771 237.949 648.423 238.105 648.981 238.418C649.54 238.725 649.973 239.185 650.281 239.795C650.589 240.406 650.743 241.161 650.743 242.061V249H648.619V242.317C648.619 241.526 648.413 240.908 648.001 240.463C647.589 240.013 647.023 239.788 646.304 239.788C645.811 239.788 645.373 239.895 644.99 240.108C644.611 240.321 644.31 240.634 644.088 241.045C643.87 241.453 643.761 241.945 643.761 242.523ZM663.656 238.091V239.795H657.697V238.091H663.656ZM659.295 235.477H661.419V245.797C661.419 246.209 661.48 246.519 661.603 246.727C661.726 246.931 661.885 247.071 662.079 247.146C662.278 247.217 662.494 247.253 662.726 247.253C662.896 247.253 663.045 247.241 663.173 247.217C663.301 247.194 663.4 247.175 663.471 247.161L663.855 248.915C663.732 248.962 663.557 249.009 663.329 249.057C663.102 249.109 662.818 249.137 662.477 249.142C661.918 249.152 661.397 249.052 660.914 248.844C660.432 248.635 660.041 248.313 659.743 247.878C659.444 247.442 659.295 246.895 659.295 246.237V235.477ZM668.203 242.523V249H666.079V234.455H668.175V239.866H668.309C668.565 239.279 668.956 238.813 669.481 238.467C670.007 238.122 670.693 237.949 671.541 237.949C672.289 237.949 672.943 238.103 673.501 238.411C674.065 238.718 674.5 239.178 674.808 239.788C675.121 240.394 675.277 241.152 675.277 242.061V249H673.153V242.317C673.153 241.517 672.947 240.896 672.535 240.456C672.123 240.011 671.55 239.788 670.817 239.788C670.315 239.788 669.865 239.895 669.467 240.108C669.074 240.321 668.764 240.634 668.537 241.045C668.314 241.453 668.203 241.945 668.203 242.523ZM682.652 249.22C681.578 249.22 680.652 248.991 679.875 248.531C679.104 248.067 678.507 247.416 678.086 246.578C677.669 245.735 677.461 244.748 677.461 243.616C677.461 242.499 677.669 241.514 678.086 240.662C678.507 239.81 679.094 239.144 679.847 238.666C680.605 238.188 681.49 237.949 682.503 237.949C683.119 237.949 683.715 238.051 684.293 238.254C684.871 238.458 685.389 238.777 685.848 239.213C686.308 239.649 686.67 240.214 686.935 240.911C687.2 241.602 687.333 242.442 687.333 243.432V244.185H678.661V242.594H685.252C685.252 242.035 685.138 241.54 684.911 241.109C684.684 240.674 684.364 240.33 683.952 240.08C683.545 239.829 683.067 239.703 682.517 239.703C681.921 239.703 681.4 239.85 680.955 240.143C680.515 240.432 680.174 240.811 679.932 241.28C679.695 241.744 679.577 242.248 679.577 242.793V244.036C679.577 244.765 679.705 245.385 679.961 245.896C680.221 246.408 680.583 246.798 681.047 247.068C681.511 247.333 682.053 247.466 682.674 247.466C683.076 247.466 683.443 247.409 683.774 247.295C684.106 247.177 684.392 247.002 684.634 246.77C684.875 246.538 685.06 246.251 685.188 245.911L687.198 246.273C687.037 246.865 686.748 247.383 686.331 247.828C685.919 248.268 685.401 248.612 684.776 248.858C684.156 249.099 683.448 249.22 682.652 249.22ZM694.832 249V234.455H697.027V247.111H703.618V249H694.832ZM715.315 234.455H717.517V244.021C717.517 245.039 717.278 245.941 716.799 246.727C716.321 247.509 715.649 248.124 714.782 248.574C713.916 249.019 712.9 249.241 711.736 249.241C710.576 249.241 709.562 249.019 708.696 248.574C707.829 248.124 707.157 247.509 706.679 246.727C706.201 245.941 705.961 245.039 705.961 244.021V234.455H708.156V243.844C708.156 244.502 708.3 245.087 708.589 245.598C708.883 246.109 709.297 246.512 709.832 246.805C710.367 247.094 711.002 247.239 711.736 247.239C712.474 247.239 713.111 247.094 713.646 246.805C714.186 246.512 714.598 246.109 714.882 245.598C715.171 245.087 715.315 244.502 715.315 243.844V234.455ZM720.547 249V234.455H722.742V241.401H722.92L729.021 234.455H731.783L725.917 241.003L731.805 249H729.163L724.461 242.501L722.742 244.476V249H720.547ZM741.563 238.276C741.487 237.603 741.175 237.082 740.625 236.713C740.076 236.339 739.385 236.152 738.552 236.152C737.955 236.152 737.439 236.247 737.003 236.436C736.568 236.621 736.229 236.876 735.988 237.203C735.751 237.525 735.633 237.892 735.633 238.304C735.633 238.65 735.713 238.948 735.874 239.199C736.04 239.45 736.255 239.661 736.52 239.831C736.79 239.997 737.079 240.136 737.387 240.25C737.695 240.359 737.99 240.449 738.275 240.52L739.695 240.889C740.159 241.003 740.635 241.157 741.123 241.351C741.61 241.545 742.062 241.801 742.479 242.118C742.896 242.435 743.232 242.828 743.488 243.297C743.748 243.766 743.878 244.327 743.878 244.98C743.878 245.804 743.665 246.536 743.239 247.175C742.818 247.814 742.204 248.318 741.4 248.688C740.599 249.057 739.631 249.241 738.495 249.241C737.406 249.241 736.463 249.069 735.668 248.723C734.873 248.377 734.25 247.887 733.8 247.253C733.35 246.614 733.102 245.856 733.054 244.98H735.256C735.299 245.506 735.469 245.944 735.767 246.294C736.07 246.64 736.456 246.898 736.925 247.068C737.399 247.234 737.917 247.317 738.481 247.317C739.101 247.317 739.652 247.22 740.135 247.026C740.623 246.827 741.007 246.552 741.286 246.202C741.565 245.847 741.705 245.432 741.705 244.959C741.705 244.528 741.582 244.175 741.336 243.901C741.094 243.626 740.765 243.399 740.348 243.219C739.936 243.039 739.47 242.88 738.949 242.743L737.231 242.274C736.066 241.957 735.142 241.491 734.461 240.875C733.784 240.259 733.445 239.445 733.445 238.432C733.445 237.594 733.672 236.862 734.127 236.237C734.581 235.612 735.197 235.127 735.973 234.781C736.75 234.431 737.626 234.256 738.601 234.256C739.586 234.256 740.455 234.429 741.208 234.774C741.965 235.12 742.562 235.596 742.998 236.202C743.433 236.803 743.66 237.494 743.679 238.276H741.563ZM758.976 241.727C758.976 243.28 758.692 244.616 758.123 245.733C757.555 246.846 756.776 247.703 755.787 248.304C754.802 248.901 753.682 249.199 752.427 249.199C751.168 249.199 750.043 248.901 749.054 248.304C748.069 247.703 747.292 246.843 746.724 245.726C746.156 244.608 745.872 243.276 745.872 241.727C745.872 240.174 746.156 238.841 746.724 237.729C747.292 236.611 748.069 235.754 749.054 235.158C750.043 234.556 751.168 234.256 752.427 234.256C753.682 234.256 754.802 234.556 755.787 235.158C756.776 235.754 757.555 236.611 758.123 237.729C758.692 238.841 758.976 240.174 758.976 241.727ZM756.802 241.727C756.802 240.544 756.611 239.547 756.227 238.737C755.848 237.923 755.327 237.307 754.665 236.891C754.006 236.469 753.261 236.259 752.427 236.259C751.589 236.259 750.841 236.469 750.183 236.891C749.525 237.307 749.004 237.923 748.621 238.737C748.242 239.547 748.052 240.544 748.052 241.727C748.052 242.911 748.242 243.91 748.621 244.724C749.004 245.534 749.525 246.15 750.183 246.571C750.841 246.988 751.589 247.196 752.427 247.196C753.261 247.196 754.006 246.988 754.665 246.571C755.327 246.15 755.848 245.534 756.227 244.724C756.611 243.91 756.802 242.911 756.802 241.727ZM771.216 249.22C770.141 249.22 769.216 248.991 768.439 248.531C767.667 248.067 767.071 247.416 766.649 246.578C766.233 245.735 766.024 244.748 766.024 243.616C766.024 242.499 766.233 241.514 766.649 240.662C767.071 239.81 767.658 239.144 768.411 238.666C769.168 238.188 770.054 237.949 771.067 237.949C771.682 237.949 772.279 238.051 772.857 238.254C773.434 238.458 773.953 238.777 774.412 239.213C774.871 239.649 775.234 240.214 775.499 240.911C775.764 241.602 775.896 242.442 775.896 243.432V244.185H767.225V242.594H773.816C773.816 242.035 773.702 241.54 773.475 241.109C773.247 240.674 772.928 240.33 772.516 240.08C772.109 239.829 771.63 239.703 771.081 239.703C770.485 239.703 769.964 239.85 769.519 240.143C769.078 240.432 768.737 240.811 768.496 241.28C768.259 241.744 768.141 242.248 768.141 242.793V244.036C768.141 244.765 768.269 245.385 768.524 245.896C768.785 246.408 769.147 246.798 769.611 247.068C770.075 247.333 770.617 247.466 771.237 247.466C771.64 247.466 772.007 247.409 772.338 247.295C772.67 247.177 772.956 247.002 773.198 246.77C773.439 246.538 773.624 246.251 773.752 245.911L775.762 246.273C775.601 246.865 775.312 247.383 774.895 247.828C774.483 248.268 773.965 248.612 773.34 248.858C772.719 249.099 772.012 249.22 771.216 249.22ZM782.688 249.22C781.632 249.22 780.723 248.981 779.961 248.503C779.203 248.02 778.621 247.355 778.213 246.507C777.806 245.66 777.603 244.689 777.603 243.595C777.603 242.487 777.811 241.509 778.228 240.662C778.644 239.81 779.231 239.144 779.989 238.666C780.747 238.188 781.639 237.949 782.667 237.949C783.495 237.949 784.234 238.103 784.882 238.411C785.531 238.714 786.054 239.14 786.452 239.689C786.854 240.238 787.094 240.88 787.169 241.614H785.103C784.989 241.102 784.729 240.662 784.321 240.293C783.919 239.923 783.379 239.739 782.702 239.739C782.11 239.739 781.592 239.895 781.147 240.207C780.706 240.515 780.363 240.955 780.117 241.528C779.871 242.097 779.747 242.769 779.747 243.545C779.747 244.341 779.868 245.027 780.11 245.605C780.351 246.183 780.692 246.63 781.132 246.947C781.578 247.265 782.101 247.423 782.702 247.423C783.104 247.423 783.469 247.35 783.796 247.203C784.127 247.052 784.404 246.836 784.627 246.557C784.854 246.277 785.013 245.941 785.103 245.548H787.169C787.094 246.254 786.864 246.884 786.48 247.438C786.097 247.991 785.583 248.427 784.939 248.744C784.3 249.062 783.55 249.22 782.688 249.22ZM793.875 249.22C792.853 249.22 791.96 248.986 791.198 248.517C790.436 248.048 789.844 247.393 789.422 246.55C789.001 245.707 788.79 244.722 788.79 243.595C788.79 242.464 789.001 241.474 789.422 240.626C789.844 239.779 790.436 239.121 791.198 238.652C791.96 238.183 792.853 237.949 793.875 237.949C794.898 237.949 795.791 238.183 796.553 238.652C797.315 239.121 797.907 239.779 798.329 240.626C798.75 241.474 798.961 242.464 798.961 243.595C798.961 244.722 798.75 245.707 798.329 246.55C797.907 247.393 797.315 248.048 796.553 248.517C795.791 248.986 794.898 249.22 793.875 249.22ZM793.883 247.438C794.545 247.438 795.095 247.262 795.53 246.912C795.966 246.562 796.288 246.095 796.496 245.513C796.709 244.93 796.816 244.289 796.816 243.588C796.816 242.892 796.709 242.253 796.496 241.67C796.288 241.083 795.966 240.612 795.53 240.257C795.095 239.902 794.545 239.724 793.883 239.724C793.215 239.724 792.661 239.902 792.221 240.257C791.785 240.612 791.461 241.083 791.248 241.67C791.039 242.253 790.935 242.892 790.935 243.588C790.935 244.289 791.039 244.93 791.248 245.513C791.461 246.095 791.785 246.562 792.221 246.912C792.661 247.262 793.215 247.438 793.883 247.438ZM809.346 240.754L807.421 241.095C807.341 240.849 807.213 240.615 807.038 240.392C806.867 240.17 806.635 239.987 806.342 239.845C806.048 239.703 805.681 239.632 805.241 239.632C804.639 239.632 804.137 239.767 803.735 240.037C803.333 240.302 803.131 240.645 803.131 241.067C803.131 241.431 803.266 241.725 803.536 241.947C803.806 242.17 804.242 242.352 804.843 242.494L806.576 242.892C807.58 243.124 808.328 243.482 808.82 243.964C809.313 244.447 809.559 245.075 809.559 245.847C809.559 246.5 809.369 247.082 808.991 247.594C808.617 248.1 808.093 248.498 807.421 248.787C806.753 249.076 805.979 249.22 805.099 249.22C803.877 249.22 802.88 248.96 802.109 248.439C801.337 247.913 800.863 247.168 800.688 246.202L802.741 245.889C802.869 246.424 803.131 246.829 803.529 247.104C803.927 247.374 804.445 247.509 805.084 247.509C805.78 247.509 806.337 247.364 806.753 247.075C807.17 246.782 807.378 246.424 807.378 246.003C807.378 245.662 807.251 245.375 806.995 245.143C806.744 244.911 806.358 244.736 805.837 244.618L803.991 244.213C802.973 243.981 802.22 243.612 801.732 243.105C801.249 242.598 801.008 241.957 801.008 241.18C801.008 240.536 801.188 239.973 801.548 239.49C801.907 239.007 802.405 238.631 803.039 238.361C803.673 238.086 804.4 237.949 805.219 237.949C806.398 237.949 807.326 238.205 808.003 238.716C808.681 239.223 809.128 239.902 809.346 240.754ZM813.076 253.091C812.759 253.091 812.47 253.065 812.21 253.013C811.949 252.965 811.755 252.913 811.627 252.857L812.139 251.116C812.527 251.221 812.873 251.266 813.176 251.251C813.479 251.237 813.746 251.124 813.978 250.911C814.215 250.697 814.423 250.349 814.603 249.866L814.866 249.142L810.874 238.091H813.147L815.91 246.557H816.024L818.786 238.091H821.066L816.57 250.456C816.362 251.024 816.097 251.505 815.775 251.898C815.453 252.295 815.069 252.594 814.624 252.793C814.179 252.991 813.663 253.091 813.076 253.091ZM831.077 240.754L829.152 241.095C829.071 240.849 828.944 240.615 828.768 240.392C828.598 240.17 828.366 239.987 828.072 239.845C827.779 239.703 827.412 239.632 826.971 239.632C826.37 239.632 825.868 239.767 825.466 240.037C825.063 240.302 824.862 240.645 824.862 241.067C824.862 241.431 824.997 241.725 825.267 241.947C825.537 242.17 825.972 242.352 826.574 242.494L828.307 242.892C829.31 243.124 830.059 243.482 830.551 243.964C831.043 244.447 831.29 245.075 831.29 245.847C831.29 246.5 831.1 247.082 830.721 247.594C830.347 248.1 829.824 248.498 829.152 248.787C828.484 249.076 827.71 249.22 826.829 249.22C825.608 249.22 824.611 248.96 823.839 248.439C823.068 247.913 822.594 247.168 822.419 246.202L824.471 245.889C824.599 246.424 824.862 246.829 825.26 247.104C825.658 247.374 826.176 247.509 826.815 247.509C827.511 247.509 828.068 247.364 828.484 247.075C828.901 246.782 829.109 246.424 829.109 246.003C829.109 245.662 828.981 245.375 828.726 245.143C828.475 244.911 828.089 244.736 827.568 244.618L825.721 244.213C824.703 243.981 823.951 243.612 823.463 243.105C822.98 242.598 822.739 241.957 822.739 241.18C822.739 240.536 822.918 239.973 823.278 239.49C823.638 239.007 824.135 238.631 824.77 238.361C825.404 238.086 826.131 237.949 826.95 237.949C828.129 237.949 829.057 238.205 829.734 238.716C830.411 239.223 830.859 239.902 831.077 240.754ZM838.557 238.091V239.795H832.598V238.091H838.557ZM834.196 235.477H836.32V245.797C836.32 246.209 836.381 246.519 836.504 246.727C836.627 246.931 836.786 247.071 836.98 247.146C837.179 247.217 837.394 247.253 837.626 247.253C837.797 247.253 837.946 247.241 838.074 247.217C838.202 247.194 838.301 247.175 838.372 247.161L838.756 248.915C838.633 248.962 838.457 249.009 838.23 249.057C838.003 249.109 837.719 249.137 837.378 249.142C836.819 249.152 836.298 249.052 835.815 248.844C835.332 248.635 834.942 248.313 834.644 247.878C834.345 247.442 834.196 246.895 834.196 246.237V235.477ZM845.33 249.22C844.256 249.22 843.33 248.991 842.553 248.531C841.782 248.067 841.185 247.416 840.764 246.578C840.347 245.735 840.139 244.748 840.139 243.616C840.139 242.499 840.347 241.514 840.764 240.662C841.185 239.81 841.772 239.144 842.525 238.666C843.283 238.188 844.168 237.949 845.181 237.949C845.797 237.949 846.393 238.051 846.971 238.254C847.549 238.458 848.067 238.777 848.526 239.213C848.986 239.649 849.348 240.214 849.613 240.911C849.878 241.602 850.011 242.442 850.011 243.432V244.185H841.339V242.594H847.93C847.93 242.035 847.816 241.54 847.589 241.109C847.362 240.674 847.042 240.33 846.63 240.08C846.223 239.829 845.745 239.703 845.195 239.703C844.599 239.703 844.078 239.85 843.633 240.143C843.193 240.432 842.852 240.811 842.61 241.28C842.374 241.744 842.255 242.248 842.255 242.793V244.036C842.255 244.765 842.383 245.385 842.639 245.896C842.899 246.408 843.261 246.798 843.725 247.068C844.189 247.333 844.731 247.466 845.352 247.466C845.754 247.466 846.121 247.409 846.453 247.295C846.784 247.177 847.07 247.002 847.312 246.77C847.553 246.538 847.738 246.251 847.866 245.911L849.876 246.273C849.715 246.865 849.426 247.383 849.009 247.828C848.597 248.268 848.079 248.612 847.454 248.858C846.834 249.099 846.126 249.22 845.33 249.22ZM852.207 249V238.091H854.245V239.866H854.38C854.608 239.265 854.979 238.796 855.495 238.46C856.011 238.119 856.629 237.949 857.349 237.949C858.078 237.949 858.689 238.119 859.181 238.46C859.679 238.801 860.046 239.27 860.282 239.866H860.396C860.656 239.284 861.071 238.82 861.639 238.474C862.207 238.124 862.884 237.949 863.67 237.949C864.66 237.949 865.467 238.259 866.092 238.879C866.722 239.5 867.037 240.435 867.037 241.685V249H864.913V241.884C864.913 241.145 864.712 240.61 864.309 240.278C863.907 239.947 863.426 239.781 862.868 239.781C862.176 239.781 861.639 239.994 861.255 240.42C860.872 240.842 860.68 241.384 860.68 242.047V249H858.564V241.749C858.564 241.157 858.379 240.681 858.01 240.321C857.64 239.961 857.16 239.781 856.568 239.781C856.165 239.781 855.794 239.888 855.453 240.101C855.117 240.309 854.844 240.6 854.636 240.974C854.432 241.348 854.331 241.782 854.331 242.274V249H852.207ZM871.122 249.135C870.734 249.135 870.4 248.998 870.121 248.723C869.841 248.444 869.701 248.107 869.701 247.714C869.701 247.326 869.841 246.995 870.121 246.72C870.4 246.441 870.734 246.301 871.122 246.301C871.51 246.301 871.844 246.441 872.123 246.72C872.403 246.995 872.542 247.326 872.542 247.714C872.542 247.975 872.476 248.214 872.344 248.432C872.216 248.645 872.045 248.815 871.832 248.943C871.619 249.071 871.382 249.135 871.122 249.135Z" fill="white"/>
</g>
</g>
<defs>
<filter id="filter0_f_8_2766" x="291.364" y="-24.6362" width="805.272" height="446.782" filterUnits="userSpaceOnUse" color-interpolation-filters="sRGB">
<feFlood flood-opacity="0" result="BackgroundImageFix"/>
<feBlend mode="normal" in="SourceGraphic" in2="BackgroundImageFix" result="shape"/>
<feGaussianBlur stdDeviation="39.3181" result="effect1_foregroundBlur_8_2766"/>
</filter>
<filter id="filter1_d_8_2766" x="-133.141" y="-147.52" width="1707.29" height="1713.8" filterUnits="userSpaceOnUse" color-interpolation-filters="sRGB">
<feFlood flood-opacity="0" result="BackgroundImageFix"/>
<feColorMatrix in="SourceAlpha" type="matrix" values="0 0 0 0 0 0 0 0 0 0 0 0 0 0 0 0 0 0 127 0" result="hardAlpha"/>
<feOffset/>
<feGaussianBlur stdDeviation="3.75867"/>
<feColorMatrix type="matrix" values="0 0 0 0 1 0 0 0 0 1 0 0 0 0 1 0 0 0 0.75 0"/>
<feBlend mode="normal" in2="BackgroundImageFix" result="effect1_dropShadow_8_2766"/>
<feBlend mode="normal" in="SourceGraphic" in2="effect1_dropShadow_8_2766" result="shape"/>
</filter>
<clipPath id="clip0_8_2766">
<rect width="1440" height="380" fill="white"/>
</clipPath>
</defs>
</svg>
