<svg width="946" height="236" viewBox="0 0 946 236" fill="none" xmlns="http://www.w3.org/2000/svg">
<rect x="347" y="131" width="276" height="8" rx="4" fill="url(#paint0_linear_0_1)"/>
<path d="M89.0348 135.039C89.0348 132.809 90.8427 131.001 93.0729 131.001H335.36C337.59 131.001 339.398 132.809 339.398 135.039C339.398 137.269 337.59 139.077 335.36 139.077H93.0729C90.8427 139.077 89.0348 137.269 89.0348 135.039Z" fill="url(#paint1_linear_0_1)"/>
<rect x="626.105" y="131.001" width="239.595" height="8.07624" rx="4.03812" fill="url(#paint2_linear_0_1)"/>
<circle cx="345.662" cy="133.869" r="20" transform="rotate(-3.15408 345.662 133.869)" fill="url(#paint3_linear_0_1)"/>
<circle cx="71.0701" cy="133.869" r="20" transform="rotate(-3.15408 71.0701 133.869)" fill="url(#paint4_linear_0_1)"/>
<circle cx="622.857" cy="134.568" r="20" transform="rotate(11.435 622.857 134.568)" fill="url(#paint5_linear_0_1)"/>
<circle cx="875.924" cy="134.955" r="20" transform="rotate(-2.91727 875.924 134.955)" fill="url(#paint6_linear_0_1)"/>
<circle cx="876" cy="134.999" r="15" fill="black"/>
<rect x="275.375" y="58.375" width="140.25" height="25.25" rx="12.625" fill="#111111" stroke="white" stroke-width="0.75"/>
<path d="M296.7 76V66.5455H302.563V67.7734H298.126V70.6541H302.143V71.8775H298.126V76H296.7ZM306.482 76.1431C305.783 76.1431 305.181 75.9938 304.677 75.6953C304.175 75.3937 303.787 74.9705 303.513 74.4258C303.242 73.878 303.107 73.2363 303.107 72.5007C303.107 71.7744 303.242 71.1342 303.513 70.5803C303.787 70.0263 304.169 69.5939 304.658 69.283C305.151 68.9722 305.726 68.8168 306.385 68.8168C306.785 68.8168 307.173 68.8829 307.548 69.0153C307.924 69.1476 308.261 69.3554 308.559 69.6385C308.858 69.9216 309.093 70.2894 309.265 70.7418C309.438 71.1912 309.524 71.7375 309.524 72.3807V72.87H303.887V71.8359H308.171C308.171 71.4728 308.097 71.1512 307.95 70.8711C307.802 70.5879 307.594 70.3648 307.327 70.2017C307.062 70.0386 306.751 69.957 306.394 69.957C306.006 69.957 305.668 70.0524 305.378 70.2433C305.092 70.431 304.871 70.6772 304.714 70.9819C304.56 71.2835 304.483 71.6113 304.483 71.9652V72.7731C304.483 73.247 304.566 73.6502 304.732 73.9826C304.901 74.315 305.137 74.5689 305.438 74.7443C305.74 74.9167 306.092 75.0028 306.496 75.0028C306.757 75.0028 306.996 74.9659 307.211 74.892C307.427 74.8151 307.613 74.7012 307.77 74.5504C307.927 74.3996 308.047 74.2134 308.13 73.9918L309.436 74.2273C309.332 74.612 309.144 74.949 308.873 75.2383C308.605 75.5245 308.268 75.7476 307.862 75.9077C307.459 76.0646 306.999 76.1431 306.482 76.1431ZM310.906 76V66.5455H312.287V70.0586H312.37C312.45 69.9109 312.565 69.7401 312.716 69.5462C312.867 69.3523 313.076 69.183 313.344 69.0384C313.612 68.8906 313.965 68.8168 314.406 68.8168C314.978 68.8168 315.489 68.9614 315.938 69.2507C316.388 69.54 316.74 69.957 316.995 70.5018C317.254 71.0465 317.383 71.7021 317.383 72.4684C317.383 73.2347 317.255 73.8918 317 74.4396C316.745 74.9844 316.394 75.4045 315.947 75.6999C315.501 75.9923 314.992 76.1385 314.419 76.1385C313.989 76.1385 313.636 76.0662 313.362 75.9215C313.091 75.7769 312.879 75.6076 312.725 75.4137C312.571 75.2198 312.453 75.0475 312.37 74.8967H312.254V76H310.906ZM312.259 72.4545C312.259 72.9531 312.331 73.3902 312.476 73.7656C312.621 74.1411 312.83 74.435 313.104 74.6474C313.378 74.8567 313.713 74.9613 314.11 74.9613C314.523 74.9613 314.867 74.852 315.144 74.6335C315.421 74.4119 315.63 74.1119 315.772 73.7333C315.917 73.3548 315.989 72.9285 315.989 72.4545C315.989 71.9867 315.918 71.5666 315.777 71.1942C315.638 70.8219 315.429 70.5279 315.149 70.3125C314.872 70.0971 314.526 69.9893 314.11 69.9893C313.71 69.9893 313.371 70.0924 313.094 70.2987C312.821 70.5049 312.613 70.7926 312.471 71.1619C312.33 71.5312 312.259 71.9621 312.259 72.4545ZM321.835 76V74.9659L325.034 71.6513C325.376 71.2912 325.658 70.9757 325.879 70.7049C326.104 70.431 326.272 70.1709 326.382 69.9247C326.493 69.6785 326.549 69.4169 326.549 69.1399C326.549 68.826 326.475 68.5552 326.327 68.3274C326.179 68.0966 325.978 67.9196 325.722 67.7965C325.467 67.6703 325.179 67.6072 324.859 67.6072C324.52 67.6072 324.225 67.6765 323.973 67.815C323.72 67.9535 323.526 68.1489 323.391 68.4013C323.255 68.6536 323.188 68.9491 323.188 69.2876H321.826C321.826 68.7121 321.958 68.2089 322.223 67.7781C322.488 67.3472 322.851 67.0133 323.312 66.7763C323.774 66.5362 324.299 66.4162 324.887 66.4162C325.481 66.4162 326.004 66.5347 326.456 66.7717C326.912 67.0056 327.267 67.3256 327.523 67.7319C327.778 68.1351 327.906 68.5906 327.906 69.0984C327.906 69.4492 327.84 69.7924 327.707 70.1278C327.578 70.4633 327.352 70.8372 327.029 71.2496C326.706 71.659 326.256 72.156 325.681 72.7408L323.802 74.7074V74.7766H328.058V76H321.835ZM332.669 76.1293C332.09 76.1293 331.57 76.0185 331.108 75.7969C330.65 75.5722 330.283 75.2644 330.009 74.8736C329.736 74.4827 329.589 74.0365 329.571 73.5348H330.956C330.99 73.9411 331.17 74.275 331.496 74.5366C331.822 74.7982 332.213 74.929 332.669 74.929C333.032 74.929 333.353 74.8459 333.633 74.6797C333.917 74.5104 334.138 74.2781 334.298 73.9826C334.461 73.6871 334.543 73.3501 334.543 72.9716C334.543 72.5869 334.46 72.2437 334.294 71.9421C334.127 71.6405 333.898 71.4035 333.606 71.2312C333.316 71.0588 332.984 70.9711 332.609 70.968C332.322 70.968 332.035 71.0173 331.745 71.1158C331.456 71.2143 331.222 71.3435 331.044 71.5036L329.737 71.3097L330.268 66.5455H335.466V67.7688H331.454L331.154 70.4141H331.21C331.394 70.2356 331.639 70.0863 331.944 69.9663C332.252 69.8462 332.581 69.7862 332.932 69.7862C333.507 69.7862 334.02 69.9232 334.469 70.1971C334.921 70.471 335.277 70.8449 335.535 71.3189C335.797 71.7898 335.926 72.3314 335.923 72.9439C335.926 73.5563 335.788 74.1026 335.508 74.5827C335.231 75.0629 334.846 75.4414 334.354 75.7184C333.864 75.9923 333.303 76.1293 332.669 76.1293ZM346.439 75.5799L345.608 74.7582L348.493 71.8729H341.245V70.6726H348.493L345.608 67.7919L346.439 66.9656L350.746 71.2727L346.439 75.5799ZM355.983 66.5455H357.714L360.724 73.8949H360.835L363.845 66.5455H365.576V76H364.219V69.1584H364.131L361.342 75.9862H360.216L357.428 69.1538H357.34V76H355.983V66.5455ZM369.343 76.157C368.893 76.157 368.487 76.0739 368.124 75.9077C367.761 75.7384 367.473 75.4937 367.26 75.1737C367.051 74.8536 366.947 74.4612 366.947 73.9964C366.947 73.5964 367.024 73.267 367.177 73.0085C367.331 72.75 367.539 72.5453 367.801 72.3945C368.062 72.2437 368.355 72.1299 368.678 72.0529C369.001 71.976 369.33 71.9175 369.666 71.8775C370.09 71.8282 370.435 71.7882 370.7 71.7575C370.964 71.7236 371.157 71.6697 371.277 71.5959C371.397 71.522 371.457 71.402 371.457 71.2358V71.2035C371.457 70.8003 371.343 70.4879 371.115 70.2663C370.891 70.0447 370.555 69.9339 370.109 69.9339C369.644 69.9339 369.278 70.037 369.01 70.2433C368.745 70.4464 368.562 70.6726 368.461 70.9219L367.164 70.6264C367.317 70.1955 367.542 69.8478 367.838 69.5831C368.136 69.3153 368.479 69.1214 368.867 69.0014C369.255 68.8783 369.663 68.8168 370.09 68.8168C370.374 68.8168 370.674 68.8506 370.991 68.9183C371.311 68.983 371.609 69.103 371.886 69.2784C372.166 69.4538 372.396 69.7047 372.574 70.0309C372.753 70.354 372.842 70.7741 372.842 71.2912V76H371.494V75.0305H371.438C371.349 75.209 371.215 75.3845 371.037 75.5568C370.858 75.7292 370.629 75.8723 370.349 75.9862C370.069 76.1 369.733 76.157 369.343 76.157ZM369.643 75.049C370.024 75.049 370.35 74.9736 370.621 74.8228C370.895 74.672 371.103 74.475 371.245 74.2319C371.389 73.9857 371.461 73.7225 371.461 73.4425V72.5284C371.412 72.5777 371.317 72.6238 371.175 72.6669C371.037 72.7069 370.878 72.7423 370.7 72.7731C370.521 72.8008 370.347 72.8269 370.178 72.8516C370.009 72.8731 369.867 72.8916 369.753 72.907C369.486 72.9408 369.241 72.9978 369.019 73.0778C368.801 73.1578 368.625 73.2732 368.493 73.424C368.364 73.5717 368.299 73.7687 368.299 74.0149C368.299 74.3565 368.425 74.6151 368.678 74.7905C368.93 74.9628 369.252 75.049 369.643 75.049ZM374.42 76V68.9091H375.754V70.0355H375.828C375.958 69.6539 376.185 69.3538 376.512 69.1353C376.841 68.9137 377.213 68.8029 377.629 68.8029C377.715 68.8029 377.817 68.806 377.933 68.8121C378.053 68.8183 378.147 68.826 378.215 68.8352V70.1555C378.16 70.1402 378.061 70.1232 377.92 70.1048C377.778 70.0832 377.636 70.0724 377.495 70.0724C377.169 70.0724 376.878 70.1417 376.622 70.2802C376.37 70.4156 376.17 70.6049 376.022 70.848C375.875 71.0881 375.801 71.362 375.801 71.6697V76H374.42ZM385.899 66.5455V76H384.467V67.9766H384.412L382.15 69.4538V68.0874L384.509 66.5455H385.899ZM391.488 76.1293C390.854 76.1293 390.287 76.02 389.789 75.8015C389.293 75.583 388.901 75.2798 388.612 74.892C388.325 74.5012 388.171 74.0488 388.15 73.5348H389.599C389.618 73.8149 389.712 74.058 389.881 74.2642C390.053 74.4673 390.278 74.6243 390.555 74.7351C390.832 74.8459 391.14 74.9013 391.478 74.9013C391.851 74.9013 392.18 74.8366 392.466 74.7074C392.756 74.5781 392.982 74.3981 393.145 74.1673C393.308 73.9334 393.39 73.6641 393.39 73.3594C393.39 73.0424 393.308 72.7638 393.145 72.5238C392.985 72.2807 392.749 72.0898 392.439 71.9513C392.131 71.8129 391.758 71.7436 391.321 71.7436H390.523V70.5803H391.321C391.672 70.5803 391.98 70.5172 392.245 70.391C392.512 70.2648 392.722 70.0894 392.873 69.8647C393.023 69.637 393.099 69.3707 393.099 69.0661C393.099 68.7737 393.033 68.5198 392.9 68.3043C392.771 68.0858 392.586 67.915 392.346 67.7919C392.109 67.6688 391.829 67.6072 391.506 67.6072C391.198 67.6072 390.911 67.6642 390.643 67.7781C390.378 67.8888 390.163 68.0489 389.997 68.2582C389.83 68.4644 389.741 68.7121 389.729 69.0014H388.348C388.364 68.4905 388.515 68.0412 388.801 67.6534C389.09 67.2656 389.472 66.9625 389.946 66.744C390.42 66.5254 390.946 66.4162 391.525 66.4162C392.131 66.4162 392.654 66.5347 393.094 66.7717C393.537 67.0056 393.879 67.3179 394.119 67.7088C394.362 68.0997 394.482 68.5275 394.479 68.9922C394.482 69.5215 394.334 69.9709 394.036 70.3402C393.74 70.7095 393.347 70.9573 392.854 71.0835V71.1573C393.482 71.2527 393.968 71.502 394.313 71.9052C394.661 72.3084 394.833 72.8085 394.83 73.4055C394.833 73.9257 394.688 74.3919 394.396 74.8043C394.107 75.2167 393.711 75.5414 393.21 75.7784C392.708 76.0123 392.134 76.1293 391.488 76.1293Z" fill="white"/>
<path d="M305.591 41H291.287V25.136H297.383V36.968H305.591V41ZM324.602 41H312.626C308.354 41 306.578 39.92 306.578 36.656V32.48C306.578 29.816 308.474 28.712 312.218 28.712H321.026C324.17 28.712 325.346 29.744 325.346 31.976V33.128C325.346 35.456 324.506 36.056 321.506 36.056H312.554V36.32C312.554 37.16 312.89 37.28 314.33 37.28H324.602V41ZM312.554 33.656H318.53C319.178 33.656 319.442 33.536 319.442 33.152V33.008C319.442 32.624 319.178 32.48 318.53 32.48H313.178C312.77 32.48 312.554 32.672 312.554 33.032V33.656ZM339.434 41H331.922L325.274 28.712H332.426L335.93 36.224L339.602 28.712H346.154L339.434 41ZM363.954 41H351.978C347.706 41 345.93 39.92 345.93 36.656V32.48C345.93 29.816 347.826 28.712 351.57 28.712H360.378C363.522 28.712 364.698 29.744 364.698 31.976V33.128C364.698 35.456 363.858 36.056 360.858 36.056H351.906V36.32C351.906 37.16 352.242 37.28 353.682 37.28H363.954V41ZM351.906 33.656H357.882C358.53 33.656 358.794 33.536 358.794 33.152V33.008C358.794 32.624 358.53 32.48 357.882 32.48H352.53C352.122 32.48 351.906 32.672 351.906 33.032V33.656ZM372.243 41H366.195V25.136H372.243V41ZM400.796 41H381.476V34.808C381.476 32.408 383.036 31.112 386.636 31.112H393.596C394.388 31.112 394.724 30.872 394.724 30.224V29.984C394.724 29.36 394.388 29.12 393.596 29.12H389.276C387.908 29.12 387.5 29.336 387.5 29.936V30.08H381.476V28.88C381.476 25.712 383.06 25.136 387.596 25.136H394.724C399.164 25.136 400.796 25.712 400.796 29.12V31.448C400.796 33.824 399.452 35.048 394.964 35.048H388.388C387.812 35.048 387.5 35.312 387.5 35.84V36.968H400.796V41Z" fill="white"/>
<rect x="551.375" y="58.375" width="140.25" height="25.25" rx="12.625" fill="#111111" stroke="white" stroke-width="0.75"/>
<path d="M574.144 66.5455H575.875L578.885 73.8949H578.996L582.006 66.5455H583.737V76H582.38V69.1584H582.292L579.504 75.9862H578.377L575.589 69.1538H575.501V76H574.144V66.5455ZM587.504 76.157C587.054 76.157 586.648 76.0739 586.285 75.9077C585.922 75.7384 585.634 75.4937 585.422 75.1737C585.212 74.8536 585.108 74.4612 585.108 73.9964C585.108 73.5964 585.185 73.267 585.339 73.0085C585.492 72.75 585.7 72.5453 585.962 72.3945C586.223 72.2437 586.516 72.1299 586.839 72.0529C587.162 71.976 587.491 71.9175 587.827 71.8775C588.252 71.8282 588.596 71.7882 588.861 71.7575C589.126 71.7236 589.318 71.6697 589.438 71.5959C589.558 71.522 589.618 71.402 589.618 71.2358V71.2035C589.618 70.8003 589.504 70.4879 589.276 70.2663C589.052 70.0447 588.716 69.9339 588.27 69.9339C587.805 69.9339 587.439 70.037 587.171 70.2433C586.907 70.4464 586.724 70.6726 586.622 70.9219L585.325 70.6264C585.479 70.1955 585.703 69.8478 585.999 69.5831C586.297 69.3153 586.64 69.1214 587.028 69.0014C587.416 68.8783 587.824 68.8168 588.252 68.8168C588.535 68.8168 588.835 68.8506 589.152 68.9183C589.472 68.983 589.77 69.103 590.047 69.2784C590.327 69.4538 590.557 69.7047 590.735 70.0309C590.914 70.354 591.003 70.7741 591.003 71.2912V76H589.655V75.0305H589.6C589.51 75.209 589.376 75.3845 589.198 75.5568C589.019 75.7292 588.79 75.8723 588.51 75.9862C588.23 76.1 587.895 76.157 587.504 76.157ZM587.804 75.049C588.185 75.049 588.512 74.9736 588.782 74.8228C589.056 74.672 589.264 74.475 589.406 74.2319C589.55 73.9857 589.623 73.7225 589.623 73.4425V72.5284C589.573 72.5777 589.478 72.6238 589.336 72.6669C589.198 72.7069 589.039 72.7423 588.861 72.7731C588.682 72.8008 588.509 72.8269 588.339 72.8516C588.17 72.8731 588.028 72.8916 587.915 72.907C587.647 72.9408 587.402 72.9978 587.181 73.0778C586.962 73.1578 586.787 73.2732 586.654 73.424C586.525 73.5717 586.46 73.7687 586.46 74.0149C586.46 74.3565 586.587 74.6151 586.839 74.7905C587.091 74.9628 587.413 75.049 587.804 75.049ZM592.581 76V68.9091H593.916V70.0355H593.99C594.119 69.6539 594.347 69.3538 594.673 69.1353C595.002 68.9137 595.374 68.8029 595.79 68.8029C595.876 68.8029 595.978 68.806 596.095 68.8121C596.215 68.8183 596.309 68.826 596.376 68.8352V70.1555C596.321 70.1402 596.222 70.1232 596.081 70.1048C595.939 70.0832 595.798 70.0724 595.656 70.0724C595.33 70.0724 595.039 70.1417 594.784 70.2802C594.531 70.4156 594.331 70.6049 594.183 70.848C594.036 71.0881 593.962 71.362 593.962 71.6697V76H592.581ZM600.473 76V74.9659L603.672 71.6513C604.014 71.2912 604.295 70.9757 604.517 70.7049C604.741 70.431 604.909 70.1709 605.02 69.9247C605.131 69.6785 605.186 69.4169 605.186 69.1399C605.186 68.826 605.112 68.5552 604.965 68.3274C604.817 68.0966 604.615 67.9196 604.36 67.7965C604.104 67.6703 603.817 67.6072 603.497 67.6072C603.158 67.6072 602.863 67.6765 602.61 67.815C602.358 67.9535 602.164 68.1489 602.028 68.4013C601.893 68.6536 601.825 68.9491 601.825 69.2876H600.463C600.463 68.7121 600.596 68.2089 600.86 67.7781C601.125 67.3472 601.488 67.0133 601.95 66.7763C602.412 66.5362 602.936 66.4162 603.524 66.4162C604.118 66.4162 604.641 66.5347 605.094 66.7717C605.549 67.0056 605.905 67.3256 606.16 67.7319C606.416 68.1351 606.543 68.5906 606.543 69.0984C606.543 69.4492 606.477 69.7924 606.345 70.1278C606.216 70.4633 605.989 70.8372 605.666 71.2496C605.343 71.659 604.894 72.156 604.318 72.7408L602.439 74.7074V74.7766H606.696V76H600.473ZM611.306 76.1293C610.728 76.1293 610.207 76.0185 609.746 75.7969C609.287 75.5722 608.921 75.2644 608.647 74.8736C608.373 74.4827 608.227 74.0365 608.208 73.5348H609.593C609.627 73.9411 609.807 74.275 610.134 74.5366C610.46 74.7982 610.851 74.929 611.306 74.929C611.669 74.929 611.991 74.8459 612.271 74.6797C612.554 74.5104 612.776 74.2781 612.936 73.9826C613.099 73.6871 613.18 73.3501 613.18 72.9716C613.18 72.5869 613.097 72.2437 612.931 71.9421C612.765 71.6405 612.536 71.4035 612.243 71.2312C611.954 71.0588 611.622 70.9711 611.246 70.968C610.96 70.968 610.672 71.0173 610.383 71.1158C610.094 71.2143 609.86 71.3435 609.681 71.5036L608.375 71.3097L608.906 66.5455H614.104V67.7688H610.092L609.792 70.4141H609.847C610.032 70.2356 610.277 70.0863 610.581 69.9663C610.889 69.8462 611.218 69.7862 611.569 69.7862C612.145 69.7862 612.657 69.9232 613.107 70.1971C613.559 70.471 613.914 70.8449 614.173 71.3189C614.435 71.7898 614.564 72.3314 614.561 72.9439C614.564 73.5563 614.425 74.1026 614.145 74.5827C613.868 75.0629 613.484 75.4414 612.991 75.7184C612.502 75.9923 611.94 76.1293 611.306 76.1293ZM625.076 75.5799L624.245 74.7582L627.131 71.8729H619.883V70.6726H627.131L624.245 67.7919L625.076 66.9656L629.384 71.2727L625.076 75.5799ZM634.62 66.5455H636.352L639.361 73.8949H639.472L642.482 66.5455H644.213V76H642.856V69.1584H642.768L639.98 75.9862H638.854L636.065 69.1538H635.978V76H634.62V66.5455ZM647.98 76.157C647.531 76.157 647.125 76.0739 646.761 75.9077C646.398 75.7384 646.11 75.4937 645.898 75.1737C645.689 74.8536 645.584 74.4612 645.584 73.9964C645.584 73.5964 645.661 73.267 645.815 73.0085C645.969 72.75 646.177 72.5453 646.438 72.3945C646.7 72.2437 646.992 72.1299 647.315 72.0529C647.638 71.976 647.968 71.9175 648.303 71.8775C648.728 71.8282 649.073 71.7882 649.337 71.7575C649.602 71.7236 649.794 71.6697 649.914 71.5959C650.034 71.522 650.094 71.402 650.094 71.2358V71.2035C650.094 70.8003 649.981 70.4879 649.753 70.2663C649.528 70.0447 649.193 69.9339 648.746 69.9339C648.282 69.9339 647.915 70.037 647.648 70.2433C647.383 70.4464 647.2 70.6726 647.098 70.9219L645.801 70.6264C645.955 70.1955 646.18 69.8478 646.475 69.5831C646.774 69.3153 647.117 69.1214 647.505 69.0014C647.892 68.8783 648.3 68.8168 648.728 68.8168C649.011 68.8168 649.311 68.8506 649.628 68.9183C649.948 68.983 650.247 69.103 650.524 69.2784C650.804 69.4538 651.033 69.7047 651.212 70.0309C651.39 70.354 651.479 70.7741 651.479 71.2912V76H650.131V75.0305H650.076C649.987 75.209 649.853 75.3845 649.674 75.5568C649.496 75.7292 649.267 75.8723 648.986 75.9862C648.706 76.1 648.371 76.157 647.98 76.157ZM648.28 75.049C648.662 75.049 648.988 74.9736 649.259 74.8228C649.533 74.672 649.741 74.475 649.882 74.2319C650.027 73.9857 650.099 73.7225 650.099 73.4425V72.5284C650.05 72.5777 649.954 72.6238 649.813 72.6669C649.674 72.7069 649.516 72.7423 649.337 72.7731C649.159 72.8008 648.985 72.8269 648.816 72.8516C648.646 72.8731 648.505 72.8916 648.391 72.907C648.123 72.9408 647.879 72.9978 647.657 73.0778C647.438 73.1578 647.263 73.2732 647.131 73.424C647.001 73.5717 646.937 73.7687 646.937 74.0149C646.937 74.3565 647.063 74.6151 647.315 74.7905C647.568 74.9628 647.889 75.049 648.28 75.049ZM653.677 78.6591C653.47 78.6591 653.283 78.6422 653.113 78.6083C652.944 78.5775 652.818 78.5437 652.735 78.5067L653.067 77.3757C653.32 77.4434 653.544 77.4727 653.741 77.4634C653.938 77.4542 654.112 77.3803 654.263 77.2418C654.417 77.1033 654.552 76.8771 654.669 76.5632L654.84 76.0923L652.245 68.9091H653.723L655.518 74.4119H655.592L657.388 68.9091H658.87L655.948 76.9464C655.812 77.3157 655.64 77.6281 655.431 77.8835C655.221 78.142 654.972 78.3359 654.683 78.4652C654.394 78.5945 654.058 78.6591 653.677 78.6591ZM666.19 76.1293C665.611 76.1293 665.091 76.0185 664.63 75.7969C664.171 75.5722 663.805 75.2644 663.531 74.8736C663.257 74.4827 663.111 74.0365 663.092 73.5348H664.477C664.511 73.9411 664.691 74.275 665.017 74.5366C665.344 74.7982 665.734 74.929 666.19 74.929C666.553 74.929 666.875 74.8459 667.155 74.6797C667.438 74.5104 667.66 74.2781 667.82 73.9826C667.983 73.6871 668.064 73.3501 668.064 72.9716C668.064 72.5869 667.981 72.2437 667.815 71.9421C667.649 71.6405 667.419 71.4035 667.127 71.2312C666.838 71.0588 666.505 70.9711 666.13 70.968C665.844 70.968 665.556 71.0173 665.267 71.1158C664.977 71.2143 664.743 71.3435 664.565 71.5036L663.259 71.3097L663.789 66.5455H668.988V67.7688H664.976L664.676 70.4141H664.731C664.916 70.2356 665.161 70.0863 665.465 69.9663C665.773 69.8462 666.102 69.7862 666.453 69.7862C667.029 69.7862 667.541 69.9232 667.99 70.1971C668.443 70.471 668.798 70.8449 669.057 71.3189C669.318 71.7898 669.448 72.3314 669.445 72.9439C669.448 73.5563 669.309 74.1026 669.029 74.5827C668.752 75.0629 668.367 75.4414 667.875 75.7184C667.386 75.9923 666.824 76.1293 666.19 76.1293Z" fill="white"/>
<path d="M581.744 41H567.44V25.136H573.536V36.968H581.744V41ZM600.754 41H588.778C584.506 41 582.73 39.92 582.73 36.656V32.48C582.73 29.816 584.626 28.712 588.37 28.712H597.178C600.322 28.712 601.498 29.744 601.498 31.976V33.128C601.498 35.456 600.658 36.056 597.658 36.056H588.706V36.32C588.706 37.16 589.042 37.28 590.482 37.28H600.754V41ZM588.706 33.656H594.682C595.33 33.656 595.594 33.536 595.594 33.152V33.008C595.594 32.624 595.33 32.48 594.682 32.48H589.33C588.922 32.48 588.706 32.672 588.706 33.032V33.656ZM615.586 41H608.074L601.426 28.712H608.578L612.082 36.224L615.754 28.712H622.306L615.586 41ZM640.107 41H628.131C623.859 41 622.083 39.92 622.083 36.656V32.48C622.083 29.816 623.979 28.712 627.723 28.712H636.531C639.675 28.712 640.851 29.744 640.851 31.976V33.128C640.851 35.456 640.011 36.056 637.011 36.056H628.059V36.32C628.059 37.16 628.395 37.28 629.835 37.28H640.107V41ZM628.059 33.656H634.035C634.683 33.656 634.947 33.536 634.947 33.152V33.008C634.947 32.624 634.683 32.48 634.035 32.48H628.683C628.275 32.48 628.059 32.672 628.059 33.032V33.656ZM648.396 41H642.348V25.136H648.396V41ZM676.684 35.312V37.208C676.684 40.352 675.076 41 670.588 41H663.436C658.876 41 657.364 40.352 657.364 37.208V35.456H663.412V35.72C663.412 36.776 663.556 36.968 665.164 36.968H669.796C670.492 36.968 670.732 36.68 670.732 36.08V35.84C670.732 35.096 670.42 34.904 669.82 34.904H664.468V31.232H669.676C670.492 31.232 670.732 30.944 670.732 30.296V30.056C670.732 29.408 670.42 29.168 669.676 29.168H665.212C663.7 29.168 663.412 29.36 663.412 30.392V30.656H657.364V28.928C657.364 25.784 658.876 25.136 663.436 25.136H670.588C675.1 25.136 676.564 25.832 676.564 28.928V30.8C676.564 32.072 675.748 32.72 674.884 32.984C675.796 33.2 676.684 33.896 676.684 35.312Z" fill="white"/>
<rect x="805.375" y="58.375" width="140.25" height="25.25" rx="12.625" fill="#111111" stroke="white" stroke-width="0.75"/>
<path d="M825.296 66.5455H827.028L830.038 73.8949H830.148L833.158 66.5455H834.889V76H833.532V69.1584H833.444L830.656 75.9862H829.53L826.741 69.1538H826.654V76H825.296V66.5455ZM838.656 76.157C838.207 76.157 837.801 76.0739 837.437 75.9077C837.074 75.7384 836.786 75.4937 836.574 75.1737C836.365 74.8536 836.26 74.4612 836.26 73.9964C836.26 73.5964 836.337 73.267 836.491 73.0085C836.645 72.75 836.853 72.5453 837.114 72.3945C837.376 72.2437 837.668 72.1299 837.991 72.0529C838.315 71.976 838.644 71.9175 838.979 71.8775C839.404 71.8282 839.749 71.7882 840.013 71.7575C840.278 71.7236 840.47 71.6697 840.59 71.5959C840.71 71.522 840.77 71.402 840.77 71.2358V71.2035C840.77 70.8003 840.657 70.4879 840.429 70.2663C840.204 70.0447 839.869 69.9339 839.422 69.9339C838.958 69.9339 838.592 70.037 838.324 70.2433C838.059 70.4464 837.876 70.6726 837.774 70.9219L836.477 70.6264C836.631 70.1955 836.856 69.8478 837.151 69.5831C837.45 69.3153 837.793 69.1214 838.181 69.0014C838.568 68.8783 838.976 68.8168 839.404 68.8168C839.687 68.8168 839.987 68.8506 840.304 68.9183C840.624 68.983 840.923 69.103 841.2 69.2784C841.48 69.4538 841.709 69.7047 841.888 70.0309C842.066 70.354 842.155 70.7741 842.155 71.2912V76H840.807V75.0305H840.752C840.663 75.209 840.529 75.3845 840.35 75.5568C840.172 75.7292 839.943 75.8723 839.663 75.9862C839.382 76.1 839.047 76.157 838.656 76.157ZM838.956 75.049C839.338 75.049 839.664 74.9736 839.935 74.8228C840.209 74.672 840.417 74.475 840.558 74.2319C840.703 73.9857 840.775 73.7225 840.775 73.4425V72.5284C840.726 72.5777 840.63 72.6238 840.489 72.6669C840.35 72.7069 840.192 72.7423 840.013 72.7731C839.835 72.8008 839.661 72.8269 839.492 72.8516C839.322 72.8731 839.181 72.8916 839.067 72.907C838.799 72.9408 838.555 72.9978 838.333 73.0778C838.114 73.1578 837.939 73.2732 837.807 73.424C837.677 73.5717 837.613 73.7687 837.613 74.0149C837.613 74.3565 837.739 74.6151 837.991 74.7905C838.244 74.9628 838.565 75.049 838.956 75.049ZM844.353 78.6591C844.146 78.6591 843.959 78.6422 843.789 78.6083C843.62 78.5775 843.494 78.5437 843.411 78.5067L843.743 77.3757C843.996 77.4434 844.22 77.4727 844.417 77.4634C844.614 77.4542 844.788 77.3803 844.939 77.2418C845.093 77.1033 845.228 76.8771 845.345 76.5632L845.516 76.0923L842.921 68.9091H844.399L846.195 74.4119H846.268L848.064 68.9091H849.546L846.624 76.9464C846.488 77.3157 846.316 77.6281 846.107 77.8835C845.898 78.142 845.648 78.3359 845.359 78.4652C845.07 78.5945 844.734 78.6591 844.353 78.6591ZM853.745 76V74.9659L856.945 71.6513C857.286 71.2912 857.568 70.9757 857.789 70.7049C858.014 70.431 858.182 70.1709 858.293 69.9247C858.403 69.6785 858.459 69.4169 858.459 69.1399C858.459 68.826 858.385 68.5552 858.237 68.3274C858.089 68.0966 857.888 67.9196 857.632 67.7965C857.377 67.6703 857.089 67.6072 856.769 67.6072C856.431 67.6072 856.135 67.6765 855.883 67.815C855.63 67.9535 855.436 68.1489 855.301 68.4013C855.166 68.6536 855.098 68.9491 855.098 69.2876H853.736C853.736 68.7121 853.868 68.2089 854.133 67.7781C854.398 67.3472 854.761 67.0133 855.223 66.7763C855.684 66.5362 856.209 66.4162 856.797 66.4162C857.391 66.4162 857.914 66.5347 858.366 66.7717C858.822 67.0056 859.177 67.3256 859.433 67.7319C859.688 68.1351 859.816 68.5906 859.816 69.0984C859.816 69.4492 859.75 69.7924 859.617 70.1278C859.488 70.4633 859.262 70.8372 858.939 71.2496C858.616 71.659 858.166 72.156 857.591 72.7408L855.712 74.7074V74.7766H859.968V76H853.745ZM864.759 76.1293C864.337 76.1231 863.922 76.0462 863.512 75.8984C863.106 75.7507 862.737 75.5045 862.404 75.1598C862.072 74.8151 861.806 74.3519 861.606 73.7702C861.409 73.1886 861.31 72.4622 861.31 71.5913C861.31 70.7665 861.392 70.034 861.555 69.3938C861.721 68.7537 861.96 68.2135 862.27 67.7734C862.581 67.3303 862.957 66.9933 863.397 66.7624C863.837 66.5316 864.331 66.4162 864.879 66.4162C865.442 66.4162 865.942 66.527 866.379 66.7486C866.816 66.9702 867.17 67.2764 867.441 67.6673C867.715 68.0581 867.889 68.5028 867.963 69.0014H866.555C866.459 68.6075 866.27 68.2859 865.987 68.0366C865.704 67.7873 865.334 67.6626 864.879 67.6626C864.186 67.6626 863.646 67.9643 863.258 68.5675C862.874 69.1707 862.68 70.0094 862.677 71.0835H862.746C862.909 70.8157 863.109 70.5879 863.346 70.4002C863.586 70.2094 863.854 70.0632 864.149 69.9616C864.448 69.857 864.762 69.8047 865.091 69.8047C865.639 69.8047 866.134 69.9386 866.578 70.2063C867.024 70.471 867.379 70.8372 867.644 71.305C867.909 71.7728 868.041 72.3084 868.041 72.9116C868.041 73.5148 867.904 74.0611 867.63 74.5504C867.359 75.0398 866.978 75.4276 866.485 75.7138C865.993 75.9969 865.417 76.1354 864.759 76.1293ZM864.754 74.929C865.117 74.929 865.442 74.8397 865.728 74.6612C866.014 74.4827 866.241 74.2427 866.407 73.9411C866.573 73.6394 866.656 73.3024 866.656 72.93C866.656 72.5669 866.575 72.236 866.411 71.9375C866.251 71.639 866.03 71.402 865.747 71.2266C865.467 71.0511 865.147 70.9634 864.786 70.9634C864.513 70.9634 864.259 71.0157 864.025 71.1204C863.794 71.225 863.591 71.3697 863.415 71.5543C863.24 71.739 863.101 71.9513 863 72.1914C862.901 72.4284 862.852 72.6792 862.852 72.9439C862.852 73.2978 862.934 73.6256 863.097 73.9272C863.263 74.2288 863.489 74.4719 863.775 74.6566C864.065 74.8382 864.391 74.929 864.754 74.929ZM878.552 75.5799L877.721 74.7582L880.606 71.8729H873.359V70.6726H880.606L877.721 67.7919L878.552 66.9656L882.859 71.2727L878.552 75.5799ZM891.771 66.5455H893.193V73.2486C893.193 73.8549 893.073 74.3735 892.833 74.8043C892.596 75.2352 892.262 75.5645 891.831 75.7923C891.4 76.0169 890.895 76.1293 890.317 76.1293C889.784 76.1293 889.306 76.0323 888.881 75.8384C888.459 75.6445 888.125 75.3629 887.879 74.9936C887.636 74.6212 887.514 74.1688 887.514 73.6364H888.932C888.932 73.898 888.992 74.1242 889.112 74.315C889.235 74.5058 889.402 74.6551 889.615 74.7628C889.83 74.8674 890.077 74.9197 890.353 74.9197C890.655 74.9197 890.911 74.8567 891.12 74.7305C891.332 74.6012 891.494 74.4119 891.605 74.1626C891.715 73.9134 891.771 73.6087 891.771 73.2486V66.5455ZM899.39 73.0593V68.9091H900.775V76H899.418V74.772H899.344C899.181 75.1506 898.919 75.466 898.559 75.7184C898.202 75.9677 897.757 76.0923 897.225 76.0923C896.769 76.0923 896.366 75.9923 896.015 75.7923C895.668 75.5891 895.394 75.2891 895.194 74.892C894.997 74.495 894.898 74.0041 894.898 73.4194V68.9091H896.278V73.2532C896.278 73.7364 896.412 74.1211 896.68 74.4073C896.948 74.6935 897.296 74.8366 897.723 74.8366C897.982 74.8366 898.239 74.772 898.494 74.6428C898.753 74.5135 898.967 74.3181 899.136 74.0565C899.308 73.7949 899.393 73.4625 899.39 73.0593ZM903.75 71.7898V76H902.37V68.9091H903.694V70.0632H903.782C903.945 69.6877 904.201 69.3861 904.549 69.1584C904.899 68.9306 905.341 68.8168 905.873 68.8168C906.357 68.8168 906.78 68.9183 907.143 69.1214C907.506 69.3215 907.788 69.62 907.988 70.017C908.188 70.4141 908.288 70.9049 908.288 71.4897V76H906.908V71.6559C906.908 71.1419 906.774 70.7403 906.506 70.451C906.238 70.1586 905.87 70.0124 905.403 70.0124C905.082 70.0124 904.798 70.0817 904.549 70.2202C904.302 70.3587 904.107 70.5618 903.962 70.8295C903.821 71.0942 903.75 71.4143 903.75 71.7898ZM912.935 76.1431C912.237 76.1431 911.635 75.9938 911.13 75.6953C910.628 75.3937 910.241 74.9705 909.967 74.4258C909.696 73.878 909.561 73.2363 909.561 72.5007C909.561 71.7744 909.696 71.1342 909.967 70.5803C910.241 70.0263 910.622 69.5939 911.112 69.283C911.604 68.9722 912.18 68.8168 912.838 68.8168C913.238 68.8168 913.626 68.8829 914.002 69.0153C914.377 69.1476 914.714 69.3554 915.013 69.6385C915.311 69.9216 915.547 70.2894 915.719 70.7418C915.891 71.1912 915.977 71.7375 915.977 72.3807V72.87H910.341V71.8359H914.625C914.625 71.4728 914.551 71.1512 914.403 70.8711C914.255 70.5879 914.048 70.3648 913.78 70.2017C913.515 70.0386 913.204 69.957 912.847 69.957C912.46 69.957 912.121 70.0524 911.832 70.2433C911.546 70.431 911.324 70.6772 911.167 70.9819C911.013 71.2835 910.936 71.6113 910.936 71.9652V72.7731C910.936 73.247 911.019 73.6502 911.186 73.9826C911.355 74.315 911.59 74.5689 911.892 74.7443C912.193 74.9167 912.546 75.0028 912.949 75.0028C913.211 75.0028 913.449 74.9659 913.665 74.892C913.88 74.8151 914.066 74.7012 914.223 74.5504C914.38 74.3996 914.5 74.2134 914.583 73.9918L915.89 74.2273C915.785 74.612 915.597 74.949 915.327 75.2383C915.059 75.5245 914.722 75.7476 914.316 75.9077C913.912 76.0646 913.452 76.1431 912.935 76.1431ZM923.532 76.1293C922.953 76.1293 922.433 76.0185 921.971 75.7969C921.513 75.5722 921.146 75.2644 920.873 74.8736C920.599 74.4827 920.452 74.0365 920.434 73.5348H921.819C921.853 73.9411 922.033 74.275 922.359 74.5366C922.685 74.7982 923.076 74.929 923.532 74.929C923.895 74.929 924.216 74.8459 924.497 74.6797C924.78 74.5104 925.001 74.2781 925.161 73.9826C925.324 73.6871 925.406 73.3501 925.406 72.9716C925.406 72.5869 925.323 72.2437 925.157 71.9421C924.99 71.6405 924.761 71.4035 924.469 71.2312C924.18 71.0588 923.847 70.9711 923.472 70.968C923.185 70.968 922.898 71.0173 922.608 71.1158C922.319 71.2143 922.085 71.3435 921.907 71.5036L920.6 71.3097L921.131 66.5455H926.329V67.7688H922.318L922.017 70.4141H922.073C922.258 70.2356 922.502 70.0863 922.807 69.9663C923.115 69.8462 923.444 69.7862 923.795 69.7862C924.37 69.7862 924.883 69.9232 925.332 70.1971C925.784 70.471 926.14 70.8449 926.398 71.3189C926.66 71.7898 926.789 72.3314 926.786 72.9439C926.789 73.5563 926.651 74.1026 926.371 74.5827C926.094 75.0629 925.709 75.4414 925.217 75.7184C924.727 75.9923 924.166 76.1293 923.532 76.1293Z" fill="white"/>
<path d="M836.642 41H822.338V25.136H828.434V36.968H836.642V41ZM855.653 41H843.677C839.405 41 837.629 39.92 837.629 36.656V32.48C837.629 29.816 839.525 28.712 843.269 28.712H852.077C855.221 28.712 856.397 29.744 856.397 31.976V33.128C856.397 35.456 855.557 36.056 852.557 36.056H843.605V36.32C843.605 37.16 843.941 37.28 845.381 37.28H855.653V41ZM843.605 33.656H849.581C850.229 33.656 850.493 33.536 850.493 33.152V33.008C850.493 32.624 850.229 32.48 849.581 32.48H844.229C843.821 32.48 843.605 32.672 843.605 33.032V33.656ZM870.484 41H862.972L856.324 28.712H863.476L866.98 36.224L870.652 28.712H877.204L870.484 41ZM895.005 41H883.029C878.757 41 876.981 39.92 876.981 36.656V32.48C876.981 29.816 878.877 28.712 882.621 28.712H891.429C894.573 28.712 895.749 29.744 895.749 31.976V33.128C895.749 35.456 894.909 36.056 891.909 36.056H882.957V36.32C882.957 37.16 883.293 37.28 884.733 37.28H895.005V41ZM882.957 33.656H888.933C889.581 33.656 889.845 33.536 889.845 33.152V33.008C889.845 32.624 889.581 32.48 888.933 32.48H883.581C883.173 32.48 882.957 32.672 882.957 33.032V33.656ZM903.294 41H897.246V25.136H903.294V41ZM931.367 38.552H929.087V41H923.039V38.552H911.999V34.76L921.911 25.136H929.087V34.592H931.367V38.552ZM923.039 34.592V30.608L919.055 34.592H923.039Z" fill="white"/>
<rect x="0.375" y="58.375" width="140.25" height="25.25" rx="12.625" fill="#111111" stroke="white" stroke-width="0.75"/>
<path d="M27.0477 76V66.5455H32.9107V67.7734H28.4742V70.6541H32.4906V71.8775H28.4742V76H27.0477ZM36.8297 76.1431C36.1311 76.1431 35.5294 75.9938 35.0247 75.6953C34.523 75.3937 34.1352 74.9705 33.8613 74.4258C33.5905 73.878 33.4551 73.2363 33.4551 72.5007C33.4551 71.7744 33.5905 71.1342 33.8613 70.5803C34.1352 70.0263 34.5169 69.5939 35.0062 69.283C35.4986 68.9722 36.0742 68.8168 36.7328 68.8168C37.1329 68.8168 37.5207 68.8829 37.8961 69.0153C38.2716 69.1476 38.6086 69.3554 38.9071 69.6385C39.2057 69.9216 39.4411 70.2894 39.6135 70.7418C39.7858 71.1912 39.872 71.7375 39.872 72.3807V72.87H34.2353V71.8359H38.5194C38.5194 71.4728 38.4455 71.1512 38.2978 70.8711C38.15 70.5879 37.9423 70.3648 37.6745 70.2017C37.4099 70.0386 37.099 69.957 36.742 69.957C36.3542 69.957 36.0157 70.0524 35.7264 70.2433C35.4402 70.431 35.2186 70.6772 35.0616 70.9819C34.9077 71.2835 34.8308 71.6113 34.8308 71.9652V72.7731C34.8308 73.247 34.9139 73.6502 35.0801 73.9826C35.2494 74.315 35.4848 74.5689 35.7864 74.7443C36.088 74.9167 36.4404 75.0028 36.8436 75.0028C37.1052 75.0028 37.3437 74.9659 37.5591 74.892C37.7746 74.8151 37.9608 74.7012 38.1177 74.5504C38.2747 74.3996 38.3947 74.2134 38.4778 73.9918L39.7843 74.2273C39.6796 74.612 39.4919 74.949 39.2211 75.2383C38.9533 75.5245 38.6163 75.7476 38.2101 75.9077C37.8069 76.0646 37.3468 76.1431 36.8297 76.1431ZM41.2543 76V66.5455H42.6346V70.0586H42.7177C42.7977 69.9109 42.9132 69.7401 43.064 69.5462C43.2148 69.3523 43.424 69.183 43.6918 69.0384C43.9596 68.8906 44.3135 68.8168 44.7536 68.8168C45.326 68.8168 45.8369 68.9614 46.2863 69.2507C46.7356 69.54 47.088 69.957 47.3434 70.5018C47.602 71.0465 47.7312 71.7021 47.7312 72.4684C47.7312 73.2347 47.6035 73.8918 47.348 74.4396C47.0926 74.9844 46.7418 75.4045 46.2955 75.6999C45.8492 75.9923 45.3399 76.1385 44.7674 76.1385C44.3366 76.1385 43.9842 76.0662 43.7103 75.9215C43.4394 75.7769 43.2271 75.6076 43.0732 75.4137C42.9193 75.2198 42.8008 75.0475 42.7177 74.8967H42.6023V76H41.2543ZM42.6069 72.4545C42.6069 72.9531 42.6793 73.3902 42.8239 73.7656C42.9686 74.1411 43.1778 74.435 43.4517 74.6474C43.7257 74.8567 44.0611 74.9613 44.4581 74.9613C44.8705 74.9613 45.2152 74.852 45.4922 74.6335C45.7692 74.4119 45.9785 74.1119 46.1201 73.7333C46.2647 73.3548 46.337 72.9285 46.337 72.4545C46.337 71.9867 46.2663 71.5666 46.1247 71.1942C45.9862 70.8219 45.7769 70.5279 45.4968 70.3125C45.2199 70.0971 44.8736 69.9893 44.4581 69.9893C44.058 69.9893 43.7195 70.0924 43.4425 70.2987C43.1686 70.5049 42.9609 70.7926 42.8193 71.1619C42.6777 71.5312 42.6069 71.9621 42.6069 72.4545ZM55.7702 66.5455V76H54.3391V67.9766H54.2837L52.0216 69.4538V68.0874L54.3806 66.5455H55.7702ZM67.1572 75.5799L66.3262 74.7582L69.2115 71.8729H61.9637V70.6726H69.2115L66.3262 67.7919L67.1572 66.9656L71.4644 71.2727L67.1572 75.5799ZM76.7011 76V66.5455H82.5641V67.7734H78.1276V70.6541H82.144V71.8775H78.1276V76H76.7011ZM86.4831 76.1431C85.7845 76.1431 85.1828 75.9938 84.6781 75.6953C84.1764 75.3937 83.7886 74.9705 83.5147 74.4258C83.2439 73.878 83.1085 73.2363 83.1085 72.5007C83.1085 71.7744 83.2439 71.1342 83.5147 70.5803C83.7886 70.0263 84.1703 69.5939 84.6596 69.283C85.152 68.9722 85.7276 68.8168 86.3862 68.8168C86.7863 68.8168 87.1741 68.8829 87.5495 69.0153C87.925 69.1476 88.262 69.3554 88.5605 69.6385C88.8591 69.9216 89.0945 70.2894 89.2669 70.7418C89.4392 71.1912 89.5254 71.7375 89.5254 72.3807V72.87H83.8887V71.8359H88.1728C88.1728 71.4728 88.0989 71.1512 87.9512 70.8711C87.8034 70.5879 87.5957 70.3648 87.3279 70.2017C87.0633 70.0386 86.7524 69.957 86.3954 69.957C86.0076 69.957 85.6691 70.0524 85.3798 70.2433C85.0936 70.431 84.872 70.6772 84.715 70.9819C84.5611 71.2835 84.4842 71.6113 84.4842 71.9652V72.7731C84.4842 73.247 84.5673 73.6502 84.7335 73.9826C84.9028 74.315 85.1382 74.5689 85.4398 74.7443C85.7414 74.9167 86.0938 75.0028 86.497 75.0028C86.7586 75.0028 86.9971 74.9659 87.2125 74.892C87.428 74.8151 87.6142 74.7012 87.7711 74.5504C87.9281 74.3996 88.0481 74.2134 88.1312 73.9918L89.4377 74.2273C89.333 74.612 89.1453 74.949 88.8745 75.2383C88.6067 75.5245 88.2697 75.7476 87.8635 75.9077C87.4603 76.0646 87.0002 76.1431 86.4831 76.1431ZM90.9077 76V66.5455H92.288V70.0586H92.3711C92.4511 69.9109 92.5665 69.7401 92.7174 69.5462C92.8682 69.3523 93.0774 69.183 93.3452 69.0384C93.613 68.8906 93.9669 68.8168 94.407 68.8168C94.9794 68.8168 95.4903 68.9614 95.9397 69.2507C96.389 69.54 96.7414 69.957 96.9968 70.5018C97.2554 71.0465 97.3846 71.7021 97.3846 72.4684C97.3846 73.2347 97.2569 73.8918 97.0014 74.4396C96.746 74.9844 96.3951 75.4045 95.9489 75.6999C95.5026 75.9923 94.9933 76.1385 94.4208 76.1385C93.99 76.1385 93.6376 76.0662 93.3637 75.9215C93.0928 75.7769 92.8805 75.6076 92.7266 75.4137C92.5727 75.2198 92.4542 75.0475 92.3711 74.8967H92.2557V76H90.9077ZM92.2603 72.4545C92.2603 72.9531 92.3326 73.3902 92.4773 73.7656C92.6219 74.1411 92.8312 74.435 93.1051 74.6474C93.379 74.8567 93.7145 74.9613 94.1115 74.9613C94.5239 74.9613 94.8686 74.852 95.1456 74.6335C95.4226 74.4119 95.6319 74.1119 95.7735 73.7333C95.9181 73.3548 95.9904 72.9285 95.9904 72.4545C95.9904 71.9867 95.9197 71.5666 95.7781 71.1942C95.6396 70.8219 95.4303 70.5279 95.1502 70.3125C94.8732 70.0971 94.527 69.9893 94.1115 69.9893C93.7114 69.9893 93.3729 70.0924 93.0959 70.2987C92.822 70.5049 92.6143 70.7926 92.4727 71.1619C92.3311 71.5312 92.2603 71.9621 92.2603 72.4545ZM105.424 66.5455V76H103.992V67.9766H103.937L101.675 69.4538V68.0874L104.034 66.5455H105.424ZM107.523 74.1534V72.9993L111.608 66.5455H112.518V68.2443H111.941L109.018 72.87V72.9439H114.618V74.1534H107.523ZM112.005 76V73.8026L112.014 73.2763V66.5455H113.367V76H112.005Z" fill="white"/>
<path d="M36.8257 41H22.5217V25.136H28.6177V36.968H36.8257V41ZM55.8363 41H43.8603C39.5883 41 37.8123 39.92 37.8123 36.656V32.48C37.8123 29.816 39.7083 28.712 43.4523 28.712H52.2603C55.4043 28.712 56.5803 29.744 56.5803 31.976V33.128C56.5803 35.456 55.7403 36.056 52.7403 36.056H43.7883V36.32C43.7883 37.16 44.1243 37.28 45.5643 37.28H55.8363V41ZM43.7883 33.656H49.7643C50.4123 33.656 50.6763 33.536 50.6763 33.152V33.008C50.6763 32.624 50.4123 32.48 49.7643 32.48H44.4123C44.0043 32.48 43.7883 32.672 43.7883 33.032V33.656ZM70.6679 41H63.1559L56.5079 28.712H63.6599L67.1639 36.224L70.8359 28.712H77.3879L70.6679 41ZM95.1888 41H83.2128C78.9408 41 77.1648 39.92 77.1648 36.656V32.48C77.1648 29.816 79.0608 28.712 82.8048 28.712H91.6128C94.7568 28.712 95.9328 29.744 95.9328 31.976V33.128C95.9328 35.456 95.0928 36.056 92.0928 36.056H83.1408V36.32C83.1408 37.16 83.4768 37.28 84.9168 37.28H95.1888V41ZM83.1408 33.656H89.1168C89.7648 33.656 90.0288 33.536 90.0288 33.152V33.008C90.0288 32.624 89.7648 32.48 89.1168 32.48H83.7648C83.3568 32.48 83.1408 32.672 83.1408 33.032V33.656ZM103.478 41H97.4298V25.136H103.478V41ZM119.478 41H113.43V29.168H111.99V25.136H119.478V41Z" fill="white"/>
<line x1="47" y1="174" x2="47" y2="199" stroke="#D9D9D9" stroke-width="2" stroke-dasharray="4 4"/>
<line x1="644" y1="174" x2="644" y2="199" stroke="#D9D9D9" stroke-width="2" stroke-dasharray="4 4"/>
<line x1="46" y1="198" x2="645" y2="198" stroke="#D9D9D9" stroke-width="2" stroke-dasharray="4 4"/>
<line x1="845" y1="174" x2="845" y2="199" stroke="#D9D9D9" stroke-width="2" stroke-dasharray="4 4"/>
<line x1="907.79" y1="174" x2="907.79" y2="199" stroke="#D9D9D9" stroke-width="2" stroke-dasharray="4 4"/>
<line x1="844" y1="198" x2="907" y2="198" stroke="#D9D9D9" stroke-width="2" stroke-dasharray="4 4"/>
<path d="M279.665 233.364V219.727H280.538V233.364H279.665ZM282.397 223.957C282.341 223.452 282.106 223.062 281.694 222.785C281.282 222.504 280.764 222.364 280.139 222.364C279.691 222.364 279.304 222.435 278.978 222.577C278.651 222.716 278.397 222.907 278.216 223.152C278.038 223.394 277.95 223.669 277.95 223.978C277.95 224.237 278.01 224.461 278.131 224.649C278.255 224.837 278.417 224.995 278.616 225.123C278.818 225.248 279.035 225.352 279.265 225.438C279.496 225.519 279.718 225.587 279.931 225.64L280.997 225.917C281.345 226.002 281.701 226.118 282.067 226.263C282.433 226.409 282.772 226.6 283.085 226.838C283.397 227.076 283.649 227.371 283.841 227.723C284.036 228.074 284.134 228.495 284.134 228.985C284.134 229.603 283.974 230.152 283.655 230.631C283.339 231.11 282.879 231.489 282.275 231.766C281.675 232.043 280.949 232.181 280.096 232.181C279.28 232.181 278.573 232.051 277.976 231.792C277.38 231.533 276.913 231.165 276.575 230.69C276.238 230.21 276.052 229.642 276.016 228.985H277.667C277.699 229.379 277.827 229.708 278.051 229.971C278.278 230.23 278.568 230.423 278.919 230.551C279.274 230.675 279.663 230.738 280.086 230.738C280.551 230.738 280.965 230.665 281.327 230.519C281.693 230.37 281.98 230.164 282.19 229.901C282.399 229.635 282.504 229.324 282.504 228.969C282.504 228.646 282.412 228.381 282.227 228.175C282.046 227.969 281.799 227.799 281.487 227.664C281.178 227.529 280.828 227.41 280.437 227.307L279.148 226.956C278.275 226.718 277.582 226.368 277.071 225.906C276.563 225.445 276.309 224.834 276.309 224.074C276.309 223.445 276.479 222.897 276.82 222.428C277.161 221.959 277.623 221.595 278.205 221.336C278.788 221.073 279.445 220.942 280.176 220.942C280.915 220.942 281.566 221.071 282.131 221.331C282.699 221.59 283.147 221.947 283.473 222.401C283.8 222.852 283.971 223.371 283.985 223.957H282.397ZM289.791 221.091V232H288.139V222.742H288.075L285.465 224.447V222.87L288.187 221.091H289.791ZM292.442 232V230.807L296.133 226.982C296.527 226.567 296.852 226.203 297.108 225.89C297.367 225.574 297.561 225.274 297.688 224.99C297.816 224.706 297.88 224.404 297.88 224.085C297.88 223.722 297.795 223.41 297.624 223.147C297.454 222.881 297.221 222.676 296.927 222.534C296.632 222.389 296.3 222.316 295.931 222.316C295.54 222.316 295.199 222.396 294.908 222.556C294.617 222.716 294.393 222.941 294.237 223.232C294.08 223.523 294.002 223.864 294.002 224.255H292.431C292.431 223.591 292.584 223.01 292.889 222.513C293.194 222.016 293.613 221.631 294.146 221.357C294.679 221.08 295.284 220.942 295.963 220.942C296.648 220.942 297.252 221.078 297.774 221.352C298.299 221.622 298.709 221.991 299.004 222.46C299.299 222.925 299.446 223.451 299.446 224.037C299.446 224.441 299.37 224.837 299.217 225.224C299.068 225.612 298.807 226.043 298.434 226.519C298.061 226.991 297.543 227.565 296.879 228.239L294.711 230.509V230.588H299.622V232H292.442ZM305.149 232.149C304.663 232.142 304.183 232.053 303.711 231.883C303.242 231.712 302.816 231.428 302.433 231.031C302.049 230.633 301.742 230.098 301.511 229.427C301.284 228.756 301.17 227.918 301.17 226.913C301.17 225.961 301.264 225.116 301.453 224.377C301.644 223.639 301.92 223.016 302.278 222.508C302.637 221.996 303.07 221.608 303.578 221.341C304.086 221.075 304.656 220.942 305.288 220.942C305.938 220.942 306.515 221.07 307.019 221.325C307.523 221.581 307.932 221.934 308.244 222.385C308.56 222.836 308.761 223.349 308.846 223.925H307.221C307.111 223.47 306.893 223.099 306.566 222.811C306.24 222.524 305.813 222.38 305.288 222.38C304.489 222.38 303.866 222.728 303.418 223.424C302.974 224.12 302.751 225.088 302.747 226.327H302.827C303.015 226.018 303.246 225.755 303.519 225.539C303.796 225.319 304.105 225.15 304.446 225.033C304.791 224.912 305.153 224.852 305.533 224.852C306.165 224.852 306.737 225.006 307.248 225.315C307.763 225.62 308.173 226.043 308.479 226.583C308.784 227.123 308.937 227.74 308.937 228.436C308.937 229.132 308.779 229.763 308.463 230.327C308.15 230.892 307.71 231.339 307.142 231.67C306.573 231.996 305.909 232.156 305.149 232.149ZM305.144 230.764C305.563 230.764 305.938 230.661 306.268 230.455C306.598 230.249 306.859 229.972 307.051 229.624C307.243 229.276 307.339 228.887 307.339 228.458C307.339 228.039 307.245 227.657 307.056 227.312C306.872 226.968 306.616 226.695 306.289 226.492C305.966 226.29 305.597 226.189 305.181 226.189C304.865 226.189 304.572 226.249 304.302 226.37C304.036 226.49 303.802 226.657 303.599 226.87C303.397 227.083 303.237 227.328 303.12 227.605C303.006 227.879 302.949 228.168 302.949 228.474C302.949 228.882 303.044 229.26 303.232 229.608C303.424 229.956 303.685 230.237 304.015 230.45C304.349 230.659 304.725 230.764 305.144 230.764ZM310.726 232V221.091H312.372V226.3H312.505L317.081 221.091H319.153L314.753 226.002L319.169 232H317.187L313.661 227.126L312.372 228.607V232H310.726ZM323.929 232V223.818H325.522V232H323.929ZM324.733 222.556C324.456 222.556 324.218 222.463 324.019 222.279C323.824 222.091 323.726 221.867 323.726 221.608C323.726 221.345 323.824 221.121 324.019 220.936C324.218 220.748 324.456 220.654 324.733 220.654C325.01 220.654 325.246 220.748 325.442 220.936C325.641 221.121 325.74 221.345 325.74 221.608C325.74 221.867 325.641 222.091 325.442 222.279C325.246 222.463 325.01 222.556 324.733 222.556ZM328.957 227.142V232H327.364V223.818H328.893V225.15H328.994C329.182 224.717 329.477 224.369 329.878 224.106C330.283 223.843 330.793 223.712 331.407 223.712C331.965 223.712 332.453 223.829 332.872 224.063C333.291 224.294 333.616 224.638 333.847 225.097C334.078 225.555 334.193 226.121 334.193 226.796V232H332.6V226.988C332.6 226.395 332.446 225.931 332.137 225.597C331.828 225.26 331.404 225.091 330.864 225.091C330.495 225.091 330.166 225.171 329.878 225.331C329.594 225.491 329.369 225.725 329.202 226.034C329.039 226.339 328.957 226.709 328.957 227.142ZM339.289 222.508V221.091H347.731V222.508H344.328V232H342.687V222.508H339.289ZM351.429 232.165C350.662 232.165 349.993 231.989 349.421 231.638C348.849 231.286 348.405 230.794 348.089 230.162C347.773 229.53 347.615 228.792 347.615 227.946C347.615 227.098 347.773 226.355 348.089 225.72C348.405 225.084 348.849 224.591 349.421 224.239C349.993 223.887 350.662 223.712 351.429 223.712C352.196 223.712 352.866 223.887 353.437 224.239C354.009 224.591 354.453 225.084 354.769 225.72C355.085 226.355 355.243 227.098 355.243 227.946C355.243 228.792 355.085 229.53 354.769 230.162C354.453 230.794 354.009 231.286 353.437 231.638C352.866 231.989 352.196 232.165 351.429 232.165ZM351.434 230.828C351.932 230.828 352.344 230.697 352.67 230.434C352.997 230.171 353.238 229.821 353.395 229.385C353.555 228.948 353.634 228.467 353.634 227.941C353.634 227.419 353.555 226.94 353.395 226.503C353.238 226.062 352.997 225.709 352.67 225.443C352.344 225.176 351.932 225.043 351.434 225.043C350.934 225.043 350.518 225.176 350.188 225.443C349.861 225.709 349.618 226.062 349.458 226.503C349.302 226.94 349.224 227.419 349.224 227.941C349.224 228.467 349.302 228.948 349.458 229.385C349.618 229.821 349.861 230.171 350.188 230.434C350.518 230.697 350.934 230.828 351.434 230.828ZM360.54 223.818V225.097H356.071V223.818H360.54ZM357.27 221.858H358.862V229.598C358.862 229.907 358.908 230.139 359.001 230.295C359.093 230.448 359.212 230.553 359.358 230.61C359.507 230.663 359.668 230.69 359.842 230.69C359.97 230.69 360.082 230.681 360.178 230.663C360.274 230.645 360.348 230.631 360.402 230.62L360.689 231.936C360.597 231.972 360.466 232.007 360.295 232.043C360.125 232.082 359.912 232.103 359.656 232.107C359.237 232.114 358.846 232.039 358.484 231.883C358.122 231.727 357.829 231.485 357.605 231.158C357.381 230.832 357.27 230.422 357.27 229.928V221.858ZM364.383 232.181C363.864 232.181 363.396 232.085 362.977 231.893C362.558 231.698 362.226 231.416 361.981 231.047C361.739 230.677 361.618 230.224 361.618 229.688C361.618 229.227 361.707 228.847 361.885 228.548C362.062 228.25 362.302 228.014 362.604 227.84C362.906 227.666 363.243 227.534 363.616 227.446C363.989 227.357 364.369 227.289 364.756 227.243C365.246 227.186 365.644 227.14 365.949 227.105C366.254 227.066 366.476 227.004 366.615 226.918C366.753 226.833 366.823 226.695 366.823 226.503V226.466C366.823 226 366.691 225.64 366.428 225.384C366.169 225.129 365.782 225.001 365.267 225.001C364.731 225.001 364.308 225.12 363.999 225.358C363.694 225.592 363.483 225.853 363.366 226.141L361.869 225.8C362.046 225.303 362.306 224.901 362.646 224.596C362.991 224.287 363.387 224.063 363.834 223.925C364.282 223.783 364.752 223.712 365.246 223.712C365.573 223.712 365.919 223.751 366.285 223.829C366.654 223.903 366.998 224.042 367.318 224.244C367.641 224.447 367.906 224.736 368.112 225.113C368.318 225.485 368.421 225.97 368.421 226.567V232H366.865V230.881H366.801C366.698 231.087 366.544 231.29 366.338 231.489C366.132 231.687 365.867 231.853 365.544 231.984C365.221 232.115 364.834 232.181 364.383 232.181ZM364.729 230.903C365.17 230.903 365.546 230.816 365.858 230.642C366.174 230.468 366.414 230.24 366.578 229.96C366.744 229.676 366.828 229.372 366.828 229.049V227.994C366.771 228.051 366.661 228.104 366.498 228.154C366.338 228.2 366.155 228.241 365.949 228.277C365.743 228.309 365.542 228.339 365.347 228.367C365.152 228.392 364.988 228.413 364.857 228.431C364.548 228.47 364.266 228.536 364.01 228.628C363.758 228.721 363.556 228.854 363.403 229.028C363.254 229.198 363.179 229.425 363.179 229.71C363.179 230.104 363.325 230.402 363.616 230.604C363.907 230.803 364.278 230.903 364.729 230.903ZM371.835 221.091V232H370.242V221.091H371.835ZM377.475 232V221.091H381.363C382.212 221.091 382.915 221.245 383.473 221.554C384.03 221.863 384.448 222.286 384.725 222.822C385.002 223.355 385.14 223.955 385.14 224.623C385.14 225.294 385 225.897 384.719 226.434C384.442 226.966 384.023 227.389 383.462 227.701C382.905 228.01 382.203 228.165 381.358 228.165H378.684V226.769H381.209C381.745 226.769 382.18 226.677 382.514 226.492C382.848 226.304 383.093 226.048 383.249 225.725C383.405 225.402 383.483 225.034 383.483 224.623C383.483 224.211 383.405 223.845 383.249 223.525C383.093 223.206 382.846 222.955 382.509 222.774C382.175 222.593 381.734 222.502 381.188 222.502H379.121V232H377.475ZM386.642 232V223.818H388.181V225.118H388.266C388.416 224.678 388.678 224.331 389.055 224.079C389.435 223.824 389.864 223.696 390.344 223.696C390.443 223.696 390.56 223.699 390.695 223.706C390.834 223.713 390.942 223.722 391.02 223.733V225.256C390.956 225.239 390.843 225.219 390.679 225.198C390.516 225.173 390.353 225.161 390.189 225.161C389.813 225.161 389.477 225.24 389.183 225.4C388.891 225.556 388.661 225.775 388.49 226.055C388.32 226.332 388.234 226.648 388.234 227.004V232H386.642ZM392.099 232V223.818H393.691V232H392.099ZM392.903 222.556C392.626 222.556 392.388 222.463 392.189 222.279C391.994 222.091 391.896 221.867 391.896 221.608C391.896 221.345 391.994 221.121 392.189 220.936C392.388 220.748 392.626 220.654 392.903 220.654C393.18 220.654 393.416 220.748 393.611 220.936C393.81 221.121 393.91 221.345 393.91 221.608C393.91 221.867 393.81 222.091 393.611 222.279C393.416 222.463 393.18 222.556 392.903 222.556ZM395.364 232V230.908L399.795 225.278V225.203H395.507V223.818H401.782V224.979L397.521 230.54V230.615H401.931V232H395.364ZM406.802 232.165C405.996 232.165 405.302 231.993 404.719 231.648C404.141 231.3 403.693 230.812 403.377 230.184C403.065 229.551 402.908 228.811 402.908 227.962C402.908 227.124 403.065 226.386 403.377 225.746C403.693 225.107 404.134 224.608 404.698 224.25C405.266 223.891 405.93 223.712 406.69 223.712C407.152 223.712 407.599 223.788 408.033 223.941C408.466 224.093 408.855 224.333 409.199 224.66C409.544 224.987 409.815 225.411 410.014 225.933C410.213 226.451 410.313 227.082 410.313 227.824V228.388H403.809V227.195H408.752C408.752 226.776 408.667 226.405 408.496 226.082C408.326 225.755 408.086 225.498 407.777 225.31C407.472 225.121 407.113 225.027 406.701 225.027C406.254 225.027 405.863 225.137 405.529 225.358C405.199 225.574 404.943 225.858 404.762 226.21C404.585 226.558 404.496 226.936 404.496 227.344V228.277C404.496 228.824 404.592 229.289 404.783 229.672C404.979 230.056 405.25 230.349 405.598 230.551C405.946 230.75 406.353 230.849 406.818 230.849C407.12 230.849 407.395 230.807 407.644 230.722C407.892 230.633 408.107 230.501 408.288 230.327C408.469 230.153 408.608 229.939 408.704 229.683L410.211 229.955C410.091 230.398 409.874 230.787 409.561 231.121C409.253 231.451 408.864 231.709 408.395 231.893C407.93 232.075 407.399 232.165 406.802 232.165ZM417.911 225.816L416.467 226.071C416.407 225.887 416.311 225.711 416.18 225.544C416.052 225.377 415.878 225.24 415.657 225.134C415.437 225.027 415.162 224.974 414.832 224.974C414.381 224.974 414.004 225.075 413.703 225.278C413.401 225.477 413.25 225.734 413.25 226.05C413.25 226.324 413.351 226.544 413.553 226.711C413.756 226.877 414.083 227.014 414.534 227.121L415.833 227.419C416.586 227.593 417.147 227.861 417.517 228.223C417.886 228.586 418.07 229.056 418.07 229.635C418.07 230.125 417.928 230.562 417.644 230.945C417.364 231.325 416.971 231.624 416.467 231.84C415.966 232.057 415.386 232.165 414.725 232.165C413.809 232.165 413.062 231.97 412.483 231.579C411.904 231.185 411.549 230.626 411.417 229.901L412.957 229.667C413.053 230.068 413.25 230.372 413.548 230.578C413.846 230.78 414.235 230.881 414.715 230.881C415.237 230.881 415.654 230.773 415.966 230.556C416.279 230.336 416.435 230.068 416.435 229.752C416.435 229.496 416.339 229.282 416.148 229.108C415.959 228.934 415.67 228.802 415.279 228.713L413.894 228.41C413.131 228.236 412.566 227.959 412.2 227.579C411.838 227.199 411.657 226.718 411.657 226.135C411.657 225.652 411.792 225.23 412.062 224.868C412.332 224.505 412.705 224.223 413.181 224.021C413.656 223.815 414.202 223.712 414.816 223.712C415.7 223.712 416.396 223.903 416.904 224.287C417.412 224.667 417.747 225.176 417.911 225.816Z" fill="white"/>
<path d="M810.654 233.364V219.727H811.527V233.364H810.654ZM813.386 223.957C813.33 223.452 813.095 223.062 812.683 222.785C812.271 222.504 811.753 222.364 811.128 222.364C810.68 222.364 810.293 222.435 809.967 222.577C809.64 222.716 809.386 222.907 809.205 223.152C809.027 223.394 808.939 223.669 808.939 223.978C808.939 224.237 808.999 224.461 809.12 224.649C809.244 224.837 809.406 224.995 809.604 225.123C809.807 225.248 810.024 225.352 810.254 225.438C810.485 225.519 810.707 225.587 810.92 225.64L811.986 225.917C812.334 226.002 812.69 226.118 813.056 226.263C813.422 226.409 813.761 226.6 814.074 226.838C814.386 227.076 814.638 227.371 814.83 227.723C815.025 228.074 815.123 228.495 815.123 228.985C815.123 229.603 814.963 230.152 814.644 230.631C814.327 231.11 813.868 231.489 813.264 231.766C812.664 232.043 811.938 232.181 811.085 232.181C810.269 232.181 809.562 232.051 808.965 231.792C808.369 231.533 807.902 231.165 807.564 230.69C807.227 230.21 807.041 229.642 807.005 228.985H808.656C808.688 229.379 808.816 229.708 809.04 229.971C809.267 230.23 809.557 230.423 809.908 230.551C810.263 230.675 810.652 230.738 811.075 230.738C811.54 230.738 811.954 230.665 812.316 230.519C812.682 230.37 812.969 230.164 813.179 229.901C813.388 229.635 813.493 229.324 813.493 228.969C813.493 228.646 813.401 228.381 813.216 228.175C813.035 227.969 812.788 227.799 812.476 227.664C812.167 227.529 811.817 227.41 811.426 227.307L810.137 226.956C809.264 226.718 808.571 226.368 808.06 225.906C807.552 225.445 807.298 224.834 807.298 224.074C807.298 223.445 807.468 222.897 807.809 222.428C808.15 221.959 808.612 221.595 809.194 221.336C809.777 221.073 810.434 220.942 811.165 220.942C811.904 220.942 812.555 221.071 813.12 221.331C813.688 221.59 814.136 221.947 814.462 222.401C814.789 222.852 814.96 223.371 814.974 223.957H813.386ZM816.641 232V230.807L820.332 226.982C820.726 226.567 821.051 226.203 821.307 225.89C821.566 225.574 821.76 225.274 821.887 224.99C822.015 224.706 822.079 224.404 822.079 224.085C822.079 223.722 821.994 223.41 821.824 223.147C821.653 222.881 821.42 222.676 821.126 222.534C820.831 222.389 820.499 222.316 820.13 222.316C819.739 222.316 819.398 222.396 819.107 222.556C818.816 222.716 818.592 222.941 818.436 223.232C818.28 223.523 818.201 223.864 818.201 224.255H816.63C816.63 223.591 816.783 223.01 817.088 222.513C817.394 222.016 817.813 221.631 818.345 221.357C818.878 221.08 819.483 220.942 820.162 220.942C820.847 220.942 821.451 221.078 821.973 221.352C822.498 221.622 822.908 221.991 823.203 222.46C823.498 222.925 823.645 223.451 823.645 224.037C823.645 224.441 823.569 224.837 823.416 225.224C823.267 225.612 823.006 226.043 822.633 226.519C822.26 226.991 821.742 227.565 821.078 228.239L818.91 230.509V230.588H823.821V232H816.641ZM825.076 229.869V228.538L829.791 221.091H830.84V223.051H830.174L826.802 228.388V228.474H833.264V229.869H825.076ZM830.249 232V229.464L830.259 228.857V221.091H831.82V232H830.249ZM834.969 232V221.091H836.615V226.3H836.748L841.324 221.091H843.396L838.996 226.002L843.412 232H841.43L837.904 227.126L836.615 228.607V232H834.969ZM848.3 221.091H850.297L853.77 229.571H853.898L857.371 221.091H859.369V232H857.803V224.106H857.701L854.484 231.984H853.184L849.967 224.1H849.866V232H848.3V221.091ZM863.715 232.181C863.196 232.181 862.728 232.085 862.309 231.893C861.89 231.698 861.558 231.416 861.313 231.047C861.071 230.677 860.95 230.224 860.95 229.688C860.95 229.227 861.039 228.847 861.217 228.548C861.394 228.25 861.634 228.014 861.936 227.84C862.238 227.666 862.575 227.534 862.948 227.446C863.321 227.357 863.701 227.289 864.088 227.243C864.578 227.186 864.976 227.14 865.281 227.105C865.586 227.066 865.808 227.004 865.947 226.918C866.085 226.833 866.155 226.695 866.155 226.503V226.466C866.155 226 866.023 225.64 865.76 225.384C865.501 225.129 865.114 225.001 864.599 225.001C864.063 225.001 863.64 225.12 863.331 225.358C863.026 225.592 862.815 225.853 862.697 226.141L861.201 225.8C861.378 225.303 861.637 224.901 861.978 224.596C862.323 224.287 862.719 224.063 863.166 223.925C863.614 223.783 864.084 223.712 864.578 223.712C864.905 223.712 865.251 223.751 865.617 223.829C865.986 223.903 866.33 224.042 866.65 224.244C866.973 224.447 867.238 224.736 867.444 225.113C867.65 225.485 867.753 225.97 867.753 226.567V232H866.197V230.881H866.133C866.03 231.087 865.876 231.29 865.67 231.489C865.464 231.687 865.199 231.853 864.876 231.984C864.553 232.115 864.166 232.181 863.715 232.181ZM864.061 230.903C864.501 230.903 864.878 230.816 865.19 230.642C865.506 230.468 865.746 230.24 865.909 229.96C866.076 229.676 866.16 229.372 866.16 229.049V227.994C866.103 228.051 865.993 228.104 865.83 228.154C865.67 228.2 865.487 228.241 865.281 228.277C865.075 228.309 864.874 228.339 864.679 228.367C864.484 228.392 864.32 228.413 864.189 228.431C863.88 228.47 863.598 228.536 863.342 228.628C863.09 228.721 862.887 228.854 862.735 229.028C862.586 229.198 862.511 229.425 862.511 229.71C862.511 230.104 862.657 230.402 862.948 230.604C863.239 230.803 863.61 230.903 864.061 230.903ZM873.393 223.818V225.097H868.924V223.818H873.393ZM870.123 221.858H871.715V229.598C871.715 229.907 871.761 230.139 871.854 230.295C871.946 230.448 872.065 230.553 872.211 230.61C872.36 230.663 872.521 230.69 872.695 230.69C872.823 230.69 872.935 230.681 873.031 230.663C873.127 230.645 873.201 230.631 873.255 230.62L873.542 231.936C873.45 231.972 873.319 232.007 873.148 232.043C872.978 232.082 872.765 232.103 872.509 232.107C872.09 232.114 871.699 232.039 871.337 231.883C870.975 231.727 870.682 231.485 870.458 231.158C870.234 230.832 870.123 230.422 870.123 229.928V221.858ZM878.213 232.165C877.422 232.165 876.74 231.986 876.168 231.627C875.6 231.265 875.163 230.766 874.858 230.13C874.552 229.495 874.4 228.767 874.4 227.946C874.4 227.115 874.556 226.382 874.868 225.746C875.181 225.107 875.621 224.608 876.189 224.25C876.757 223.891 877.427 223.712 878.197 223.712C878.819 223.712 879.373 223.827 879.859 224.058C880.346 224.285 880.738 224.605 881.037 225.017C881.338 225.429 881.518 225.91 881.575 226.46H880.025C879.939 226.077 879.744 225.746 879.439 225.469C879.137 225.192 878.732 225.054 878.224 225.054C877.78 225.054 877.391 225.171 877.058 225.406C876.727 225.636 876.47 225.967 876.285 226.396C876.101 226.822 876.008 227.327 876.008 227.909C876.008 228.506 876.099 229.021 876.28 229.454C876.461 229.887 876.717 230.223 877.047 230.461C877.381 230.699 877.773 230.817 878.224 230.817C878.526 230.817 878.799 230.762 879.044 230.652C879.293 230.539 879.501 230.377 879.668 230.168C879.838 229.958 879.957 229.706 880.025 229.411H881.575C881.518 229.94 881.346 230.413 881.058 230.828C880.77 231.244 880.385 231.57 879.902 231.808C879.423 232.046 878.86 232.165 878.213 232.165ZM884.57 227.142V232H882.978V221.091H884.549V225.15H884.65C884.842 224.71 885.135 224.36 885.529 224.1C885.923 223.841 886.438 223.712 887.074 223.712C887.635 223.712 888.125 223.827 888.544 224.058C888.967 224.289 889.293 224.633 889.524 225.091C889.759 225.546 889.876 226.114 889.876 226.796V232H888.283V226.988C888.283 226.387 888.129 225.922 887.82 225.592C887.511 225.258 887.081 225.091 886.531 225.091C886.154 225.091 885.817 225.171 885.519 225.331C885.224 225.491 884.991 225.725 884.821 226.034C884.654 226.339 884.57 226.709 884.57 227.142ZM891.701 232V223.818H893.294V232H891.701ZM892.506 222.556C892.229 222.556 891.991 222.463 891.792 222.279C891.596 222.091 891.499 221.867 891.499 221.608C891.499 221.345 891.596 221.121 891.792 220.936C891.991 220.748 892.229 220.654 892.506 220.654C892.783 220.654 893.019 220.748 893.214 220.936C893.413 221.121 893.512 221.345 893.512 221.608C893.512 221.867 893.413 222.091 893.214 222.279C893.019 222.463 892.783 222.556 892.506 222.556ZM896.729 227.142V232H895.137V223.818H896.665V225.15H896.767C896.955 224.717 897.25 224.369 897.651 224.106C898.056 223.843 898.565 223.712 899.18 223.712C899.737 223.712 900.225 223.829 900.644 224.063C901.063 224.294 901.388 224.638 901.619 225.097C901.85 225.555 901.965 226.121 901.965 226.796V232H900.373V226.988C900.373 226.395 900.218 225.931 899.909 225.597C899.6 225.26 899.176 225.091 898.636 225.091C898.267 225.091 897.938 225.171 897.651 225.331C897.367 225.491 897.141 225.725 896.974 226.034C896.811 226.339 896.729 226.709 896.729 227.142ZM907.232 235.239C906.582 235.239 906.023 235.153 905.554 234.983C905.089 234.813 904.709 234.587 904.414 234.306C904.119 234.026 903.899 233.719 903.754 233.385L905.122 232.82C905.218 232.977 905.346 233.142 905.506 233.316C905.669 233.493 905.89 233.644 906.166 233.768C906.447 233.893 906.807 233.955 907.248 233.955C907.852 233.955 908.35 233.808 908.745 233.513C909.139 233.222 909.336 232.756 909.336 232.117V230.509H909.235C909.139 230.683 909 230.876 908.819 231.089C908.642 231.302 908.397 231.487 908.084 231.643C907.772 231.799 907.365 231.877 906.864 231.877C906.218 231.877 905.636 231.727 905.117 231.425C904.602 231.119 904.194 230.67 903.892 230.077C903.594 229.48 903.445 228.747 903.445 227.877C903.445 227.007 903.592 226.261 903.887 225.64C904.185 225.018 904.593 224.543 905.112 224.212C905.63 223.879 906.218 223.712 906.875 223.712C907.383 223.712 907.793 223.797 908.105 223.967C908.418 224.134 908.661 224.33 908.835 224.553C909.013 224.777 909.149 224.974 909.245 225.145H909.363V223.818H910.923V232.181C910.923 232.884 910.76 233.461 910.433 233.912C910.106 234.363 909.664 234.697 909.107 234.914C908.553 235.13 907.928 235.239 907.232 235.239ZM907.216 230.556C907.674 230.556 908.061 230.45 908.377 230.237C908.697 230.02 908.938 229.711 909.102 229.31C909.268 228.905 909.352 228.42 909.352 227.856C909.352 227.305 909.27 226.821 909.107 226.402C908.943 225.983 908.704 225.656 908.388 225.422C908.072 225.184 907.681 225.065 907.216 225.065C906.736 225.065 906.337 225.189 906.017 225.438C905.698 225.683 905.456 226.016 905.293 226.439C905.133 226.862 905.053 227.334 905.053 227.856C905.053 228.392 905.135 228.863 905.298 229.267C905.462 229.672 905.703 229.988 906.023 230.216C906.346 230.443 906.744 230.556 907.216 230.556ZM916.557 232V221.091H920.445C921.294 221.091 921.997 221.245 922.555 221.554C923.112 221.863 923.529 222.286 923.806 222.822C924.083 223.355 924.222 223.955 924.222 224.623C924.222 225.294 924.082 225.897 923.801 226.434C923.524 226.966 923.105 227.389 922.544 227.701C921.987 228.01 921.285 228.165 920.44 228.165H917.766V226.769H920.291C920.827 226.769 921.262 226.677 921.596 226.492C921.93 226.304 922.175 226.048 922.331 225.725C922.487 225.402 922.565 225.034 922.565 224.623C922.565 224.211 922.487 223.845 922.331 223.525C922.175 223.206 921.928 222.955 921.591 222.774C921.257 222.593 920.816 222.502 920.27 222.502H918.203V232H916.557ZM929.068 232.165C928.3 232.165 927.631 231.989 927.059 231.638C926.488 231.286 926.044 230.794 925.728 230.162C925.412 229.53 925.254 228.792 925.254 227.946C925.254 227.098 925.412 226.355 925.728 225.72C926.044 225.084 926.488 224.591 927.059 224.239C927.631 223.887 928.3 223.712 929.068 223.712C929.835 223.712 930.504 223.887 931.076 224.239C931.647 224.591 932.091 225.084 932.407 225.72C932.723 226.355 932.881 227.098 932.881 227.946C932.881 228.792 932.723 229.53 932.407 230.162C932.091 230.794 931.647 231.286 931.076 231.638C930.504 231.989 929.835 232.165 929.068 232.165ZM929.073 230.828C929.57 230.828 929.982 230.697 930.309 230.434C930.635 230.171 930.877 229.821 931.033 229.385C931.193 228.948 931.273 228.467 931.273 227.941C931.273 227.419 931.193 226.94 931.033 226.503C930.877 226.062 930.635 225.709 930.309 225.443C929.982 225.176 929.57 225.043 929.073 225.043C928.572 225.043 928.157 225.176 927.826 225.443C927.5 225.709 927.256 226.062 927.097 226.503C926.94 226.94 926.862 227.419 926.862 227.941C926.862 228.467 926.94 228.948 927.097 229.385C927.256 229.821 927.5 230.171 927.826 230.434C928.157 230.697 928.572 230.828 929.073 230.828ZM937.806 232.165C937.039 232.165 936.369 231.989 935.797 231.638C935.226 231.286 934.782 230.794 934.466 230.162C934.15 229.53 933.992 228.792 933.992 227.946C933.992 227.098 934.15 226.355 934.466 225.72C934.782 225.084 935.226 224.591 935.797 224.239C936.369 223.887 937.039 223.712 937.806 223.712C938.573 223.712 939.242 223.887 939.814 224.239C940.386 224.591 940.829 225.084 941.145 225.72C941.462 226.355 941.62 227.098 941.62 227.946C941.62 228.792 941.462 229.53 941.145 230.162C940.829 230.794 940.386 231.286 939.814 231.638C939.242 231.989 938.573 232.165 937.806 232.165ZM937.811 230.828C938.308 230.828 938.72 230.697 939.047 230.434C939.373 230.171 939.615 229.821 939.771 229.385C939.931 228.948 940.011 228.467 940.011 227.941C940.011 227.419 939.931 226.94 939.771 226.503C939.615 226.062 939.373 225.709 939.047 225.443C938.72 225.176 938.308 225.043 937.811 225.043C937.31 225.043 936.895 225.176 936.564 225.443C936.238 225.709 935.995 226.062 935.835 226.503C935.678 226.94 935.6 227.419 935.6 227.941C935.6 228.467 935.678 228.948 935.835 229.385C935.995 229.821 936.238 230.171 936.564 230.434C936.895 230.697 937.31 230.828 937.811 230.828ZM944.69 221.091V232H943.097V221.091H944.69Z" fill="white"/>
<path d="M817.662 4.1108H816.332C816.281 3.8267 816.186 3.5767 816.047 3.3608C815.908 3.14489 815.737 2.96165 815.535 2.81108C815.334 2.66051 815.108 2.54687 814.858 2.47017C814.611 2.39347 814.348 2.35511 814.07 2.35511C813.567 2.35511 813.116 2.48153 812.719 2.73438C812.324 2.98722 812.011 3.35795 811.781 3.84659C811.554 4.33523 811.44 4.93182 811.44 5.63636C811.44 6.34659 811.554 6.94602 811.781 7.43466C812.011 7.9233 812.325 8.29261 812.723 8.54261C813.121 8.79261 813.568 8.91761 814.065 8.91761C814.341 8.91761 814.602 8.88068 814.849 8.80682C815.099 8.73011 815.325 8.6179 815.527 8.47017C815.729 8.32244 815.899 8.14205 816.038 7.92898C816.18 7.71307 816.278 7.46591 816.332 7.1875L817.662 7.19176C817.591 7.62074 817.453 8.01562 817.249 8.37642C817.047 8.73438 816.787 9.04403 816.469 9.3054C816.153 9.56392 815.793 9.7642 815.386 9.90625C814.98 10.0483 814.537 10.1193 814.057 10.1193C813.301 10.1193 812.628 9.94034 812.037 9.58239C811.446 9.22159 810.98 8.70597 810.639 8.03551C810.301 7.36506 810.132 6.56534 810.132 5.63636C810.132 4.70455 810.303 3.90483 810.643 3.23722C810.984 2.56676 811.45 2.05256 812.041 1.6946C812.632 1.33381 813.304 1.15341 814.057 1.15341C814.52 1.15341 814.952 1.22017 815.352 1.35369C815.756 1.48437 816.118 1.67756 816.439 1.93324C816.76 2.18608 817.026 2.49574 817.236 2.86222C817.446 3.22585 817.588 3.64205 817.662 4.1108ZM821.172 10.1321C820.559 10.1321 820.023 9.99148 819.566 9.71023C819.108 9.42898 818.753 9.03551 818.501 8.52983C818.248 8.02415 818.121 7.43324 818.121 6.7571C818.121 6.07812 818.248 5.48437 818.501 4.97585C818.753 4.46733 819.108 4.07244 819.566 3.79119C820.023 3.50994 820.559 3.36932 821.172 3.36932C821.786 3.36932 822.322 3.50994 822.779 3.79119C823.236 4.07244 823.591 4.46733 823.844 4.97585C824.097 5.48437 824.224 6.07812 824.224 6.7571C824.224 7.43324 824.097 8.02415 823.844 8.52983C823.591 9.03551 823.236 9.42898 822.779 9.71023C822.322 9.99148 821.786 10.1321 821.172 10.1321ZM821.177 9.0625C821.574 9.0625 821.904 8.95739 822.165 8.74716C822.427 8.53693 822.62 8.2571 822.745 7.90767C822.873 7.55824 822.937 7.1733 822.937 6.75284C822.937 6.33523 822.873 5.9517 822.745 5.60227C822.62 5.25 822.427 4.96733 822.165 4.75426C821.904 4.54119 821.574 4.43466 821.177 4.43466C820.776 4.43466 820.444 4.54119 820.179 4.75426C819.918 4.96733 819.724 5.25 819.596 5.60227C819.471 5.9517 819.408 6.33523 819.408 6.75284C819.408 7.1733 819.471 7.55824 819.596 7.90767C819.724 8.2571 819.918 8.53693 820.179 8.74716C820.444 8.95739 820.776 9.0625 821.177 9.0625ZM824.926 10V3.45455H826.149V4.51989H826.23C826.366 4.15909 826.589 3.87784 826.899 3.67614C827.208 3.47159 827.579 3.36932 828.011 3.36932C828.448 3.36932 828.815 3.47159 829.11 3.67614C829.409 3.88068 829.629 4.16193 829.771 4.51989H829.839C829.995 4.17045 830.244 3.89205 830.585 3.68466C830.926 3.47443 831.332 3.36932 831.804 3.36932C832.397 3.36932 832.882 3.5554 833.257 3.92756C833.635 4.29972 833.823 4.8608 833.823 5.6108V10H832.549V5.73011C832.549 5.28693 832.429 4.96591 832.187 4.76705C831.946 4.56818 831.657 4.46875 831.322 4.46875C830.907 4.46875 830.585 4.59659 830.355 4.85227C830.125 5.10511 830.01 5.4304 830.01 5.82812V10H828.74V5.64915C828.74 5.29403 828.629 5.00852 828.407 4.79261C828.186 4.5767 827.897 4.46875 827.542 4.46875C827.301 4.46875 827.078 4.53267 826.873 4.66051C826.671 4.78551 826.508 4.96023 826.383 5.18466C826.261 5.40909 826.2 5.66903 826.2 5.96449V10H824.926ZM834.811 10V3.45455H836.034V4.51989H836.115C836.252 4.15909 836.475 3.87784 836.784 3.67614C837.094 3.47159 837.465 3.36932 837.896 3.36932C838.334 3.36932 838.7 3.47159 838.996 3.67614C839.294 3.88068 839.514 4.16193 839.656 4.51989H839.725C839.881 4.17045 840.129 3.89205 840.47 3.68466C840.811 3.47443 841.217 3.36932 841.689 3.36932C842.283 3.36932 842.767 3.5554 843.142 3.92756C843.52 4.29972 843.709 4.8608 843.709 5.6108V10H842.435V5.73011C842.435 5.28693 842.314 4.96591 842.073 4.76705C841.831 4.56818 841.543 4.46875 841.208 4.46875C840.793 4.46875 840.47 4.59659 840.24 4.85227C840.01 5.10511 839.895 5.4304 839.895 5.82812V10H838.625V5.64915C838.625 5.29403 838.514 5.00852 838.293 4.79261C838.071 4.5767 837.783 4.46875 837.428 4.46875C837.186 4.46875 836.963 4.53267 836.759 4.66051C836.557 4.78551 836.394 4.96023 836.269 5.18466C836.146 5.40909 836.085 5.66903 836.085 5.96449V10H834.811ZM848.843 7.28551V3.45455H850.121V10H848.869V8.86648H848.8C848.65 9.21591 848.408 9.5071 848.076 9.74006C847.746 9.97017 847.336 10.0852 846.844 10.0852C846.424 10.0852 846.052 9.9929 845.728 9.80824C845.407 9.62074 845.154 9.34375 844.969 8.97727C844.788 8.6108 844.697 8.15767 844.697 7.6179V3.45455H845.971V7.46449C845.971 7.91051 846.094 8.26562 846.342 8.52983C846.589 8.79403 846.91 8.92614 847.305 8.92614C847.543 8.92614 847.78 8.86648 848.016 8.74716C848.255 8.62784 848.452 8.44744 848.609 8.20597C848.768 7.96449 848.846 7.65767 848.843 7.28551ZM852.388 6.11364V10H851.113V3.45455H852.336V4.51989H852.417C852.568 4.1733 852.804 3.89489 853.125 3.68466C853.449 3.47443 853.856 3.36932 854.348 3.36932C854.794 3.36932 855.184 3.46307 855.52 3.65057C855.855 3.83523 856.115 4.1108 856.299 4.47727C856.484 4.84375 856.576 5.29687 856.576 5.83665V10H855.302V5.99006C855.302 5.51562 855.179 5.14489 854.932 4.87784C854.684 4.60795 854.345 4.47301 853.913 4.47301C853.618 4.47301 853.355 4.53693 853.125 4.66477C852.897 4.79261 852.717 4.98011 852.584 5.22727C852.453 5.47159 852.388 5.76705 852.388 6.11364ZM857.565 10V3.45455H858.839V10H857.565ZM858.209 2.4446C857.987 2.4446 857.797 2.37074 857.638 2.22301C857.481 2.07244 857.403 1.89347 857.403 1.68608C857.403 1.47585 857.481 1.29687 857.638 1.14915C857.797 0.998579 857.987 0.923295 858.209 0.923295C858.43 0.923295 858.619 0.998579 858.776 1.14915C858.935 1.29687 859.014 1.47585 859.014 1.68608C859.014 1.89347 858.935 2.07244 858.776 2.22301C858.619 2.37074 858.43 2.4446 858.209 2.4446ZM862.889 3.45455V4.47727H859.314V3.45455H862.889ZM860.272 1.88636H861.547V8.07812C861.547 8.32528 861.584 8.51136 861.657 8.63636C861.731 8.75852 861.826 8.84233 861.943 8.88778C862.062 8.9304 862.192 8.9517 862.331 8.9517C862.433 8.9517 862.522 8.9446 862.599 8.9304C862.676 8.91619 862.736 8.90483 862.778 8.89631L863.008 9.94886C862.934 9.97727 862.829 10.0057 862.693 10.0341C862.557 10.0653 862.386 10.0824 862.182 10.0852C861.846 10.0909 861.534 10.0312 861.244 9.90625C860.954 9.78125 860.72 9.58807 860.541 9.3267C860.362 9.06534 860.272 8.73722 860.272 8.34233V1.88636ZM864.384 12.4545C864.193 12.4545 864.02 12.4389 863.864 12.4077C863.708 12.3793 863.591 12.348 863.514 12.3139L863.821 11.2699C864.054 11.3324 864.262 11.3594 864.443 11.3509C864.625 11.3423 864.786 11.2741 864.925 11.1463C865.067 11.0185 865.192 10.8097 865.3 10.5199L865.458 10.0852L863.063 3.45455H864.426L866.084 8.53409H866.152L867.81 3.45455H869.178L866.48 10.8736C866.355 11.2145 866.196 11.5028 866.003 11.7386C865.81 11.9773 865.58 12.1563 865.313 12.2756C865.046 12.3949 864.736 12.4545 864.384 12.4545ZM878.12 4.02983C878.037 3.77131 877.926 3.53977 877.787 3.33523C877.651 3.12784 877.487 2.9517 877.297 2.80682C877.107 2.65909 876.889 2.54687 876.645 2.47017C876.404 2.39347 876.138 2.35511 875.848 2.35511C875.357 2.35511 874.914 2.48153 874.519 2.73438C874.124 2.98722 873.811 3.35795 873.581 3.84659C873.354 4.33239 873.24 4.92756 873.24 5.6321C873.24 6.33949 873.355 6.9375 873.585 7.42614C873.816 7.91477 874.131 8.28551 874.532 8.53835C874.932 8.79119 875.388 8.91761 875.899 8.91761C876.374 8.91761 876.787 8.82102 877.139 8.62784C877.495 8.43466 877.769 8.16193 877.962 7.80966C878.158 7.45455 878.256 7.03693 878.256 6.55682L878.597 6.62074H876.1V5.53409H879.53V6.52699C879.53 7.25994 879.374 7.89631 879.061 8.43608C878.752 8.97301 878.323 9.38778 877.774 9.6804C877.229 9.97301 876.604 10.1193 875.899 10.1193C875.11 10.1193 874.416 9.9375 873.82 9.57386C873.226 9.21023 872.763 8.6946 872.431 8.02699C872.098 7.35653 871.932 6.56108 871.932 5.64062C871.932 4.9446 872.029 4.3196 872.222 3.76562C872.415 3.21165 872.686 2.74148 873.036 2.35511C873.388 1.96591 873.801 1.66903 874.276 1.46449C874.753 1.2571 875.274 1.15341 875.84 1.15341C876.311 1.15341 876.75 1.22301 877.157 1.36222C877.566 1.50142 877.929 1.69886 878.247 1.95455C878.568 2.21023 878.834 2.5142 879.044 2.86648C879.255 3.21591 879.397 3.60369 879.47 4.02983H878.12ZM880.379 10V3.45455H881.611V4.49432H881.679C881.798 4.14205 882.009 3.86506 882.31 3.66335C882.614 3.45881 882.957 3.35653 883.341 3.35653C883.421 3.35653 883.514 3.35937 883.622 3.36506C883.733 3.37074 883.82 3.37784 883.882 3.38636V4.60511C883.831 4.59091 883.74 4.57528 883.609 4.55824C883.479 4.53835 883.348 4.52841 883.217 4.52841C882.916 4.52841 882.648 4.59233 882.412 4.72017C882.179 4.84517 881.994 5.01989 881.858 5.24432C881.722 5.46591 881.653 5.71875 881.653 6.00284V10H880.379ZM886.111 10.1449C885.696 10.1449 885.321 10.0682 884.986 9.91477C884.651 9.75852 884.385 9.53267 884.189 9.23722C883.996 8.94176 883.899 8.57955 883.899 8.15057C883.899 7.78125 883.97 7.47727 884.112 7.23864C884.255 7 884.446 6.81108 884.688 6.67188C884.929 6.53267 885.199 6.42756 885.497 6.35653C885.796 6.28551 886.1 6.23153 886.409 6.1946C886.801 6.14915 887.12 6.11222 887.364 6.08381C887.608 6.05256 887.786 6.00284 887.897 5.93466C888.007 5.86648 888.063 5.75568 888.063 5.60227V5.57244C888.063 5.20028 887.958 4.91193 887.747 4.70739C887.54 4.50284 887.23 4.40057 886.818 4.40057C886.389 4.40057 886.051 4.49574 885.804 4.68608C885.56 4.87358 885.391 5.08239 885.297 5.3125L884.1 5.03977C884.242 4.64205 884.449 4.32102 884.722 4.0767C884.997 3.82955 885.314 3.65057 885.672 3.53977C886.03 3.42614 886.407 3.36932 886.801 3.36932C887.063 3.36932 887.34 3.40057 887.632 3.46307C887.928 3.52273 888.203 3.63352 888.459 3.79545C888.718 3.95739 888.929 4.18892 889.094 4.49006C889.259 4.78835 889.341 5.17614 889.341 5.65341V10H888.097V9.10511H888.046C887.963 9.26989 887.84 9.43182 887.675 9.59091C887.51 9.75 887.299 9.8821 887.04 9.98722C886.782 10.0923 886.472 10.1449 886.111 10.1449ZM886.388 9.12216C886.74 9.12216 887.041 9.05256 887.291 8.91335C887.544 8.77415 887.736 8.59233 887.867 8.3679C888 8.14062 888.067 7.89773 888.067 7.6392V6.79545C888.022 6.84091 887.933 6.88352 887.803 6.9233C887.675 6.96023 887.529 6.9929 887.364 7.02131C887.199 7.04687 887.039 7.07102 886.882 7.09375C886.726 7.11364 886.595 7.13068 886.49 7.14489C886.243 7.17614 886.017 7.22869 885.813 7.30256C885.611 7.37642 885.449 7.48295 885.327 7.62216C885.208 7.75852 885.148 7.94034 885.148 8.16761C885.148 8.48295 885.264 8.72159 885.497 8.88352C885.73 9.04261 886.027 9.12216 886.388 9.12216ZM891.592 6.11364V10H890.318V3.45455H891.541V4.51989H891.622C891.773 4.1733 892.009 3.89489 892.33 3.68466C892.653 3.47443 893.061 3.36932 893.553 3.36932C893.999 3.36932 894.389 3.46307 894.724 3.65057C895.06 3.83523 895.32 4.1108 895.504 4.47727C895.689 4.84375 895.781 5.29687 895.781 5.83665V10H894.507V5.99006C894.507 5.51562 894.384 5.14489 894.136 4.87784C893.889 4.60795 893.55 4.47301 893.118 4.47301C892.823 4.47301 892.56 4.53693 892.33 4.66477C892.102 4.79261 891.922 4.98011 891.788 5.22727C891.658 5.47159 891.592 5.76705 891.592 6.11364ZM899.826 3.45455V4.47727H896.25V3.45455H899.826ZM897.209 1.88636H898.483V8.07812C898.483 8.32528 898.52 8.51136 898.594 8.63636C898.668 8.75852 898.763 8.84233 898.879 8.88778C898.999 8.9304 899.128 8.9517 899.267 8.9517C899.37 8.9517 899.459 8.9446 899.536 8.9304C899.612 8.91619 899.672 8.90483 899.715 8.89631L899.945 9.94886C899.871 9.97727 899.766 10.0057 899.629 10.0341C899.493 10.0653 899.323 10.0824 899.118 10.0852C898.783 10.0909 898.47 10.0312 898.181 9.90625C897.891 9.78125 897.656 9.58807 897.478 9.3267C897.299 9.06534 897.209 8.73722 897.209 8.34233V1.88636ZM905.314 5.05256L904.159 5.2571C904.111 5.10937 904.034 4.96875 903.929 4.83523C903.827 4.7017 903.688 4.59233 903.512 4.5071C903.336 4.42187 903.115 4.37926 902.851 4.37926C902.49 4.37926 902.189 4.46023 901.948 4.62216C901.706 4.78125 901.586 4.98722 901.586 5.24006C901.586 5.45881 901.667 5.63494 901.829 5.76847C901.99 5.90199 902.252 6.01136 902.613 6.09659L903.652 6.33523C904.255 6.47443 904.704 6.68892 904.999 6.97869C905.294 7.26847 905.442 7.64489 905.442 8.10795C905.442 8.5 905.329 8.84943 905.101 9.15625C904.877 9.46023 904.563 9.69886 904.159 9.87216C903.759 10.0455 903.294 10.1321 902.766 10.1321C902.033 10.1321 901.435 9.97585 900.972 9.66335C900.509 9.34801 900.225 8.90057 900.12 8.32102L901.351 8.13352C901.428 8.45455 901.586 8.69744 901.824 8.86222C902.063 9.02415 902.374 9.10511 902.758 9.10511C903.175 9.10511 903.509 9.01847 903.759 8.84517C904.009 8.66903 904.134 8.45455 904.134 8.2017C904.134 7.99716 904.057 7.82528 903.904 7.68608C903.753 7.54687 903.522 7.44176 903.209 7.37074L902.101 7.12784C901.49 6.98864 901.039 6.76705 900.746 6.46307C900.456 6.15909 900.311 5.77415 900.311 5.30824C900.311 4.92187 900.419 4.58381 900.635 4.29403C900.851 4.00426 901.15 3.77841 901.53 3.61648C901.911 3.4517 902.347 3.36932 902.838 3.36932C903.546 3.36932 904.103 3.52273 904.509 3.82955C904.915 4.13352 905.184 4.54119 905.314 5.05256ZM908.681 10V1.27273H911.792C912.468 1.27273 913.029 1.3892 913.475 1.62216C913.924 1.85511 914.259 2.17756 914.481 2.58949C914.702 2.99858 914.813 3.47159 914.813 4.00852C914.813 4.54261 914.701 5.01278 914.477 5.41903C914.255 5.82244 913.92 6.13636 913.471 6.3608C913.025 6.58523 912.464 6.69744 911.788 6.69744H909.431V5.56392H911.668C912.095 5.56392 912.441 5.50284 912.708 5.38068C912.978 5.25852 913.175 5.08097 913.3 4.84801C913.425 4.61506 913.488 4.33523 913.488 4.00852C913.488 3.67898 913.424 3.39347 913.296 3.15199C913.171 2.91051 912.974 2.72585 912.704 2.59801C912.437 2.46733 912.086 2.40199 911.651 2.40199H909.998V10H908.681ZM912.989 6.0625L915.146 10H913.646L911.532 6.0625H912.989ZM918.268 10.1321C917.655 10.1321 917.119 9.99148 916.662 9.71023C916.204 9.42898 915.849 9.03551 915.596 8.52983C915.344 8.02415 915.217 7.43324 915.217 6.7571C915.217 6.07812 915.344 5.48437 915.596 4.97585C915.849 4.46733 916.204 4.07244 916.662 3.79119C917.119 3.50994 917.655 3.36932 918.268 3.36932C918.882 3.36932 919.417 3.50994 919.875 3.79119C920.332 4.07244 920.687 4.46733 920.94 4.97585C921.193 5.48437 921.319 6.07812 921.319 6.7571C921.319 7.43324 921.193 8.02415 920.94 8.52983C920.687 9.03551 920.332 9.42898 919.875 9.71023C919.417 9.99148 918.882 10.1321 918.268 10.1321ZM918.273 9.0625C918.67 9.0625 919 8.95739 919.261 8.74716C919.523 8.53693 919.716 8.2571 919.841 7.90767C919.969 7.55824 920.033 7.1733 920.033 6.75284C920.033 6.33523 919.969 5.9517 919.841 5.60227C919.716 5.25 919.523 4.96733 919.261 4.75426C919 4.54119 918.67 4.43466 918.273 4.43466C917.872 4.43466 917.54 4.54119 917.275 4.75426C917.014 4.96733 916.819 5.25 916.692 5.60227C916.567 5.9517 916.504 6.33523 916.504 6.75284C916.504 7.1733 916.567 7.55824 916.692 7.90767C916.819 8.2571 917.014 8.53693 917.275 8.74716C917.54 8.95739 917.872 9.0625 918.273 9.0625ZM926.168 7.28551V3.45455H927.446V10H926.194V8.86648H926.125C925.975 9.21591 925.733 9.5071 925.401 9.74006C925.071 9.97017 924.661 10.0852 924.169 10.0852C923.749 10.0852 923.377 9.9929 923.053 9.80824C922.732 9.62074 922.479 9.34375 922.294 8.97727C922.113 8.6108 922.022 8.15767 922.022 7.6179V3.45455H923.296V7.46449C923.296 7.91051 923.419 8.26562 923.667 8.52983C923.914 8.79403 924.235 8.92614 924.63 8.92614C924.868 8.92614 925.105 8.86648 925.341 8.74716C925.58 8.62784 925.777 8.44744 925.934 8.20597C926.093 7.96449 926.171 7.65767 926.168 7.28551ZM929.713 6.11364V10H928.438V3.45455H929.661V4.51989H929.742C929.893 4.1733 930.129 3.89489 930.45 3.68466C930.774 3.47443 931.181 3.36932 931.673 3.36932C932.119 3.36932 932.509 3.46307 932.845 3.65057C933.18 3.83523 933.44 4.1108 933.624 4.47727C933.809 4.84375 933.901 5.29687 933.901 5.83665V10H932.627V5.99006C932.627 5.51562 932.504 5.14489 932.257 4.87784C932.009 4.60795 931.67 4.47301 931.238 4.47301C930.943 4.47301 930.68 4.53693 930.45 4.66477C930.223 4.79261 930.042 4.98011 929.909 5.22727C929.778 5.47159 929.713 5.76705 929.713 6.11364ZM937.341 10.1278C936.812 10.1278 936.341 9.9929 935.926 9.72301C935.514 9.45028 935.19 9.0625 934.954 8.55966C934.721 8.05398 934.605 7.44744 934.605 6.74006C934.605 6.03267 934.723 5.42756 934.958 4.92472C935.197 4.42187 935.524 4.03693 935.939 3.76989C936.353 3.50284 936.824 3.36932 937.349 3.36932C937.755 3.36932 938.082 3.4375 938.329 3.57386C938.579 3.70739 938.772 3.86364 938.909 4.04261C939.048 4.22159 939.156 4.37926 939.233 4.51562H939.309V1.27273H940.583V10H939.339V8.98153H939.233C939.156 9.12074 939.045 9.27983 938.9 9.45881C938.758 9.63778 938.562 9.79403 938.312 9.92756C938.062 10.0611 937.738 10.1278 937.341 10.1278ZM937.622 9.04119C937.988 9.04119 938.298 8.9446 938.551 8.75142C938.806 8.5554 939 8.28409 939.13 7.9375C939.264 7.59091 939.331 7.1875 939.331 6.72727C939.331 6.27273 939.265 5.875 939.135 5.53409C939.004 5.19318 938.812 4.92756 938.559 4.73722C938.306 4.54687 937.994 4.4517 937.622 4.4517C937.238 4.4517 936.919 4.55114 936.663 4.75C936.407 4.94886 936.214 5.22017 936.083 5.56392C935.956 5.90767 935.892 6.29545 935.892 6.72727C935.892 7.16477 935.957 7.55824 936.088 7.90767C936.218 8.2571 936.412 8.53409 936.667 8.73864C936.926 8.94034 937.244 9.04119 937.622 9.04119Z" fill="#FF2975"/>
<defs>
<linearGradient id="paint0_linear_0_1" x1="485" y1="131" x2="485" y2="139" gradientUnits="userSpaceOnUse">
<stop stop-color="#FF9524"/>
<stop offset="0.465" stop-color="#FF2975"/>
<stop offset="1" stop-color="#FF2975" stop-opacity="0"/>
</linearGradient>
<linearGradient id="paint1_linear_0_1" x1="214.217" y1="131.001" x2="214.217" y2="139.077" gradientUnits="userSpaceOnUse">
<stop stop-color="#FF9524"/>
<stop offset="0.465" stop-color="#FF2975"/>
<stop offset="1" stop-color="#FF2975" stop-opacity="0"/>
</linearGradient>
<linearGradient id="paint2_linear_0_1" x1="745.902" y1="131.001" x2="745.902" y2="139.077" gradientUnits="userSpaceOnUse">
<stop stop-color="#FF9524"/>
<stop offset="0.465" stop-color="#FF2975"/>
<stop offset="1" stop-color="#FF2975" stop-opacity="0"/>
</linearGradient>
<linearGradient id="paint3_linear_0_1" x1="345.662" y1="113.869" x2="345.662" y2="153.869" gradientUnits="userSpaceOnUse">
<stop stop-color="#FF9524"/>
<stop offset="1" stop-color="#FF2975"/>
</linearGradient>
<linearGradient id="paint4_linear_0_1" x1="71.0701" y1="113.869" x2="71.0701" y2="153.869" gradientUnits="userSpaceOnUse">
<stop stop-color="#FF9524"/>
<stop offset="1" stop-color="#FF2975"/>
</linearGradient>
<linearGradient id="paint5_linear_0_1" x1="622.857" y1="114.568" x2="622.857" y2="154.568" gradientUnits="userSpaceOnUse">
<stop stop-color="#FF9524"/>
<stop offset="1" stop-color="#FF2975"/>
</linearGradient>
<linearGradient id="paint6_linear_0_1" x1="875.924" y1="114.955" x2="875.924" y2="154.955" gradientUnits="userSpaceOnUse">
<stop stop-color="#FF9524"/>
<stop offset="1" stop-color="#FF2975"/>
</linearGradient>
</defs>
</svg>
