<svg width="49" height="49" viewBox="0 0 49 49" fill="none" xmlns="http://www.w3.org/2000/svg">
<path d="M23.6806 14.655C28.267 14.3966 31.3048 19.4636 29.2152 23.5724C27.2159 27.5032 21.7968 28.0383 19.1528 24.4831C16.2247 20.5459 18.8501 14.9273 23.6806 14.6552V14.655Z" fill="#FF2975"/>
<path d="M17.8268 29.2691C21.0924 29.0898 22.7131 32.5929 22.4282 35.4747C22.1029 38.7646 19.1382 42.6715 15.5119 41.173C10.4851 39.0959 12.3621 29.5689 17.8266 29.2689L17.8268 29.2691Z" fill="#FF2975"/>
<path d="M29.7198 29.2692C32.9385 29.0609 35.2147 32.6153 35.3605 35.5487C35.5122 38.6007 33.5954 41.9419 30.2011 41.4184C27.1713 40.9511 25.3728 37.4112 25.4669 34.5364C25.5484 32.0477 27.0574 29.4414 29.7196 29.2691L29.7198 29.2692Z" fill="#FF2975"/>
<path d="M11.7508 19.8397C15.6548 19.4887 16.7474 23.7457 14.8046 26.6173C13.1796 29.0194 9.19769 30.3112 7.51543 27.3047C5.83707 24.3053 8.52282 20.1298 11.751 19.8397H11.7508Z" fill="#FF2975"/>
<path d="M35.4253 19.8396C39.1477 19.4753 42.4954 24.3469 40.3018 27.5637C38.3862 30.3729 34.4648 28.8175 32.9948 26.339C31.5191 23.8508 32.1795 20.1572 35.4253 19.8396Z" fill="#FF2975"/>
<path d="M31.7945 10.8235C33.5816 10.6482 35.4522 11.6191 36.1688 13.316C37.7525 17.0666 32.9067 19.0716 30.1713 16.4666C28.1215 14.5144 28.8859 11.1088 31.7943 10.8235H31.7945Z" fill="#FF2975"/>
<path d="M15.3071 10.8235C19.055 10.4563 20.3761 14.5859 17.4604 16.801C15.811 18.0543 12.9742 18.0558 11.9238 16.035C10.6936 13.668 12.9713 11.0523 15.3071 10.8237V10.8235Z" fill="#FF2975"/>
<path d="M23.6439 7.51838C25.8849 7.3164 28.2081 9.11776 27.3202 11.5463C26.3243 14.2699 21.8448 14.3189 20.7703 11.6117C19.9489 9.54184 21.6499 7.69801 23.6439 7.51838Z" fill="#FF2975"/>
</svg>
