
<svg width="52" height="53" viewBox="0 0 52 53" fill="none" xmlns="http://www.w3.org/2000/svg">
<g id="Group 34">
<g id="Group 32">
<g id="Group 7">
<ellipse id="Ellipse 29" cx="15.086" cy="9.72641" rx="15.086" ry="9.72641" transform="matrix(-0.966681 -0.24567 0.155968 -0.990347 38.2363 40.509)" stroke="#8247E5" stroke-width="1.45134"/>
<ellipse id="Ellipse 28" cx="15.086" cy="9.72641" rx="15.086" ry="9.72641" transform="matrix(-0.966681 -0.24567 0.155968 -0.990347 38.9727 38.2127)" fill="#0A090D" stroke="#8247E5" stroke-width="1.45134"/>
</g>
</g>
<g id="Group 33">
<g id="Group 35">
<g id="Group 29">
<path id="Polygon 7" d="M31.4383 29.9355C31.3718 29.9739 31.2899 29.9739 31.2234 29.9355L29.328 28.8412C29.2615 28.8028 29.2206 28.7319 29.2206 28.6551L29.2206 26.4665C29.2206 26.3897 29.2615 26.3188 29.328 26.2804L31.2234 25.1861C31.2899 25.1477 31.3718 25.1477 31.4383 25.1861L33.3336 26.2804C33.4001 26.3188 33.4411 26.3897 33.4411 26.4665L33.4411 28.6551C33.4411 28.7319 33.4001 28.8028 33.3336 28.8412L31.4383 29.9355Z" fill="#0A090D" stroke="#8247E5" stroke-width="1.45134"/>
<path id="Polygon 8" d="M18.1563 22.4057L20.1591 23.5621L24.9943 26.3426L26.9971 27.4989C27.0636 27.5373 27.1455 27.5373 27.2121 27.499L29.1074 26.4047C29.1739 26.3663 29.2148 26.2953 29.2148 26.2185L29.2148 24.03C29.2148 23.9532 29.1739 23.8822 29.1074 23.8438L27.1046 22.6875L22.2693 19.9069L20.2665 18.7506C20.2 18.7122 20.1181 18.7122 20.0516 18.7506L18.1563 19.8449C18.0898 19.8833 18.0488 19.9542 18.0488 20.031L18.0488 22.2196C18.0488 22.2964 18.0898 22.3673 18.1563 22.4057Z" fill="#0A090D" stroke="#8247E5" stroke-width="1.45134"/>
<path id="Vector 6" d="M21.9738 21.5644C21.6832 21.3998 21.3142 21.502 21.1496 21.7926C20.985 22.0832 21.0872 22.4522 21.3779 22.6168L21.9738 21.5644ZM29.5076 25.8303L21.9738 21.5644L21.3779 22.6168L28.9117 26.8827L29.5076 25.8303Z" fill="#8247E5"/>
<path id="Vector 9" d="M30.4629 24.2416L26.9226 26.2724" stroke="#0A090D" stroke-width="0.967559"/>
</g>
<path id="Vector 14" d="M28.1992 29.6924L31.704 23.8419" stroke="#8247E5" stroke-width="1.45134" stroke-linecap="round"/>
</g>
</g>
</g>
</svg>
